<svg xmlns="http://www.w3.org/2000/svg" width="52.529" height="39.671" viewBox="0 0 52.529 39.671"><g transform="translate(-51.989 -14.534)"><path d="M872.238-560.345v28.88l-31.021,1.309.185-38.416Z" transform="translate(-768.22 583.773)" fill="none" stroke="#f3000b" stroke-width="1"/><path d="M883.146-546.385c-1.163.09-20.853-4.559-20.853-4.559" transform="translate(-779.127 574.452)" fill="none" stroke="#f3000b" stroke-width="1"/><path d="M883-545.217c-1.163.09-20.991-3.519-20.991-3.519" transform="translate(-778.978 577.525)" fill="none" stroke="#f3000b" stroke-width="1"/><path d="M883.245-543.746c-1.163.09-20.76-2.208-20.76-2.208" transform="translate(-779.226 580.295)" fill="none" stroke="#f3000b" stroke-width="1"/><path d="M883.146-514.674l-20.853-1.4" transform="translate(-779.127 556.013)" fill="none" stroke="#f3000b" stroke-width="1"/><path d="M882.8-503.207l-21.176-.316v7.223" transform="translate(-778.78 549.377)" fill="none" stroke="#f3000b" stroke-width="1"/><g transform="translate(2269.422 5678.356)" fill="#f3000b"><path d="M -2186.41455078125 -5632.7568359375 L -2186.600830078125 -5632.7568359375 L -2186.6083984375 -5633.17431640625 L -2186.65380859375 -5635.6376953125 L -2186.660888671875 -5636.0107421875 L -2187.0205078125 -5636.1103515625 L -2188.583984375 -5636.54296875 L -2188.583984375 -5638.27783203125 L -2187.029296875 -5638.67724609375 L -2186.65380859375 -5638.77392578125 L -2186.65380859375 -5639.16162109375 L -2186.65380859375 -5641.32763671875 L -2186.65380859375 -5641.9814453125 L -2187.284912109375 -5641.81005859375 L -2195.25146484375 -5639.64404296875 L -2195.620361328125 -5639.5439453125 L -2195.620361328125 -5639.16162109375 L -2195.620361328125 -5637.1162109375 L -2195.620361328125 -5636.06298828125 L -2195.620361328125 -5635.7119140625 L -2195.29052734375 -5635.5927734375 L -2187.44970703125 -5632.7568359375 L -2196.02880859375 -5632.7568359375 L -2196.02880859375 -5643.1142578125 L -2195.6181640625 -5643.0693359375 L -2187.158447265625 -5642.14111328125 L -2186.60400390625 -5642.080078125 L -2186.60400390625 -5642.63818359375 L -2186.60400390625 -5644.892578125 C -2186.5908203125 -5645.09765625 -2186.506591796875 -5646.705078125 -2186.981689453125 -5648.36181640625 C -2187.283935546875 -5649.41650390625 -2187.750732421875 -5650.2783203125 -2188.368896484375 -5650.92333984375 C -2189.1572265625 -5651.74853515625 -2190.1826171875 -5652.2138671875 -2191.416259765625 -5652.3056640625 C -2191.559814453125 -5652.31591796875 -2191.702392578125 -5652.3212890625 -2191.84130859375 -5652.3212890625 C -2193.04638671875 -5652.3212890625 -2194.024658203125 -5651.919921875 -2194.748779296875 -5651.12841796875 C -2195.581298828125 -5650.21728515625 -2195.90625 -5648.943359375 -2196.02880859375 -5647.96044921875 L -2196.02880859375 -5653.603515625 L -2195.666259765625 -5653.52783203125 L -2187.3359375 -5651.78271484375 L -2186.706298828125 -5651.65087890625 L -2186.73388671875 -5652.29345703125 L -2186.842041015625 -5654.81494140625 L -2186.858642578125 -5655.2041015625 L -2187.239990234375 -5655.283203125 L -2189.756591796875 -5655.8046875 L -2189.756591796875 -5657.8095703125 L -2187.346435546875 -5657.25 L -2186.7333984375 -5657.107421875 L -2186.7333984375 -5657.73681640625 L -2186.7333984375 -5660.029296875 L -2186.7333984375 -5660.2783203125 L -2186.41455078125 -5660.19482421875 L -2186.41455078125 -5632.7568359375 Z M -2191.0322265625 -5637.22265625 L -2191.83203125 -5637.44384765625 L -2191.0322265625 -5637.6494140625 L -2191.0322265625 -5637.22265625 Z M -2189.0458984375 -5645.501953125 L -2193.6201171875 -5646.11279296875 C -2193.70068359375 -5646.82568359375 -2193.704833984375 -5648.0654296875 -2193.14404296875 -5648.734375 C -2192.840087890625 -5649.0966796875 -2192.39794921875 -5649.27294921875 -2191.79296875 -5649.27294921875 C -2191.730712890625 -5649.27294921875 -2191.6669921875 -5649.2705078125 -2191.607421875 -5649.26806640625 C -2190.94873046875 -5649.22998046875 -2190.410400390625 -5648.9833984375 -2190.0068359375 -5648.53564453125 C -2189.23779296875 -5647.68505859375 -2189.07470703125 -5646.27099609375 -2189.0458984375 -5645.501953125 Z M -2193.16845703125 -5656.51025390625 L -2195.462158203125 -5656.98583984375 L -2196.02880859375 -5657.10302734375 L -2196.02880859375 -5659.26611328125 L -2195.6767578125 -5659.1845703125 L -2193.16845703125 -5658.60205078125 L -2193.16845703125 -5656.51025390625 Z" stroke="none"/><path d="M -2190.30224609375 -5633.2568359375 L -2195.46044921875 -5635.12255859375 L -2195.52880859375 -5635.1474609375 L -2195.52880859375 -5633.2568359375 L -2190.30224609375 -5633.2568359375 M -2186.91455078125 -5636.599609375 L -2186.91455078125 -5638.1904296875 L -2188.083984375 -5637.89013671875 L -2188.083984375 -5636.92333984375 L -2186.91455078125 -5636.599609375 M -2195.52880859375 -5640.0869140625 L -2195.3828125 -5640.12646484375 L -2189.056884765625 -5641.8466796875 L -2195.52880859375 -5642.556640625 L -2195.52880859375 -5640.0869140625 M -2189.588623046875 -5646.07861328125 C -2189.67578125 -5646.80224609375 -2189.892822265625 -5647.6640625 -2190.378173828125 -5648.201171875 C -2190.6943359375 -5648.5517578125 -2191.104736328125 -5648.7373046875 -2191.633056640625 -5648.76904296875 C -2191.685791015625 -5648.77099609375 -2191.7412109375 -5648.77294921875 -2191.79296875 -5648.77294921875 C -2192.389892578125 -5648.77294921875 -2192.63134765625 -5648.5673828125 -2192.7607421875 -5648.4130859375 C -2193.1083984375 -5647.99853515625 -2193.178955078125 -5647.1962890625 -2193.152099609375 -5646.5546875 L -2189.588623046875 -5646.07861328125 M -2186.91455078125 -5649.6279296875 L -2186.91455078125 -5651.18359375 L -2187.4384765625 -5651.29345703125 L -2188.18994140625 -5651.45068359375 C -2188.1279296875 -5651.39208984375 -2188.0673828125 -5651.33154296875 -2188.0078125 -5651.26953125 C -2187.572021484375 -5650.814453125 -2187.20654296875 -5650.26513671875 -2186.91455078125 -5649.6279296875 M -2195.52880859375 -5650.93994140625 C -2195.406005859375 -5651.12353515625 -2195.26953125 -5651.2998046875 -2195.11767578125 -5651.4658203125 C -2194.66162109375 -5651.96435546875 -2194.10400390625 -5652.33056640625 -2193.46630859375 -5652.55615234375 L -2195.52880859375 -5652.98828125 L -2195.52880859375 -5650.93994140625 M -2186.91455078125 -5655.72607421875 L -2186.91455078125 -5656.63623046875 L -2187.459716796875 -5656.7626953125 L -2189.256591796875 -5657.18017578125 L -2189.256591796875 -5656.21142578125 L -2187.138671875 -5655.7724609375 L -2186.91455078125 -5655.72607421875 M -2193.66845703125 -5657.12451171875 L -2193.66845703125 -5658.20458984375 L -2195.52880859375 -5658.63671875 L -2195.52880859375 -5657.51025390625 L -2195.36083984375 -5657.47509765625 L -2193.66845703125 -5657.12451171875 M -2185.91455078125 -5632.2568359375 L -2185.91552734375 -5632.2568359375 L -2196.52880859375 -5632.2568359375 L -2196.52880859375 -5663.35693359375 L -2185.91455078125 -5660.5810546875 L -2185.91455078125 -5632.2578125 L -2185.91455078125 -5632.2568359375 Z M -2187.15380859375 -5641.32763671875 L -2195.120361328125 -5639.16162109375 L -2195.120361328125 -5637.1162109375 L -2195.120361328125 -5636.06298828125 L -2187.1083984375 -5633.1650390625 L -2187.15380859375 -5635.62841796875 L -2189.083984375 -5636.16259765625 L -2189.083984375 -5638.66552734375 L -2187.15380859375 -5639.16162109375 L -2187.15380859375 -5641.32763671875 L -2187.153564453125 -5641.32763671875 L -2187.15380859375 -5641.32763671875 L -2187.15380859375 -5641.32763671875 Z M -2191.84130859375 -5651.8212890625 C -2192.900390625 -5651.8212890625 -2193.75439453125 -5651.474609375 -2194.3798828125 -5650.791015625 C -2195.185302734375 -5649.90966796875 -2195.46435546875 -5648.615234375 -2195.556640625 -5647.68408203125 C -2195.657470703125 -5646.662109375 -2195.56494140625 -5645.86181640625 -2195.563720703125 -5645.85595703125 L -2195.563720703125 -5643.56640625 L -2187.10400390625 -5642.63818359375 L -2187.10400390625 -5644.90966796875 C -2187.102783203125 -5644.92626953125 -2186.98583984375 -5646.56298828125 -2187.46240234375 -5648.22412109375 C -2187.7421875 -5649.2001953125 -2188.168701171875 -5649.99169921875 -2188.72998046875 -5650.57763671875 C -2189.4306640625 -5651.31103515625 -2190.346923828125 -5651.724609375 -2191.453369140625 -5651.80712890625 C -2191.582275390625 -5651.81640625 -2191.712646484375 -5651.8212890625 -2191.84130859375 -5651.8212890625 Z M -2187.2333984375 -5652.27197265625 L -2187.341552734375 -5654.79345703125 L -2190.256591796875 -5655.3974609375 L -2190.256591796875 -5658.43896484375 L -2187.2333984375 -5657.73681640625 L -2187.2333984375 -5660.029296875 L -2195.563720703125 -5662.1103515625 L -2195.563720703125 -5659.67138671875 L -2192.66845703125 -5658.9990234375 L -2192.66845703125 -5655.89599609375 L -2195.563720703125 -5656.49609375 L -2195.563720703125 -5654.01708984375 L -2187.2333984375 -5652.27197265625 Z M -2190.5322265625 -5636.56494140625 L -2190.533447265625 -5636.5654296875 L -2193.77001953125 -5637.4619140625 L -2190.5322265625 -5638.29443359375 L -2190.5322265625 -5636.56640625 L -2190.5322265625 -5636.56494140625 Z M -2188.543701171875 -5644.93017578125 L -2188.546630859375 -5644.9306640625 L -2194.05859375 -5645.6669921875 C -2194.0771484375 -5645.76123046875 -2194.477294921875 -5647.92236328125 -2193.527099609375 -5649.0556640625 C -2193.127685546875 -5649.53173828125 -2192.544189453125 -5649.77294921875 -2191.79296875 -5649.77294921875 C -2191.716796875 -5649.77294921875 -2191.640625 -5649.77001953125 -2191.582763671875 -5649.767578125 C -2190.786376953125 -5649.72216796875 -2190.131103515625 -5649.42041015625 -2189.635498046875 -5648.87060546875 C -2188.40576171875 -5647.51025390625 -2188.540283203125 -5645.037109375 -2188.546630859375 -5644.9326171875 L -2188.543701171875 -5644.93017578125 Z" stroke="none" fill="#f3000b"/></g><path d="M818.5-568.146l-19.788,17.3v18.377l20.648,2.351Z" transform="translate(-746.22 583.76)" fill="none" stroke="#f3000b" stroke-width="1"/><path d="M819.218-555.015,799.35-541.249l-.641.444" transform="translate(-746.22 576.605)" fill="none" stroke="#f3000b" stroke-width="1"/><path d="M798.709-530.913l20.648-10.043" transform="translate(-746.22 569.171)" fill="none" stroke="#f3000b" stroke-width="1"/><path d="M819.379-529.393l-20.629,7.842" transform="translate(-746.241 563.056)" fill="none" stroke="#f3000b" stroke-width="1"/><path d="M819.2-515.518l-20.527,4.25" transform="translate(-746.2 555.719)" fill="none" stroke="#f3000b" stroke-width="1"/><path d="M819.248-504.047l-20.48,2.264" transform="translate(-746.251 549.653)" fill="none" stroke="#f3000b" stroke-width="1"/><path d="M836.484-564.135l.316,28.87" transform="translate(-765.446 580.964)" fill="none" stroke="#f3000b" stroke-width="1"/><path d="M836.81-562.187V-534.7" transform="translate(-767.386 580.398)" fill="none" stroke="#f3000b" stroke-width="1"/><path d="M830.143-558.658v26.288" transform="translate(-762.488 578.531)" fill="none" stroke="#f3000b" stroke-width="1"/><path d="M830.143-558.658v24.816" transform="translate(-764.257 580.002)" fill="none" stroke="#f3000b" stroke-width="1"/><path d="M836.81-564.736v23.946" transform="translate(-772.693 587.431)" fill="none" stroke="#f3000b" stroke-width="1"/><path d="M836.81-562.187V-539.7" transform="translate(-774.141 586.339)" fill="none" stroke="#f3000b" stroke-width="1"/><path d="M830.143-558.658v21.486" transform="translate(-769.243 584.302)" fill="none" stroke="#f3000b" stroke-width="1"/><path d="M830.143-558.658v19.717" transform="translate(-771.012 586.044)" fill="none" stroke="#f3000b" stroke-width="1"/><path d="M836.81-564.736v18.679" transform="translate(-779.127 593.189)" fill="none" stroke="#f3000b" stroke-width="1"/><path d="M836.81-562.187v17.9" transform="translate(-780.574 591.883)" fill="none" stroke="#f3000b" stroke-width="1"/><path d="M830.143-537.759v16.44" transform="translate(-775.676 568.913)" fill="none" stroke="#f3000b" stroke-width="1"/></g></svg>