<svg xmlns="http://www.w3.org/2000/svg" width="110.999" height="111.001" viewBox="0 0 110.999 111.001"><g transform="translate(-909 -1794)"><path d="M478.5-7228a55.152,55.152,0,0,1-21.6-4.361,55.325,55.325,0,0,1-17.641-11.895,55.316,55.316,0,0,1-11.894-17.641A55.153,55.153,0,0,1,423-7283.5a55.153,55.153,0,0,1,4.362-21.6,55.315,55.315,0,0,1,11.894-17.641,55.313,55.313,0,0,1,17.641-11.895A55.152,55.152,0,0,1,478.5-7339a55.15,55.15,0,0,1,21.6,4.361,55.311,55.311,0,0,1,17.641,11.895,55.3,55.3,0,0,1,11.894,17.641A55.158,55.158,0,0,1,534-7283.5a55.158,55.158,0,0,1-4.361,21.6,55.316,55.316,0,0,1-11.894,17.641,55.321,55.321,0,0,1-17.641,11.895A55.15,55.15,0,0,1,478.5-7228Zm-16.676-49.8a11.914,11.914,0,0,0,1.8,6.4,10.276,10.276,0,0,0,4.5,3.774,15.488,15.488,0,0,0,6.249,1.225,13.7,13.7,0,0,0,6.575-1.45,10.268,10.268,0,0,0,4.074-3.849,10.375,10.375,0,0,0,1.4-5.3,8.809,8.809,0,0,0-1.849-5.725,8.1,8.1,0,0,0-4.8-2.875,7.948,7.948,0,0,0,4.024-2.726,7.725,7.725,0,0,0,1.624-4.975,8.814,8.814,0,0,0-1.275-4.648,9.2,9.2,0,0,0-3.75-3.376,13.224,13.224,0,0,0-6.074-1.274,12.038,12.038,0,0,0-8.226,2.8,10.324,10.324,0,0,0-3.374,7.651h6.249a5.616,5.616,0,0,1,1.525-3.551,5.046,5.046,0,0,1,3.826-1.449,5.032,5.032,0,0,1,3.525,1.175,4.065,4.065,0,0,1,1.275,3.126,4.08,4.08,0,0,1-1.7,3.549,7.22,7.22,0,0,1-4.249,1.2h-2.65v5.249h2.6a8.5,8.5,0,0,1,5.076,1.426,4.838,4.838,0,0,1,1.974,4.174,5.406,5.406,0,0,1-1.5,3.9,5.735,5.735,0,0,1-4.3,1.549,6.008,6.008,0,0,1-4.575-1.724,6.206,6.206,0,0,1-1.674-4.275Zm32.65,3.6a3.952,3.952,0,0,0-2.875,1.1,3.645,3.645,0,0,0-1.125,2.7,3.586,3.586,0,0,0,1.125,2.648,3.958,3.958,0,0,0,2.875,1.1,3.958,3.958,0,0,0,2.875-1.1,3.586,3.586,0,0,0,1.125-2.648,3.645,3.645,0,0,0-1.125-2.7A3.952,3.952,0,0,0,494.475-7274.2Z" transform="translate(486 9133)" fill="#e9ba87"/></g></svg>