<svg xmlns="http://www.w3.org/2000/svg" width="111" height="111.001" viewBox="0 0 111 111.001"><g transform="translate(-909 -1794)"><path d="M491.5-5839a55.152,55.152,0,0,1-21.6-4.361,55.309,55.309,0,0,1-17.641-11.9,55.315,55.315,0,0,1-11.894-17.641A55.155,55.155,0,0,1,436-5894.5a55.154,55.154,0,0,1,4.361-21.6,55.313,55.313,0,0,1,11.894-17.641,55.311,55.311,0,0,1,17.641-11.9A55.152,55.152,0,0,1,491.5-5950a55.151,55.151,0,0,1,21.6,4.361,55.31,55.31,0,0,1,17.641,11.9,55.31,55.31,0,0,1,11.894,17.641A55.155,55.155,0,0,1,547-5894.5a55.156,55.156,0,0,1-4.361,21.6,55.314,55.314,0,0,1-11.894,17.641,55.312,55.312,0,0,1-17.641,11.9A55.151,55.151,0,0,1,491.5-5839Zm9.7-46.2a3.956,3.956,0,0,0-2.875,1.1,3.64,3.64,0,0,0-1.126,2.7,3.584,3.584,0,0,0,1.126,2.65,3.958,3.958,0,0,0,2.875,1.1,3.958,3.958,0,0,0,2.875-1.1,3.584,3.584,0,0,0,1.126-2.65,3.64,3.64,0,0,0-1.126-2.7A3.956,3.956,0,0,0,501.2-5885.2ZM486-5905.7h0v27.7h6.649v-35H488.7l-8.45,3.751v4.9L486-5905.7Z" transform="translate(473 7744)" fill="#f1b59d"/></g></svg>