<svg xmlns="http://www.w3.org/2000/svg" width="111" height="111" viewBox="0 0 111 111"><g transform="translate(-908.999 -1794)"><path d="M478.5-6501a55.15,55.15,0,0,1-21.6-4.361,55.314,55.314,0,0,1-17.641-11.895,55.316,55.316,0,0,1-11.894-17.641A55.152,55.152,0,0,1,423-6556.5a55.154,55.154,0,0,1,4.362-21.6,55.316,55.316,0,0,1,11.894-17.641,55.32,55.32,0,0,1,17.641-11.894A55.15,55.15,0,0,1,478.5-6612a55.152,55.152,0,0,1,21.6,4.361,55.317,55.317,0,0,1,17.641,11.894,55.316,55.316,0,0,1,11.894,17.641A55.156,55.156,0,0,1,534-6556.5a55.156,55.156,0,0,1-4.361,21.6,55.305,55.305,0,0,1-11.894,17.641,55.312,55.312,0,0,1-17.641,11.895A55.152,55.152,0,0,1,478.5-6501Zm15.351-46.2a3.959,3.959,0,0,0-2.876,1.1,3.648,3.648,0,0,0-1.125,2.7,3.588,3.588,0,0,0,1.125,2.65,3.961,3.961,0,0,0,2.876,1.1,3.959,3.959,0,0,0,2.874-1.1,3.588,3.588,0,0,0,1.125-2.65,3.648,3.648,0,0,0-1.125-2.7A3.957,3.957,0,0,0,493.85-6547.2Zm-19.35-23a4.444,4.444,0,0,1,3.875,1.651,6.4,6.4,0,0,1,1.175,3.8,9.342,9.342,0,0,1-1.425,4.726,28.85,28.85,0,0,1-3.8,4.975,67.785,67.785,0,0,1-5.4,5.15c-2.023,1.738-4.117,3.5-6.224,5.249V-6540h24.1v-5.25h-15.15c1.562-1.263,3.194-2.651,4.85-4.125a46.543,46.543,0,0,0,4.65-4.775,25.337,25.337,0,0,0,3.476-5.3,12.939,12.939,0,0,0,1.324-5.65,10.2,10.2,0,0,0-2.975-7.573c-1.974-1.941-4.775-2.926-8.325-2.926a13.605,13.605,0,0,0-5.949,1.274,10.112,10.112,0,0,0-4.251,3.85,12.679,12.679,0,0,0-1.7,6.425h6.2a6.9,6.9,0,0,1,1.4-4.35A4.953,4.953,0,0,1,474.5-6570.2Z" transform="translate(486 8406)" fill="#7a8864"/></g></svg>