<svg xmlns="http://www.w3.org/2000/svg" xmlns:xlink="http://www.w3.org/1999/xlink" width="184" height="184" viewBox="0 0 184 184"><defs><clipPath id="a"><rect width="184" height="184" transform="translate(-15045 11852)" fill="none" stroke="#707070" stroke-width="4"/></clipPath></defs><g transform="translate(15045 -11852)" clip-path="url(#a)"><g transform="translate(-15744 6445.542)"><path d="M42.625-4.384C75.207,2.078,113.152,106.924,97.595,133.95S-15.706,141.591-32.73,108.1,10.044-10.845,42.625-4.384Z" transform="translate(756 5425.616)" fill="#537d42" opacity="0.1"/><g transform="translate(10 226)"><g transform="translate(768.26 5250.702)"><path d="M-8.524.421a1.739,1.739,0,0,0,.5,1.772l7.458,7.955a2.158,2.158,0,0,0,1.416.689,2.175,2.175,0,0,0,1.392-.686l7.507-8.3A1.525,1.525,0,0,0,9.988.321a1.736,1.736,0,0,0-1.3-.949c-4.392-.192-16.032,0-16.032,0A1.566,1.566,0,0,0-8.524.421Z" transform="translate(12.359 38.976)" fill="#537d42"/><circle cx="7.207" cy="7.207" r="7.207" transform="translate(5.897 18.849)" fill="#537d42"/><path d="M-8.524,9.7a1.739,1.739,0,0,1,.5-1.772L-.562-.024A2.158,2.158,0,0,1,.854-.713a2.176,2.176,0,0,1,1.392.686l7.507,8.3A1.525,1.525,0,0,1,9.988,9.8a1.736,1.736,0,0,1-1.3.949c-4.392.192-16.032,0-16.032,0A1.566,1.566,0,0,1-8.524,9.7Z" transform="translate(12.359 3.012)" fill="#537d42"/></g><g transform="translate(762 5248)" fill="none" stroke="#537d42" stroke-width="3"><rect width="38" height="58" rx="4" stroke="none"/><rect x="1.5" y="1.5" width="35" height="55" rx="2.5" fill="none"/></g></g><g transform="translate(1048.601 5689.428) rotate(48)" fill="#537d42"><path d="M -320.2560119628906 120.6995391845703 C -320.2575988769531 120.6995391845703 -320.2589416503906 120.6995391845703 -320.2605285644531 120.6995391845703 C -328.7794494628906 120.6991500854492 -336.5943908691406 119.6024169921875 -343.4882507324219 117.4398040771484 C -348.9915771484375 115.7133865356445 -353.923095703125 113.3078002929688 -358.1458129882813 110.2898559570313 C -365.3099365234375 105.1697387695313 -367.9621276855469 100.0210876464844 -367.9880981445313 99.96968841552734 L -368.0094604492188 99.92738342285156 L -368.0383605957031 99.88983917236328 C -368.0565795898438 99.86614990234375 -369.90185546875 97.43717193603516 -371.7619018554688 92.70963287353516 C -372.8543090820313 89.93316650390625 -373.738037109375 86.91873931884766 -374.3885803222656 83.75003814697266 C -375.2019348144531 79.78822326660156 -375.6510009765625 75.57247161865234 -375.7232666015625 71.21994018554688 C -375.7957458496094 66.85670471191406 -375.4344787597656 62.48480224609375 -374.6495361328125 58.22565460205078 C -374.0216979980469 54.81888580322266 -373.1229553222656 51.4764518737793 -371.9783325195313 48.29118728637695 C -370.0332336425781 42.87845230102539 -368.0350952148438 39.7745361328125 -368.01513671875 39.74382019042969 L -367.9911193847656 39.70683670043945 L -367.9739379882813 39.66622161865234 C -367.9526062011719 39.61595153808594 -365.7529602050781 34.53458786010742 -359.5115051269531 28.33522033691406 C -355.8454284667969 24.69387054443359 -351.5224609375 21.38460350036621 -346.6627197265625 18.49933624267578 C -345.1535339355469 17.60331535339355 -343.5914306640625 16.7479076385498 -341.9788818359375 15.93410491943359 L -341.6070251464844 16.54290390014648 C -334.3193969726563 12.28148651123047 -326.1571655273438 10.12078666687012 -317.3470764160156 10.12078666687012 C -316.7005615234375 10.12078666687012 -316.0411376953125 10.13250350952148 -315.3871154785156 10.15563678741455 C -306.3546447753906 10.47511959075928 -297.7293701171875 12.77278614044189 -289.7507934570313 16.98483657836914 C -283.3621520996094 20.35753631591797 -277.369384765625 24.95890235900879 -271.93896484375 30.66113662719727 C -267.1033325195313 35.73880386352539 -263.6192932128906 40.76625442504883 -261.5480346679688 44.08961868286133 C -259.3074951171875 47.68463516235352 -258.1995239257813 50.10073471069336 -258.1885986328125 50.12472152709961 L -258.1862182617188 50.12992095947266 L -258.1837158203125 50.1351203918457 C -258.1705627441406 50.16226959228516 -256.8556213378906 52.89610290527344 -255.5460968017578 56.88203811645508 C -254.3413696289063 60.54896926879883 -252.8944396972656 66.05713653564453 -252.8426818847656 71.47398376464844 C -252.7908630371094 76.89362335205078 -254.1356811523438 82.23713684082031 -255.27294921875 85.76543426513672 C -256.48828125 89.53586578369141 -257.7266235351563 92.08046722412109 -257.774658203125 92.17855834960938 C -257.8119506835938 92.25090026855469 -258.6452941894531 93.85092926025391 -260.4815368652344 96.22492218017578 C -262.2069091796875 98.45561981201172 -265.1961669921875 101.8456497192383 -269.6387634277344 105.3279342651367 C -274.632080078125 109.2419052124023 -280.4069519042969 112.4729843139648 -286.802978515625 114.9314498901367 C -294.8041687011719 118.0068893432617 -303.8065490722656 119.8755340576172 -313.5601196289063 120.485466003418 C -315.8313598632813 120.6275177001953 -318.0843200683594 120.6995391845703 -320.2560119628906 120.6995391845703 Z M -353.5197143554688 24.73180389404297 C -358.1518249511719 29.13615226745605 -361.8633728027344 33.58465194702148 -364.1613159179688 36.54092025756836 C -366.8306579589844 39.9749870300293 -368.2545471191406 42.21772003173828 -368.3630981445313 42.41587066650391 C -368.5747375488281 42.80212020874023 -370.3818359375 46.60698699951172 -372.147216796875 52.04068756103516 C -373.7212829589844 56.88547134399414 -375.6077575683594 64.14645385742188 -375.656005859375 71.22483825683594 C -375.7039184570313 78.25663757324219 -373.8176574707031 84.82530212402344 -372.226806640625 89.09748840332031 C -370.5037536621094 93.72483825683594 -368.7945556640625 96.64983367919922 -368.7226257324219 96.77208709716797 C -368.6909790039063 96.82620239257813 -367.9124145507813 98.14630126953125 -366.1824035644531 100.1267166137695 C -364.5954284667969 101.9434051513672 -361.8691711425781 104.6840362548828 -357.8935546875 107.4236679077148 C -350.8885192871094 112.2509384155273 -338.5682678222656 118.0051345825195 -319.655517578125 118.0046005249023 C -317.6473999023438 118.0045547485352 -315.5758056640625 117.9397506713867 -313.4982299804688 117.8120193481445 C -292.131103515625 116.4983215332031 -278.1999816894531 109.0262832641602 -270.2758178710938 102.9893493652344 C -265.7818298339844 99.56568908691406 -262.6982421875 96.22830200195313 -260.9028015136719 94.03147125244141 C -259.0397338867188 91.75193023681641 -258.1540832519531 90.22388458251953 -258.0435180664063 90.02883911132813 C -257.9086303710938 89.82640075683594 -256.8236694335938 88.15547943115234 -255.7383728027344 85.21555328369141 C -254.6957397460938 82.39118957519531 -253.4599914550781 77.80998992919922 -253.4939270019531 72.02440643310547 C -253.5277252197266 66.2496337890625 -254.7187957763672 61.39840316772461 -255.7120056152344 58.34560394287109 C -256.7702026367188 55.09305191040039 -257.8097534179688 53.17704010009766 -257.8915100097656 53.02850341796875 C -257.9705505371094 52.87611770629883 -259.2973937988281 50.33542633056641 -261.737060546875 46.65233612060547 C -264.0458374023438 43.16682052612305 -267.8571472167969 37.9071044921875 -272.90283203125 32.64370346069336 C -281.8367614746094 23.32430267333984 -296.4309692382813 12.21518611907959 -315.222900390625 12.21518611907959 C -334.0278930664063 12.21518611907959 -347.3018188476563 23.03273582458496 -355.1258544921875 32.10753631591797 C -359.54443359375 37.23247146606445 -362.7275390625 42.35360336303711 -364.6197814941406 45.74725341796875 C -366.6314392089844 49.35506057739258 -367.6252746582031 51.76470565795898 -367.7033081054688 51.95610046386719 C -367.7605285644531 52.08384704589844 -368.31640625 53.3406982421875 -369.0876770019531 55.63250732421875 C -369.0608215332031 55.48221588134766 -369.0337219238281 55.33427810668945 -369.0064392089844 55.18940353393555 C -368.4309692382813 52.13326263427734 -367.8448181152344 50.09029006958008 -367.8130493164063 49.98043441772461 C -367.7688903808594 49.841064453125 -366.7071838378906 46.52400207519531 -364.3753967285156 41.91907119750977 C -362.190673828125 37.60455322265625 -358.4116516113281 31.2435188293457 -352.8153076171875 25.44126892089844 L -353.5197143554688 24.73180389404297 Z M -286.7799987792969 14.56363677978516 C -288.3866577148438 13.90398693084717 -291.2450256347656 12.80540943145752 -294.8897705078125 11.71770286560059 C -300.1766967773438 10.1398868560791 -308.2566528320313 8.259086608886719 -316.7256164550781 8.259086608886719 C -318.2243041992188 8.259086608886719 -319.6907958984375 8.317471504211426 -321.1227111816406 8.433831214904785 C -315.9197998046875 7.218099594116211 -311.1254577636719 6.603769779205322 -306.8194885253906 6.603769779205322 C -302.9842834472656 6.603769779205322 -299.5021667480469 7.091403007507324 -296.4698791503906 8.053136825561523 C -294.0534057617188 8.819536209106445 -291.9154968261719 9.88716983795166 -290.1155395507813 11.22640323638916 C -288.4716491699219 12.44949054718018 -287.4111022949219 13.68156909942627 -286.7799987792969 14.56363677978516 Z" stroke="none"/><path d="M -306.8199157714844 7.103767395019531 C -309.4204406738281 7.103767395019531 -312.2025451660156 7.330276489257813 -315.1477966308594 7.780288696289063 C -307.2012939453125 7.991920471191406 -299.7364501953125 9.749275207519531 -294.7467651367188 11.23841857910156 C -292.186279296875 12.00257873535156 -290.0325012207031 12.76241302490234 -288.4163208007813 13.37702178955078 C -288.9361267089844 12.83777618408203 -289.5770263671875 12.25535583496094 -290.3583984375 11.66913604736328 C -292.1127624511719 10.35296630859375 -294.203125 9.302055358886719 -296.5713500976563 8.545616149902344 C -299.5665283203125 7.588920593261719 -303.0144958496094 7.103805541992188 -306.8197021484375 7.103767395019531 L -306.8199157714844 7.103767395019531 M -317.3470764160156 10.62078857421875 C -326.0603942871094 10.62078857421875 -334.1325073242188 12.75550842285156 -341.3382873535156 16.9649658203125 C -345.0355529785156 19.32366180419922 -348.7806701660156 22.29727935791016 -352.4702758789063 25.80380249023438 C -358.0084228515625 31.55013275146484 -361.75244140625 37.8494873046875 -363.9185180664063 42.12368774414063 C -365.6153564453125 45.47195434570313 -366.6358032226563 48.13475036621094 -367.0779418945313 49.37516784667969 C -366.5799560546875 48.34819030761719 -365.9085693359375 47.03189086914063 -365.0564880371094 45.50373840332031 C -363.1529541015625 42.08980560302734 -359.9505615234375 36.93782043457031 -355.5045471191406 31.78103637695313 C -344.1866149902344 18.65383911132813 -330.2574462890625 11.71517181396484 -315.222900390625 11.71517181396484 C -300.208984375 11.71517181396484 -285.4501342773438 18.83248901367188 -272.5419006347656 32.29768371582031 C -267.4705200195313 37.58788299560547 -263.6403198242188 42.87360382080078 -261.3202209472656 46.376220703125 C -259.7053833007813 48.81409454345703 -258.5902404785156 50.72518157958984 -257.9832763671875 51.81114959716797 C -258.375 50.89118194580078 -258.6281127929688 50.36467742919922 -258.6337585449219 50.35296630859375 L -258.6387939453125 50.34256744384766 L -258.6435852050781 50.33205413818359 C -258.6871337890625 50.23647308349609 -263.1060180664063 40.66121673583984 -272.301025390625 31.00595092773438 C -277.6940307617188 25.34298706054688 -283.6435241699219 20.77436828613281 -289.9842224121094 17.42698669433594 C -297.8955688476563 13.25043487548828 -306.4483032226563 10.97212219238281 -315.40478515625 10.65533447265625 C -316.0528564453125 10.63240051269531 -316.7063293457031 10.62078857421875 -317.3470764160156 10.62078857421875 M -352.4020080566406 22.90659332275391 C -354.8305969238281 24.7060546875 -357.0755004882813 26.62480163574219 -359.115478515625 28.64662170410156 C -365.3072204589844 34.78330230712891 -367.4926452636719 39.81223297119141 -367.5134582519531 39.86102294921875 L -367.5478210449219 39.94223785400391 L -367.5958557128906 40.01618957519531 C -367.615478515625 40.04641723632813 -369.5821228027344 43.10155487060547 -371.5077819824219 48.46026611328125 C -371.9217529296875 49.61222076416016 -372.30322265625 50.78472137451172 -372.6511535644531 51.97373199462891 C -372.6416625976563 51.94438171386719 -372.6322326660156 51.91535186767578 -372.6227722167969 51.88616943359375 C -370.8455505371094 46.41608428955078 -369.0161743164063 42.56723785400391 -368.8016357421875 42.17563629150391 C -368.6131286621094 41.83158874511719 -367.0724182128906 39.47128295898438 -364.5559997558594 36.23398590087891 C -362.2500305175781 33.26743316650391 -358.5271301269531 28.80509948730469 -353.8796997070313 24.3841552734375 C -353.3934631347656 23.88038635253906 -352.9009399414063 23.38792419433594 -352.4020080566406 22.90659332275391 M -257.1861572265625 89.57938385009766 C -257.4042663574219 89.96183013916016 -257.5583801269531 90.20146179199219 -257.6173706054688 90.29092407226563 C -257.767822265625 90.55396270751953 -258.6751403808594 92.09597015380859 -260.5156555175781 94.34788513183594 C -262.3280944824219 96.56553649902344 -265.4400939941406 99.93389892578125 -269.9727783203125 103.3870849609375 C -277.9520874023438 109.4659881591797 -291.9751281738281 116.9896697998047 -313.4675598144531 118.3110885620117 C -315.5560607910156 118.4394836425781 -317.6379699707031 118.5046005249023 -319.655517578125 118.5046005249023 C -338.6968383789063 118.5046005249023 -351.11376953125 112.7024230957031 -358.17724609375 107.8350067138672 C -365.8856201171875 102.5232009887695 -369.0249938964844 97.24545288085938 -369.153564453125 97.02560424804688 C -369.1912841796875 96.96148681640625 -369.6737365722656 96.13608551025391 -370.3715209960938 94.70684814453125 C -368.9031677246094 97.91999816894531 -367.6565856933594 99.56602478027344 -367.642333984375 99.58465576171875 L -367.58447265625 99.65975189208984 L -367.541748046875 99.744384765625 C -367.516357421875 99.79468536376953 -364.920166015625 104.8341522216797 -357.8550415039063 109.8837051391602 C -353.6754150390625 112.8709716796875 -348.7913513183594 115.2529373168945 -343.3385620117188 116.9634170532227 C -336.4931945800781 119.1107559204102 -328.7286376953125 120.1995391845703 -320.2605285644531 120.1995391845703 C -318.0960998535156 120.1995391845703 -315.8522644042969 120.1278381347656 -313.5913391113281 119.9864501953125 C -303.9049682617188 119.3807067871094 -294.9658813476563 117.5281219482422 -287.0224609375 114.4801330566406 C -280.6775207519531 112.0455017089844 -274.9485778808594 108.8464202880859 -269.9948425292969 104.9717178344727 C -265.5874633789063 101.5243682861328 -262.6209106445313 98.1680908203125 -260.9084167480469 95.95954895019531 C -259.0974426269531 93.62404632568359 -258.2684020996094 92.04454803466797 -258.2213134765625 91.95377349853516 C -258.1801452636719 91.86929321289063 -257.7610168457031 91.00250244140625 -257.1861572265625 89.57938385009766 M -306.8194580078125 6.103767395019531 C -289.6846313476563 6.103950500488281 -285.5482482910156 15.63453674316406 -285.5482482910156 15.63453674316406 C -285.5482482910156 15.63453674316406 -300.4477844238281 8.758644104003906 -316.7255859375 8.759078979492188 C -321.5038146972656 8.759208679199219 -326.4021911621094 9.351844787597656 -331.0755920410156 10.88483428955078 C -334.8527526855469 12.12384033203125 -338.4694213867188 13.95018768310547 -341.8595886230469 16.11138153076172 C -346.2448120117188 18.67560577392578 -349.9945068359375 21.79646301269531 -353.1750183105469 25.093994140625 C -362.0145263671875 33.49885559082031 -367.6628723144531 42.17830657958984 -367.9245910644531 42.65608978271484 C -368.3667602539063 43.46306610107422 -375.0642395019531 57.76261901855469 -375.156005859375 71.22824096679688 C -375.2477722167969 84.69384765625 -368.2916564941406 96.5185546875 -368.2916564941406 96.5185546875 C -368.2916564941406 96.5185546875 -356.0188293457031 117.5046081542969 -319.655517578125 117.5046081542969 C -317.6854858398438 117.5046081542969 -315.6422119140625 117.4429016113281 -313.5289306640625 117.3129730224609 C -272.4077453613281 114.7847366333008 -258.4695739746094 89.76644897460938 -258.4695739746094 89.76644897460938 C -258.4695739746094 89.76644897460938 -253.9290771484375 83.08198547363281 -253.993896484375 72.02733612060547 C -254.0586547851563 60.97270202636719 -258.3324890136719 53.26423645019531 -258.3324890136719 53.26423645019531 C -258.3324890136719 53.26423645019531 -279.185791015625 12.71517181396484 -315.222900390625 12.71517181396484 C -351.2600402832031 12.71517181396484 -367.2435913085938 52.15287017822266 -367.2435913085938 52.15287017822266 C -367.2435913085938 52.15287017822266 -367.8740844726563 53.54962158203125 -368.7371215820313 56.16191864013672 C -369.6002197265625 58.77423858642578 -370.5988159179688 62.85558700561523 -370.5988159179688 62.85558700561523 C -370.5988159179688 62.85558700561523 -370.0988464355469 58.28850555419922 -369.497802734375 55.09687042236328 C -368.8968200683594 51.90525054931641 -368.2916564941406 49.83565521240234 -368.2916564941406 49.83565521240234 C -368.2916564941406 49.83565521240234 -364.1053466796875 36.42645263671875 -353.1750183105469 25.093994140625 C -349.8223876953125 21.90621185302734 -346.0101318359375 18.75730895996094 -341.8595886230469 16.11138153076172 C -335.2161865234375 12.22666931152344 -327.1185913085938 9.620780944824219 -317.3470764160156 9.620780944824219 C -316.6965942382813 9.620780944824219 -316.0348205566406 9.632415771484375 -315.3694458007813 9.655952453613281 C -275.4370422363281 11.06835174560547 -257.7336120605469 49.91738891601563 -257.7336120605469 49.91738891601563 C -257.7336120605469 49.91738891601563 -252.4442138671875 60.84795379638672 -252.3427124023438 71.46920776367188 C -252.2411499023438 82.09048461914063 -257.3275756835938 92.40248870849609 -257.3275756835938 92.40248870849609 C -257.3275756835938 92.40248870849609 -270.4731140136719 118.2919845581055 -313.5289306640625 120.984504699707 C -315.8651428222656 121.1305999755859 -318.1049499511719 121.1995315551758 -320.2605285644531 121.1995315551758 C -357.831298828125 121.1995315551758 -368.4344482421875 100.1950225830078 -368.4344482421875 100.1950225830078 C -368.4344482421875 100.1950225830078 -375.9031372070313 90.50222015380859 -376.2232055664063 71.22824096679688 C -376.5433349609375 51.95425415039063 -368.4344482421875 39.471435546875 -368.4344482421875 39.471435546875 C -368.4344482421875 39.471435546875 -359.7838745117188 19.02110290527344 -326.1737060546875 9.244903564453125 C -318.3701782226563 6.975090026855469 -312.0007934570313 6.103713989257813 -306.8194580078125 6.103767395019531 Z" stroke="none" fill="#537d42"/></g></g></g></svg>