<svg xmlns="http://www.w3.org/2000/svg" width="22.8" height="16.031" viewBox="0 0 22.8 16.031"><g transform="translate(15.684 1.145)"><path d="M359.126,101.721l-6.915,6.87,6.915,6.87a1.981,1.981,0,0,0,.2-.859V102.58A1.981,1.981,0,0,0,359.126,101.721Z" transform="translate(-352.211 -101.721)" fill="#fcffff"/></g><g transform="translate(1.145 0)"><path d="M45.372,76H26.58a1.981,1.981,0,0,0-.859.2l8.838,8.793a2.006,2.006,0,0,0,2.834,0L46.23,76.2A1.981,1.981,0,0,0,45.372,76Z" transform="translate(-25.721 -76)" fill="#fcffff"/></g><g transform="translate(0 1.145)"><path d="M.2,101.721a1.981,1.981,0,0,0-.2.859V114.6a1.98,1.98,0,0,0,.2.859l6.915-6.87Z" transform="translate(0 -101.721)" fill="#fcffff"/></g><g transform="translate(1.145 8.96)"><path d="M39.315,277.211l-.978.978a3.343,3.343,0,0,1-4.723,0l-.978-.978-6.915,6.87a1.981,1.981,0,0,0,.859.2H45.372a1.981,1.981,0,0,0,.859-.2Z" transform="translate(-25.721 -277.211)" fill="#fcffff"/></g></svg>