<svg xmlns="http://www.w3.org/2000/svg" width="68.542" height="79.564" viewBox="0 0 68.542 79.564"><path d="M7.9,38.6c5.817-1.888,2.092-9.645,1.22-18.5C8.327,12.76,7.472.972,4.681.052S.763,10.59.06,20.746C-.507,28.919,3.005,39.547,7.9,38.6Z" transform="translate(17.009 38.182) rotate(171)" fill="#537d42"/><path d="M2.878,36.232c-6.322-1.888-.4-7.277.55-16.136C4.291,12.76,5.22.972,8.253.052s4.258,10.538,5.022,20.694C13.891,28.919,8.2,37.179,2.878,36.232Z" transform="translate(35.638 79.564) rotate(-115)" fill="#537d42"/><path d="M5.79,43.284c4.979,0,7.563-29.716,4.561-41.464C9.623-1.039,6.935.335,5.535.3.154,5.115-1.734,33.218,1.8,40.631A5.992,5.992,0,0,0,5.79,43.284Z" transform="translate(28.566 57.35) rotate(-141)" fill="#537d42"/></svg>