<svg xmlns="http://www.w3.org/2000/svg" width="19.484" height="17.125" viewBox="0 0 19.484 17.125"><path d="M17.772,211H1.712A1.714,1.714,0,0,0,0,212.712v3.425a1.714,1.714,0,0,0,1.712,1.712H4.034v-.571a1.714,1.714,0,0,1,1.712-1.712h7.992a1.714,1.714,0,0,1,1.712,1.712v.571h2.321a1.714,1.714,0,0,0,1.712-1.712v-3.425A1.714,1.714,0,0,0,17.772,211Zm-5.746,2.854a.571.571,0,1,1,.571-.571A.571.571,0,0,1,12.026,213.854Zm2.283,0a.571.571,0,1,1,.571-.571A.571.571,0,0,1,14.309,213.854Z" transform="translate(0 -204.15)" fill="#fff"/><path d="M331,32.518v2.226h2.226A2.862,2.862,0,0,0,331,32.518Z" transform="translate(-318.404 -32.46)" fill="#fff"/><path d="M121.571,31a.571.571,0,0,0-.571.571v5.137h10.275V34.425h-2.854a.571.571,0,0,1-.571-.571V31Z" transform="translate(-116.395 -31)" fill="#fff"/><path d="M144.562,365.567a.57.57,0,0,0,.571-.571v-3.425a.571.571,0,0,0-.571-.571h-7.992a.571.571,0,0,0-.571.571V365a.57.57,0,0,0,.571.571Zm-6.279-2.854h4.567a.571.571,0,1,1,0,1.142h-4.567a.571.571,0,1,1,0-1.142Z" transform="translate(-130.824 -348.442)" fill="#fff"/></svg>