<svg xmlns="http://www.w3.org/2000/svg" width="314.44" height="280.284" viewBox="0 0 314.44 280.284"><path d="M191.841,280.173c-5.049-.757-9.186-5.463-9.186-5.463l-3.265-4.731c-1.55-1.206-25.146-41.8-27.21-45.006-5.374-8.351-10.6-18.138-11.894-19.477-1.429-.97-4.378-1.57-4.332-4.11s2.811-1.663,3.063-2.412c.221-2.329.463-4.538.726-6.646-2.392,1.746-7.7,13.431-7.7,13.431-8.066,12.4-18.144,17.151-18.144,17.151-20.348,9.542-20.522-.784-20.522-.784-10.215,4.347-12.518,3.032-16.24,2.612C63.2,223.166,67.012,216.959,66.72,217c-4.848,1.574-9.716-.958-11.631-1.677-12.357-4.637-8.881-9.012-8.881-9.012s-11.176,1.238-15.4-.33A86.145,86.145,0,0,1,17.546,199.6a26.053,26.053,0,0,1-8-7.972,7.3,7.3,0,0,1-.879-3.02,1.981,1.981,0,0,1,1.34-1.524s7.873,2.679,19.208.57a160.877,160.877,0,0,0,21.092-5.525S61.062,177.8,72.147,172.5s22.5-11.574,22.5-11.574,12.041-5.592,21.857-7.959a76.213,76.213,0,0,1,17.919-2.053c3.084-.095,11.928,1.962,13.576,2.6a1.112,1.112,0,0,1,.592.641c4.475-14.433,12.621-32.208,12.621-32.208s3.038-7.181,6.075-9.444,3.852-2.521,6.27-2.521c2.01,0,32.7,3.854,55.854,6.94.03-1.907,1.259-10.669,2.428-13.465a76.02,76.02,0,0,1,8.274-15.913c5.681-8.274,15.138-17.469,15.138-17.469s9.864-8.375,18.712-16.785,16.679-16.855,16.679-16.855A160.305,160.305,0,0,0,303.262,18.8C309.246,9.023,309.569.757,309.569.757a1.964,1.964,0,0,1,1.887-.7,7.225,7.225,0,0,1,2.48,1.891,25.9,25.9,0,0,1,4.528,10.264A85.93,85.93,0,0,1,319.65,26.8c-.054,4.484-5.175,14.424-5.175,14.424s5.283-1.673,5.175,11.455c-.017,2.034.593,7.455-2.588,11.4-.144.256,6.954-1.08,3.45,12.425-.936,3.606-.539,6.213-8.194,14.154,0,0,9.488,3.836-6.577,19.34,0,0-7.979,7.672-22.318,10.751,0,0-12.876.788-15.213,2.411a19.245,19.245,0,0,1,3.563,3.2c1.488,1.145,4.569,5.836,4.569,5.836l30.185,48.758L322.265,207.9a3.671,3.671,0,0,1,.835,1.8,2.035,2.035,0,0,1-.835,1.4l-4.877,2.316s-25.571,12.124-54.206,28.206-58.042,35.935-58.042,35.935-6.671,2.731-11.687,2.731A10.9,10.9,0,0,1,191.841,280.173Zm1.624-4.969-.05.079c3.088-.135,7.638-.821,7.638-.821S231.1,253.8,259.68,237.606c27.28-15.453,53.231-26.831,55.541-27.836-3.7-1.184-19.167-6.1-32.578-9.8-15.354-4.242-28.013-6.9-28.013-6.9l-3.937-.826-2.438,10.027a18.409,18.409,0,0,1-6.22,11.5c-5.563,4.5-12.514,3.581-16.9,3.082a56.061,56.061,0,0,1-9.1-1.994S196.553,270.247,193.465,275.2ZM145.309,204.85c1.012,1.87,7.361,12.351,17.175,28.361,7.263,11.848,16.091,28.19,20.541,35.4a26.206,26.206,0,0,0,5,4.956,4.645,4.645,0,0,0,.9.738c1.881-6.024,23.3-60.351,23.163-60.353-3.719-.031-9.389-1.936-17.474-3.376-10.671-2.145-22.551-4.219-23.459-4.406-4.657-.96-17.381-1.463-23.055-1.463A10.327,10.327,0,0,0,145.309,204.85Zm-34.071,1.008c1.366,1.749-1.1,5-1.1,5s-6.9,8.131-12.251,9.509c0,0,2.5,3.643,14.481-2.881s16.865-12.747,21.949-22.682c0,0,1.986-4.424,5.56-5.555l.1,1.267a187.49,187.49,0,0,1,7.083-31.327.772.772,0,0,1-.1-.032c-1.155-.444-6.212-1.224-12.482-1.327s-6.822.149-12.6.912c-5.821.769-24.444,7.949-24.444,7.949s-10.362,5.978-21.745,11.563S51.9,189.03,51.9,189.03a112.289,112.289,0,0,1-16.679,5.422A63.9,63.9,0,0,1,20.5,195.841a61.859,61.859,0,0,0,13.541,4.882c7.317,1.625,27.345-2.444,27.345-2.444s2.923.454,3.214,1.936-2.052,3.99-2.052,3.99a38.489,38.489,0,0,1-5.859,2.7,27.781,27.781,0,0,1-5.713,1.241,20.882,20.882,0,0,0,4.273,2.518,32.068,32.068,0,0,0,7.287,1.929,112.148,112.148,0,0,0,11.916-3.168,57.153,57.153,0,0,0,9.19-4.1,4.2,4.2,0,0,1,3.444,1.791c1.378,2.628-3.23,5.956-8.31,8.286-3.14,1.44-5.468,2.383-7.535,2.406-.71.008,6.272,4.278,16.9-.085a71.331,71.331,0,0,0,11.116-4.875,26.184,26.184,0,0,0,7.792-6.678,5.514,5.514,0,0,1,2.694-1.016A1.806,1.806,0,0,1,111.238,205.858Zm104.176,3.84a1.784,1.784,0,0,1,1.2,1.189c1.44.158,9.508,1.819,14.281,2.336.966.1,2.312-1.307,6.406-5.089,1.83-1.691,6.1-5.866,6.1-5.866s1.059-4.378,2.688-11.048a3.966,3.966,0,0,1-.427-2.24,3.033,3.033,0,0,1,1.362-1.582c1.23-5.024,2.717-11.071,4.245-17.224A23.378,23.378,0,0,1,247,164.318a35.6,35.6,0,0,1-2.588-8.209c-50.934,33.043-74.682,32.79-74.682,32.79.47.726,4.354,10.456,6.105,13.722,2.024.569,13.207,1.448,37.871,7.727a2.965,2.965,0,0,1,1.519-.665A1.039,1.039,0,0,1,215.413,209.7Zm43.234-50.18L251.7,188.094s18.068,3.039,33.512,7.31c13.229,3.658,25,7.986,28.107,9.153-1.846-4.179-5.168-11.062-10.88-21.21-10.551-18.745-29.55-48.176-29.55-48.176s-3.726-5.555-6.383-7.425Zm-87.49,42.7c-.609-1.088-2.437-4.539-3.937-8.005-1.573-3.636-2.8-7.262-2.8-7.262a2.129,2.129,0,0,1,1.468-2.048s8.469.485,25.662-6.425,43.108-21.214,43.108-21.214l10.744-6.852a2.257,2.257,0,0,1,1.595,0,2.911,2.911,0,0,1,1.01,1.412,51.064,51.064,0,0,0,1.834,6.633,56.686,56.686,0,0,0,2.779,6.273c.372-1.488.742-2.966,1.108-4.422,4.786-19.034,8.81-34.177,8.81-34.177l1.076.342c-1.979-.706-4.511-1.513-5.505-1.826-2.281-.008-4.02-.526-19.4-2.242-20.465-2.283-43.948-6.714-59.506-7.024-4.206.156-4.985.312-8.723,2.419s-7.321,8.9-15.188,29.191c-3.052,7.874-9.736,32.157-12.384,50.265-.173,1.182-.3,2.55-.4,3.419,2.292-.1,5.121-.218,8.388-.218A112.2,112.2,0,0,1,171.157,202.22Zm94.375-80.273c2.374-2.728,6.948-2.985,6.948-2.985,11-1.189,18.491-3.512,28.787-12.317s7.817-12.425,7.817-12.425c-3.18,4.484-13.154,8-13.154,8s-3.882,1.134-5.014-.757,1.779-3.781,1.779-3.781a25.954,25.954,0,0,0,8.949-4.862,70.961,70.961,0,0,0,8.464-8.59c7.817-8.32,6.352-16.324,6.092-15.667-.756,1.912-2.457,3.739-4.905,6.143-3.962,3.889-8.679,6.985-10.62,4.77a4.191,4.191,0,0,1-.431-3.836,56.855,56.855,0,0,0,7.062-7.077,111.74,111.74,0,0,0,7.17-9.94,32.022,32.022,0,0,0,.809-7.455,20.809,20.809,0,0,0-.809-4.864,27.725,27.725,0,0,1-3.18,4.864,38.319,38.319,0,0,1-4.582,4.481s-3.154,1.283-4.421.486-.647-3.673-.647-3.673S312.534,35.3,313.634,27.929a61.758,61.758,0,0,0,.3-14.314A63.761,63.761,0,0,1,307.413,26.8a111.831,111.831,0,0,1-10.949,13.562s-9.216,9.674-18.431,18.26S259.6,74.7,259.6,74.7s-13.267,14.742-16.049,19.875c-2.761,5.094-3.191,5.516-5.326,11.377a60.332,60.332,0,0,0-3.193,11.712c2.593.35,5.035.684,7.263.994,15.347,2.131,18.637,2.327,19.108,2.544A19.469,19.469,0,0,1,265.532,121.947Z" transform="translate(-8.66 0)" fill="#e9ba87"/></svg>