<svg xmlns="http://www.w3.org/2000/svg" xmlns:xlink="http://www.w3.org/1999/xlink" width="184" height="184" viewBox="0 0 184 184"><defs><clipPath id="a"><rect width="184" height="184" transform="translate(-14817 12136.848)" fill="none" stroke="#707070" stroke-width="4"/></clipPath></defs><g transform="translate(14817 -12136.848)" clip-path="url(#a)"><g transform="translate(-16081.801 6316.191)"><path d="M78.345,151.089c32.581-6.462,70.527-111.308,54.97-138.334S20.013,5.114,2.99,38.6,45.764,157.55,78.345,151.089Z" transform="translate(1409.538 6003.657) rotate(-163)" fill="#f4431a" opacity="0.1"/><g transform="translate(1319.705 5875.004)"><path d="M38.338,28.277A20.208,20.208,0,0,0,0,37.131a19.919,19.919,0,0,0,1.926,8.606L.035,55.2a1.727,1.727,0,0,0,2.027,2.031l9.582-1.894a19.853,19.853,0,0,0,4,1.4A23.612,23.612,0,0,1,38.338,28.277Z" transform="translate(0)" fill="#f4431a"/><path d="M199.91,173.743a20.078,20.078,0,0,0,.864-2.13h-.063a20.157,20.157,0,0,0-18.129-26.586v0a20.135,20.135,0,1,0-.967,40.248,19.915,19.915,0,0,0,8.58-1.927c10.494,2.075,9.676,1.927,9.917,1.927a1.727,1.727,0,0,0,1.692-2.064Z" transform="translate(-142.925 -113.278)" fill="#f4431a"/></g><path d="M8.2,35.07S-.327,48.19.01,68.447,8.2,98.892,8.2,98.892s12.454,24.68,57.707,21.85S124.971,90.7,124.971,90.7s5.346-10.838,5.239-22-5.666-22.651-5.666-22.651S105.938,5.218,63.968,3.733,8.346,45.963,8.346,45.963s-.636,2.175-1.268,5.53-1.157,8.155-1.157,8.155,1.05-4.29,1.957-7.035S9.448,48.4,9.448,48.4s16.8-41.45,54.675-41.45,59.793,42.618,59.793,42.618a44.766,44.766,0,0,1,4.56,19.72c.068,11.619-4.7,18.644-4.7,18.644S109.122,114.226,65.9,116.883,8.346,95.028,8.346,95.028,1.035,82.6,1.131,68.447s7.136-29.182,7.6-30.03S25.816,12.125,47.461,5.025s47.85,4.992,47.85,4.992S87.938-6.974,52.613,3.3,8.2,35.07,8.2,35.07Z" transform="translate(1366.452 5824.24) rotate(50)" fill="#f4431a"/></g></g></svg>