<svg xmlns="http://www.w3.org/2000/svg" width="290" height="77" viewBox="0 0 290 77"><g transform="translate(-515 -364.533)"><g transform="translate(515 370.189)"><rect width="68.006" height="68.006" transform="translate(0)" fill="#fed74e"/><path d="M15.089,68.006V30.685H0V14.928H15.089V0H31.016V14.928H46.106V30.685H31.016v37.32Z" transform="translate(23.053)" fill="#fff"/><g transform="translate(0 44.766)"><path d="M0-2.468c8.6.688,16.886,10.478,33.979,10S53.973-.388,68.372-4.381V19.224H0Z" transform="translate(0 4.381)" fill="#8bbad4"/><path d="M0-3.934C27.214-.26,20.824,7.129,37.917,8.926A56.2,56.2,0,0,0,68.372,3.255V13.521H0Z" transform="translate(0 10.085)" fill="#006188"/></g></g><text transform="translate(596 386.533)" fill="#006188" font-size="20" font-family="SegoeUI, Segoe UI"><tspan x="0" y="0">Katholische</tspan></text><text transform="translate(596 410.533)" fill="#006188" font-size="19" font-family="SegoeUI, Segoe UI"><tspan x="0" y="0">Gesamtkirchengemeinde</tspan></text><text transform="translate(596 436.533)" fill="#006188" font-size="19" font-family="SegoeUI, Segoe UI"><tspan x="0" y="0">Mannheim</tspan></text></g></svg>