<svg xmlns="http://www.w3.org/2000/svg" width="171.103" height="173.977" viewBox="0 0 171.103 173.977">
  <path id="Path_4685" data-name="Path 4685" d="M79.927,1.022c0-2.362-10.689-1.8-26.041,14.608C40.614,29.817,21.719,48.65,11.336,66.522,4.863,76.081,1.2,85.6,1.2,86.931c0,0-2.694,10.145,0,16.012S11.974,110.4,11.974,110.4c6.965,1.264,26.815-10.169,37.312-20.1,3.59-3.4,7.223-6.783,10.452-12.239.333-.8,11.841,21.438,20.882,32.338,11.735,14.149,21.682,18.441,21.341,17.727,0,0,4.547,1.953,6.562,1.9,8.584-.291,8.21-7.046,8.21-7.046.235-3.219,2.817-16.256-12.911-54.944A211.7,211.7,0,0,0,92.365,42.422c-7.2-13.569-17.743-30.11-17.743-30.11a2.546,2.546,0,0,0-3.462-.8,2.3,2.3,0,0,0-.8,3.336S83.919,40.658,96.724,69.978s10.964,51.094,9.939,51.757-2.842-.461-2.842-.461C86.235,108.1,72.371,82.871,70.28,78.791A50.8,50.8,0,0,0,61.25,66.919c-2.34-2.2-7.289,3.759-7.289,3.759-24.8,26.587-40.477,31.585-41.08,31.46s-1.318-2.091-1.545-5.339a35.845,35.845,0,0,1,.638-7.653S17.889,74.127,22.74,68.9C33.8,54.266,60.311,24.8,73.119,10.865,78.331,4.466,79.927,2.241,79.927,1.022Z" transform="matrix(-0.809, 0.588, -0.588, -0.809, 171.103, 105.189)" fill="#f1872d"/>
</svg>
