<svg xmlns="http://www.w3.org/2000/svg" width="1940" height="163.747" viewBox="0 0 1940 163.747">
  <path id="Intersection_1" data-name="Intersection 1" d="M860.047,947.442c5.6-.856,10.449-2.317,10.954-3.334.53-1.066,2.667-1.959,4.749-1.985s8.451-2.906,14.152-6.4,11.683-6.372,13.289-6.4a4.87,4.87,0,0,0,3.99-2.2c.588-1.182.191-2.148-.882-2.148-2.395,0-1.531-9.61.882-9.819a73.445,73.445,0,0,0,9.3-2.847c4.167-1.483,9.473-2.105,11.793-1.381s6.685.369,9.7-.788,9.825-3.161,15.129-4.451c14.552-3.542,22.324-6.5,22.324-8.5,0-2.071-88.639-.625-110.584,1.8-1.757.194-3.349.351-4.8.468V870.131h1940V913.34c-8.083-1.7-17.989-3.227-21.13-2.951a3.208,3.208,0,0,0-3.024,2.955,22.9,22.9,0,0,1-.894,5.585c-.56,1.815,8.43,4.854,25.048,8.609V977.75a7.329,7.329,0,0,1-3.763-.262c-4.929-1.945-86.056-2.687-85.108-.779,2.01,4.045-20.657,4.024-40-.039-39.169-8.222-72.495-12.9-93.991-13.182a328.089,328.089,0,0,1-39.741-3.24c-9.979-1.625-27.756-3.95-39.5-5.169s-21.856-2.587-22.462-3.042-6.933-1.444-14.061-2.2-15.681-1.781-19.006-2.281c-6.925-1.041-38.45-3.227-61.341-4.253-16.558-.742-41.719-2.719-58.748-4.615-5.7-.635-27.862-1.566-49.245-2.07s-46.652-1.709-56.156-2.677-35.787-1.665-58.407-1.548c-34.209.177-41.4.747-42.765,3.381-1.389,2.687-1.872,2.713-3.189.168q-1.553-3-6.66-1.728c-2.815.7-5.955.215-7-1.082s-4.459-2.556-7.6-2.805a42.905,42.905,0,0,1-9.159-1.725c-10.355-3.813-21.145-4.922-25.491-2.62-3.489,1.848-12.2-.335-10.994-2.757.443-.892-7.884-1.881-18.5-2.2-28.6-.856-31.566-1.247-34.8-4.587-2.631-2.715-2.893-2.59-2.373,1.129.4,2.835-.249,3.937-2.006,3.419a29.414,29.414,0,0,0-6.48-.805c-2.137-.024-3.887-.786-3.887-1.693s-1.253-2.248-2.784-2.979c-2.022-.965-2.5-.409-1.748,2.03.714,2.315.371,2.833-1.1,1.668-1.176-.93-9.526-1.994-18.554-2.365-18.986-.781-16.165-.77-105.4-.38-37.539.165-73.059-.4-78.935-1.253s-11.991-.927-13.588-.166c-2.941,1.4-59.386,4.175-76.729,3.766-13.563-.319-28.944,9.6-20.389,13.144,1.275.528.393,2.049-2.16,3.724-2.373,1.557-4.747,3.647-5.274,4.644-1.907,3.605-16.579,5.617-20.746,2.844-2.625-1.747-9.582-2.374-20.523-1.851-9.1.437-39,1.3-66.445,1.926s-51.782,1.724-54.091,2.443-12.117,1.458-21.8,1.639-19.157,1.416-21.057,2.744c-3.4,2.377-19.426,6.278-22.109,5.382-3.306-1.1-9.444-.826-15.042.68a33.879,33.879,0,0,1-9.5,1.267c-1.9-.2-5.011-.53-6.912-.739s-10.842.757-19.87,2.145-19.777,2.5-23.885,2.479-8.385.87-9.5,1.989-4.56,2.7-7.649,3.526c-4.6,1.222-5.616.833-5.616-2.143,0-3.222-1.429-3.463-12.527-2.116-6.89.836-24.968,1.743-40.173,2.016s-31.835,1.631-36.953,3.02-9.685,2.524-10.147,2.524.129,1.451,1.311,3.224,4.777,3.223,7.988,3.223,5.836.4,5.836.9a26.146,26.146,0,0,0,1.049,4.3c1.438,4.662-3.427,4.432-7.267-.342-2.175-2.705-3.207-3-3.727-1.061-.394,1.474-1.429,2.134-2.3,1.465s-1.58-.431-1.58.525-1.75,1.858-3.888,2-14,1.358-26.35,2.7-37.237,2.82-55.292,3.293-34.774,1.391-37.149,2.039c-8.051,2.2-52.31,7.287-76.028,8.746-43.948,2.7-77.266,10.519-84.136,19.738-2.149,2.885-5.935,5.213-8.655,5.323-22.36.9-53.411,3.8-67.037,6.252-2.452.441-5.7.958-9.122,1.46Zm239.794,34.552c-32.9,2.4-43.2,3.614-43.2,5.1,0,2.8,43.7.159,50.972-3.083,4.292-1.915,5.789-2.632,2.635-2.632C1108.438,981.374,1105.086,981.611,1099.841,981.994Zm140.824-41.6c-8.006.853,53.822,2.936,66.524,2.241,6.177-.338,14.6-1.783,18.723-3.21,5.9-2.042,6.706-2.826,3.8-3.683a35.661,35.661,0,0,0-6.638-.346C1306.648,935.392,1264.973,937.8,1240.665,940.39Zm137.366-8.424c-14.743.23-20.579,2.2-11.231,3.8,3.8.649,8.856.478,11.231-.381s5.875-2.017,7.776-2.576c1.7-.5-.925-.857-5.926-.857Q1379,931.951,1378.031,931.966Zm18.031-.311c-.839,1.688,1.192,2.107,6.835,1.406,4.416-.548,8.407-1.466,8.869-2.041s-2.613-1.207-6.835-1.406c-.386-.018-.77-.027-1.149-.027C1400.008,929.588,1396.659,930.455,1396.062,931.656Zm1359.632-27.909c-7.377.226-7.727.438-3.126,1.895,7.561,2.393,9.178,2.393,10.368,0,.6-1.209-1.625-1.916-5.9-1.916Q2756.395,903.725,2755.694,903.747Zm-1441.592,74a4.279,4.279,0,0,1,1.728-2.275c.949-.731,1.727-.3,1.727.948a2.066,2.066,0,0,1-1.727,2.275C1314.879,978.7,1314.1,978.27,1314.1,977.749Zm20.273-1.468c1.172-1.469,2.567-2.128,3.1-1.467s-.427,1.863-2.131,2.67a6.248,6.248,0,0,1-1.866.692C1333.011,978.177,1333.338,977.58,1334.375,976.281Zm1023.368-25.519a2.346,2.346,0,0,1,2.49-2.149,4.334,4.334,0,0,1,3.558,2.149c.587,1.182-.534,2.148-2.49,2.148S2357.743,951.944,2357.743,950.763Zm-29.374-2.282c0-2.446,4.642-2.7,5.826-.312.466.936-.655,1.843-2.489,2.015-.173.016-.344.024-.51.024C2329.6,950.207,2328.368,949.484,2328.368,948.48Zm-219.443-8.462c0-1.182.343-2.149.762-2.149s1.243.968,1.83,2.149.245,2.149-.762,2.149A2.015,2.015,0,0,1,2108.925,940.018Zm-24.91-1.863v0c-.744-1.5-.886-3.3-.316-4.013,1.546-1.922,3.232.905,2.4,4.022-.292,1.09-.541,1.635-.851,1.635S2084.56,939.254,2084.015,938.156Zm6.336.44c-3.538-1.775-2.448-4.715,1.3-3.5,1.9.618,3.456,1.978,3.456,3.022,0,1.107-.394,1.656-1.293,1.656A8.888,8.888,0,0,1,2090.351,938.6Z" transform="translate(-860.047 -870.131)" fill="#fff0e2"/>
</svg>
