<svg xmlns="http://www.w3.org/2000/svg" xmlns:xlink="http://www.w3.org/1999/xlink" width="184" height="184" viewBox="0 0 184 184"><defs><clipPath id="a"><rect width="184" height="184" transform="translate(-15339 11879)" fill="none" stroke="#707070" stroke-width="4"/></clipPath></defs><g transform="translate(15339 -11879)" clip-path="url(#a)"><path d="M126.478-14.643c30.7,24.284-32.074,140.207-64.6,140.207S-9.149,48.588-4.108,16.514,95.778-38.927,126.478-14.643Z" transform="translate(-15302.985 11929.139)" fill="#f4431a" opacity="0.1"/><g transform="translate(-15480 6678)"><g transform="translate(203 5247.279)"><path d="M133.693,17.722a2.889,2.889,0,0,0-2.844,2.458l-3.725,29.2a1.741,1.741,0,0,1-.631,1.133l-3.678,2.978,6.454,6.557,6.512-6.511a2.672,2.672,0,0,0,.788-1.9V20.6A2.878,2.878,0,0,0,133.693,17.722Z" transform="translate(-108.526 -0.001)" fill="#f4431a"/><path d="M20.4,334.552,9.166,323.142.678,329.687a1.741,1.741,0,0,0-.212,2.564L9.988,342.5a1.741,1.741,0,0,0,2.512.039Z" transform="translate(0 -269.89)" fill="#f4431a"/><path d="M284.716,53.492l-3.678-2.978a1.741,1.741,0,0,1-.631-1.133l-3.725-29.2a2.874,2.874,0,0,0-5.718.416v31.04a2.672,2.672,0,0,0,.788,1.9l6.512,6.511Z" transform="translate(-239.439 0)" fill="#f4431a"/><path d="M347.9,323.142l-11.232,11.41,7.9,7.982a1.741,1.741,0,0,0,2.513-.039L356.6,332.25a1.741,1.741,0,0,0-.212-2.564Z" transform="translate(-297.498 -269.89)" fill="#f4431a"/></g></g><path d="M-368.434,39.471s-8.109,12.483-7.789,31.757,7.789,28.967,7.789,28.967,11.85,23.482,54.906,20.789,56.2-28.582,56.2-28.582,5.086-10.312,4.985-20.933-5.391-21.552-5.391-21.552-17.7-38.849-57.636-40.261-52.922,40.18-52.922,40.18-.605,2.07-1.206,5.261-1.1,7.759-1.1,7.759,1-4.081,1.862-6.694,1.494-4.009,1.494-4.009,15.984-39.438,52.021-39.438,56.89,40.549,56.89,40.549a42.593,42.593,0,0,1,4.339,18.763c.065,11.055-4.476,17.739-4.476,17.739s-13.938,25.018-55.059,27.547-54.763-20.794-54.763-20.794-6.956-11.825-6.864-25.29,6.789-27.765,7.231-28.572,16.255-25.016,36.849-31.771,45.527,4.75,45.527,4.75-7.015-16.166-40.625-6.39S-368.434,39.471-368.434,39.471Z" transform="translate(-14928.768 11907.801)" fill="#f4431a"/></g></svg>