<svg xmlns="http://www.w3.org/2000/svg" xmlns:xlink="http://www.w3.org/1999/xlink" width="184" height="184" viewBox="0 0 184 184"><defs><clipPath id="a"><rect width="184" height="184" transform="translate(-1956 14487)" fill="none" stroke="#707070" stroke-width="4"/></clipPath></defs><g transform="translate(1956 -14487)" clip-path="url(#a)"><g transform="translate(87 -14.239)"><g transform="translate(-1984.505 14495.427)"><g transform="translate(27.451 108.861)"><path d="M198.675,309.616v-.257c-1.314-.014-2.572-.086-3.786-.186a17.251,17.251,0,0,1-2.743,4.7,44.625,44.625,0,0,0,6.615.586Z" transform="translate(-192.146 -309.173)" fill="#f4431a"/></g><g transform="translate(0 88.488)"><path d="M28.194,177.931A14.344,14.344,0,0,0,18.45,167.2a14.551,14.551,0,0,0-4.215-.629,14.235,14.235,0,1,0,9.586,24.759A14.156,14.156,0,0,0,28.48,180.8,14.941,14.941,0,0,0,28.194,177.931Zm-13.958.957a5.392,5.392,0,0,1,1.457,10.586v1.257a1.429,1.429,0,0,1-2.857,0v-1.243a5.427,5.427,0,0,1-4-5.215,1.429,1.429,0,0,1,2.857,0,2.536,2.536,0,1,0,2.529-2.543,5.39,5.39,0,0,1-1.372-10.6v-.614a1.429,1.429,0,1,1,2.857,0v.643a5.4,5.4,0,0,1,3.929,5.2,1.429,1.429,0,0,1-2.857,0,2.543,2.543,0,1,0-2.543,2.529Z" transform="translate(0 -166.573)" fill="#f4431a"/></g><g transform="translate(31.008 101.018)"><path d="M219.975,259.43l-.086-5.057c-.886-.014-1.757-.043-2.586-.1.043.571.071,1.129.071,1.686a17.562,17.562,0,0,1-.329,3.343C217.989,259.388,218.975,259.43,219.975,259.43Z" transform="translate(-217.046 -254.273)" fill="#f4431a"/></g><g transform="translate(20.236 82.531)"><path d="M170.991,124.873a17.135,17.135,0,0,1-3.1,1.243,47.2,47.2,0,0,1-23.159.114,15.829,15.829,0,0,1-3.086-1.186l.1,4.029a16.483,16.483,0,0,1,4.472,2.529c.043.014.071.014.114.029a40.874,40.874,0,0,0,9.729,1.072,40.44,40.44,0,0,0,11-1.386c3.1-.943,3.786-1.929,3.786-2.114a.821.821,0,0,1,.143-.586v-3.743Z" transform="translate(-141.646 -124.873)" fill="#f4431a"/></g><g transform="translate(20.093 75.473)"><path d="M166.191,76.859a39.887,39.887,0,0,0-11-1.386,38.591,38.591,0,0,0-10.858,1.386c-3.014.914-3.672,1.814-3.686,2.1,0,0,.014,0,.014.029.071.314.929,1.286,4,2.172a39.226,39.226,0,0,0,10.529,1.286,40.37,40.37,0,0,0,10.986-1.372c3.1-.929,3.8-1.914,3.8-2.114S169.291,77.8,166.191,76.859Z" transform="translate(-140.646 -75.473)" fill="#f4431a"/></g><g transform="translate(36.895 112.104)"><path d="M287.334,336.159v-4.286a18.31,18.31,0,0,1-3,1.214,42.248,42.248,0,0,1-11.8,1.5,43.968,43.968,0,0,1-10.729-1.229,18.616,18.616,0,0,1-3.557-1.3l.071,4.143v.029c0,.214.629,1.172,3.643,2.1a38.875,38.875,0,0,0,10.844,1.357,38.143,38.143,0,0,0,10.872-1.4c3.015-.943,3.672-1.929,3.672-2.129Z" transform="translate(-258.246 -331.873)" fill="#f4431a"/></g><g transform="translate(28.151 90.503)"><g transform="translate(0 0)"><path d="M218.447,180.673a18.043,18.043,0,0,1-3.086,1.229,42.642,42.642,0,0,1-11.844,1.5,51.457,51.457,0,0,1-6.472-.414A16.937,16.937,0,0,1,199.6,188.3c1.229.086,2.557.143,3.929.143h.143c2.343-2.572,8.643-3.857,14.772-4.029v-3.743Z" transform="translate(-197.046 -180.673)" fill="#f4431a"/></g></g><g transform="translate(36.766 104.204)"><path d="M283.462,277.787a42.764,42.764,0,0,1-11.672,1.457,42.226,42.226,0,0,1-11.329-1.386,17.53,17.53,0,0,1-3.115-1.2l.057,3.286.014,1.2c1.114,1.386,6.443,3.172,14.358,3.172a39.527,39.527,0,0,0,10.958-1.372c3.086-.943,3.757-1.914,3.757-2.114,0-.157.086-.329.086-.471h.014v-3.786A16.315,16.315,0,0,1,283.462,277.787Z" transform="translate(-257.346 -276.573)" fill="#f4431a"/></g><g transform="translate(36.666 97.132)"><path d="M282.191,228.43a40.039,40.039,0,0,0-11-1.357h-.243a38.882,38.882,0,0,0-10.186,1.214c-2.957.829-3.972,1.772-4.1,2.157a.108.108,0,0,0-.014.057l.029.057c.086.3.929,1.272,4,2.172a44.4,44.4,0,0,0,21.387-.071c3.172-.943,3.886-1.929,3.9-2.143V230.5C285.948,230.288,285.234,229.345,282.191,228.43Z" transform="translate(-256.646 -227.073)" fill="#f4431a"/></g></g><path d="M-368.434,39.471s-8.109,12.483-7.789,31.757,7.789,28.967,7.789,28.967,11.85,23.482,54.906,20.789,56.2-28.582,56.2-28.582,5.086-10.312,4.985-20.933-5.391-21.552-5.391-21.552-17.7-38.849-57.636-40.261-52.922,40.18-52.922,40.18-.605,2.07-1.206,5.261-1.1,7.759-1.1,7.759,1-4.081,1.862-6.694,1.494-4.009,1.494-4.009,15.984-39.438,52.021-39.438,56.89,40.549,56.89,40.549a42.593,42.593,0,0,1,4.339,18.763c.065,11.055-4.476,17.739-4.476,17.739s-13.938,25.018-55.059,27.547-54.763-20.794-54.763-20.794-6.956-11.825-6.864-25.29,6.789-27.765,7.231-28.572,16.255-25.016,36.849-31.771,45.527,4.75,45.527,4.75-7.015-16.166-40.625-6.39S-368.434,39.471-368.434,39.471Z" transform="translate(-1634.768 14523.573)" fill="#f4431a"/><path d="M78.345.347c32.581,6.462,70.527,111.308,54.969,138.334S20.013,146.322,2.99,112.834,45.764-6.114,78.345.347Z" transform="translate(-1934.592 14477.162) rotate(48)" fill="#f4431a" opacity="0.1"/></g></g></svg>