<svg xmlns="http://www.w3.org/2000/svg" width="301.878" height="56.089" viewBox="0 0 301.878 56.089">
  <path id="path2987" d="M78.752,55.793c0-.163-.073-.265-.162-.227s-.273-.115-.408-.34a.766.766,0,0,0-.525-.41c-.22,0-.238-.034-.085-.162s.144-.174-.021-.213-.162-.1.035-.262.2-.223.042-.26c-.115-.027-.208-.1-.208-.162s.074-.081.165-.042.122-.006.066-.109-.014-.18.091-.18c.139,0,.142-.063.012-.232-.143-.186-.127-.232.084-.232s.222-.03.054-.155c-.216-.16-.635-.017-.58.2.014.056-.062.124-.17.151-.128.033-.162-.038-.1-.206.053-.141.028-.229-.055-.195a1.025,1.025,0,0,1-.485-.024c-.264-.068-.187-.1.375-.169.442-.053.708-.146.708-.248s.146-.163.324-.163a.9.9,0,0,0,.552-.226,2.6,2.6,0,0,1,1.349-.483,8.043,8.043,0,0,0,1.083-.143c.518-.091,1.411-.2,1.984-.247a4.067,4.067,0,0,0,1.135-.186.813.813,0,0,1,.458-.107,6.646,6.646,0,0,0,1.365-.345,7.122,7.122,0,0,1,1.282-.345.617.617,0,0,0,.385-.118c.057-.064.018-.116-.085-.116-.231,0-.148-.518.085-.529.092,0,.5-.073.9-.153a4.005,4.005,0,0,1,1.137-.074,2.988,2.988,0,0,0,.936-.042c.291-.062.948-.17,1.459-.24a6.01,6.01,0,0,0,2.153-.458c0-.112-8.55-.034-10.666.1a5.368,5.368,0,0,1-2-.089c-.321-.1-.621-.184-.667-.193s-.3-.08-.57-.156a1.8,1.8,0,0,0-.75-.069c-.145.039-2.363.09-4.929.113s-5,.093-5.417.157-1.649.176-2.747.25a18.054,18.054,0,0,0-2.316.253,3.791,3.791,0,0,1-1.133.064,2.33,2.33,0,0,0-.9.047.229.229,0,0,1-.245.034c-.085-.037-.155-.011-.155.056a.1.1,0,0,1-.125.1,5.442,5.442,0,0,0-1.708.251,4.466,4.466,0,0,1-1.735.259,1.091,1.091,0,0,0-.631.205,1.333,1.333,0,0,1-.6.247c-.157.008-.735.025-1.285.039a12.087,12.087,0,0,0-1.667.159c-.367.074-.95.163-1.3.2s-.589.111-.539.167c.155.174-.215.22-3.111.384-.154.009-.266.065-.25.125s-.12.14-.3.178a4.117,4.117,0,0,0-.754.267,7.285,7.285,0,0,1-2.25.273c-1.006.041-2,.069-2.214.062a3,3,0,0,0-.9.172c-.291.1-.556.138-.615.078-.143-.148-.73-.29-.6-.146s-.027.144-.47-.023c-.9-.337-5.136-.081-5.578.337-.137.129-.152.217-.042.242.095.022.172.086.172.142s-.1.075-.233.04a.378.378,0,0,0-.343.062c-.162.182.837.155,1.376-.036a6.776,6.776,0,0,1,1.2-.245c.412-.047.881-.1,1.042-.123s.292.031.292.114c0,.107.207.14.708.113.548-.03.641-.012.413.08-.162.065-.258.161-.212.213.1.111-.833.223-2.637.316-1.013.052-1.343.032-1.456-.091s-.146-.12-.148-.015c0,.213-1.006.179-1.364-.047-.168-.105-.3-.142-.3-.082a3.808,3.808,0,0,1-1.375.03c-.756-.044-1.937-.108-2.625-.143a13.122,13.122,0,0,1-1.8-.2,3.178,3.178,0,0,0-.962-.08.778.778,0,0,1-.52-.063c-.065-.073-.021-.082.113-.024s.178.048.111-.027a4.529,4.529,0,0,0-1.861-.3c-.555-.018-.67-.063-.685-.27-.016-.222.1-.258,1.083-.337.606-.049,1.289-.077,1.518-.064l.417.025-.442-.167a9.159,9.159,0,0,0-2.974-.486c-.779-.04-1.9-.157-2.5-.261-1.37-.239-6.125-.258-6.333-.024a.3.3,0,0,1-.326.062,15.034,15.034,0,0,0-3.241-.043c.1.11.073.112-2.107.158-1.539.032-2.188.072-4.492.274a4.731,4.731,0,0,1-2.265-.194c-.251-.1-.2-.153.408-.419a6.239,6.239,0,0,1,1.986-.419c1.537-.135,3-.305,4.06-.471.632-.1.758-.16.692-.336a.254.254,0,0,0-.315-.153c-.128.034-.234,0-.234-.066s.131-.129.292-.13c.249,0,.255-.018.042-.114-.158-.071-.175-.113-.047-.114.112,0,.16-.08.107-.176-.067-.121.1-.235.547-.373l.643-.2-1.628-.07c-.9-.038-2.077-.065-2.625-.058s-1,.005-1,0,.15-.135.333-.281.333-.232.333-.189.169,0,.375-.093a7.94,7.94,0,0,1,1.611-.3,18.833,18.833,0,0,0,1.9-.295A6.622,6.622,0,0,1,10.9,46.36c.928-.006,3.266-.429,2.59-.468-.084,0-.3-.033-.486-.062l-.537-.084c-.381-.058-.406-.171-.054-.248a3.021,3.021,0,0,0,.787-.358,1.83,1.83,0,0,1,.808-.28,1.033,1.033,0,0,0,.562-.159c.156-.131.019-.173-.771-.235-.529-.042-1.186-.1-1.461-.132a25.635,25.635,0,0,0-3.436.014,7.874,7.874,0,0,1-2.147.055c0-.051.112-.158.25-.237s.25-.2.25-.265-.049-.087-.11-.045a.382.382,0,0,1-.333-.053c-.124-.071-.224-.08-.224-.018s-.112.111-.25.111c-.4,0-.29-.124.26-.293.619-.19.53-.27-.467-.421-.91-.138-1.083-.353-.431-.536a38.565,38.565,0,0,1,5.659-.438,19.212,19.212,0,0,0,1.987-.08l.442-.077-.475-.27a2.11,2.11,0,0,0-.757-.274c-.4-.006-.515-.19-.3-.465a4.9,4.9,0,0,1,2.256-.813c.246,0,.388-.05.329-.116A.658.658,0,0,0,14.428,40c-.282,0-.6-.289-.534-.492a6.62,6.62,0,0,0-2.8.245,26.381,26.381,0,0,1-4.843.5l-.4-.1L6.237,40a31.025,31.025,0,0,1,3.077-.456c2.707-.313,3.366-.535,1.592-.535a3.333,3.333,0,0,1-1.209-.16c-.232-.133-.552-.136-1.9-.022-2.483.211-3.926.355-4.264.428-.224.048-.292.014-.25-.127.061-.205.576-.446,1.385-.646.7-.173.263-.325-.626-.22-.386.045-1.039.119-1.451.164l-.75.082.625-.416a4.639,4.639,0,0,0,.625-.457,6.666,6.666,0,0,0-1.033-.123C.71,37.408-.009,37.146,0,36.766c0-.2,1.083-.469,2.086-.52.413-.021,1.351-.121,2.084-.222s1.858-.207,2.5-.236,1.617-.107,2.167-.174c3.415-.417,4.184-.519,4.331-.578.09-.036-.172-.122-.583-.192s-.748-.194-.748-.279c0-.195,1.68-.618,3.2-.807a3.98,3.98,0,0,0,1.47-.367,3.7,3.7,0,0,1,1.271-.355c1.252-.171,1.219-.333-.142-.683-.292-.075-.5-.2-.455-.27a2.339,2.339,0,0,1,1.279-.423c.17,0,.264-.052.207-.116a4.589,4.589,0,0,0-1.343-.116c-1.124,0-1.575-.118-1.032-.271.485-.136-1.947-.062-3.148.1-1.5.2-2.31.114-2.31-.233,0-.16.435-.371,1.636-.791,1.131-.4,1.568-.6,1.417-.671-.288-.129,0-.261,1.114-.518,1.578-.362,2.829-.969,2.665-1.292-.112-.221.5-.341,3.043-.6a22.307,22.307,0,0,0,2.81-.408,6.765,6.765,0,0,1,1.331-.246,23.566,23.566,0,0,0,3.979-.7,2.4,2.4,0,0,1,.833-.167,3.835,3.835,0,0,0,.838-.108c.265-.079.2-.1-.333-.117a5.627,5.627,0,0,1-2.363-.3.66.66,0,0,0-.583-.1c-.333.064-.346.056-.093-.054a1.355,1.355,0,0,1,.583-.1,1.189,1.189,0,0,0,.513-.065.988.988,0,0,1,.635.055.823.823,0,0,0,.726.016c.2-.087.352-.1.416-.023a3.005,3.005,0,0,0,1.049.118,4.988,4.988,0,0,1,1.365.17c.5.2.667.213.667.058,0-.064-.117-.116-.26-.116s-.219-.046-.169-.1-.066-.131-.258-.166-.316-.132-.277-.216c.073-.155.82-.245,3.129-.38,2.086-.122,2.667-.187,2.667-.3,0-.06-.112-.109-.25-.109a.24.24,0,0,1-.25-.232c0-.17.111-.232.417-.232.479,0,.561-.178.119-.259a17.734,17.734,0,0,0-1.875.008c-2.526.1-3.536.066-4.065-.133a1.525,1.525,0,0,0-.595-.138c-.059.025-.076-.1-.038-.28.083-.391-.152-.452-1.863-.485-1.024-.02-1.1-.037-.748-.165a21.276,21.276,0,0,1,4.014-.565,5.024,5.024,0,0,0,1.5-.23.936.936,0,0,1,1.079-.011,2.076,2.076,0,0,0,.946.171c1.235,0,5.844-.33,6.47-.457.584-.119.6-.138.479-.518-.078-.239-.06-.441.044-.514s.114-.169-.016-.278c-.4-.333.108-.4,2.541-.346a9.7,9.7,0,0,0,2.863-.116,20.02,20.02,0,0,1,3.483-.377c.183-.005.708-.056,1.167-.113l.833-.1-.75-.084c-.412-.046-1.65-.058-2.75-.025s-2.675.052-3.5.044-2.437.069-3.583.173c-2.267.205-4.605.349-5.612.345a1.83,1.83,0,0,0-.743.1,1.444,1.444,0,0,1-.625.116c-.286.008-.52.058-.52.111s-.169.063-.375.023c-.294-.057-.321-.047-.125.048.216.1.21.122-.042.123-.16,0-.292.06-.292.131s-.159.057-.411-.058c-.456-.208-.656-.24-.518-.084.05.056-.058.13-.24.163s-.331,0-.332-.074-.263-.134-.625-.134c-.4,0-.611.051-.586.139s-.153.122-.576.084c-.694-.062-1.378-.331-1.382-.545,0-.091-.06-.08-.164.032-.125.135-.162.1-.164-.152a.71.71,0,0,1,.6-.774c.14,0,.208-.052.151-.116s.033-.12.2-.125a3.036,3.036,0,0,0,1.269-.255c.333-.152,1.115-.093,1.115.083,0,.032-.1.031-.223,0a.59.59,0,0,0-.458.142c-.2.173-.2.187,0,.1.182-.076.21-.05.119.113a.2.2,0,0,0,.1.307c.319.141.587.114.3-.029-.188-.093-.092-.108.39-.062a2.451,2.451,0,0,0,.945-.07.522.522,0,0,1,.549.009c.2.113.269.1.373-.065a.528.528,0,0,0,.1-.292c-.015-.048.08-.087.21-.087a.355.355,0,0,0,.3-.132c.035-.073.284-.149.552-.169a1.345,1.345,0,0,0,.675-.213.3.3,0,0,1,.321-.092c.074.047.088-.006.03-.118-.129-.249.19-.273.327-.024.087.158.135.156.411-.018.3-.186.313-.184.315.024,0,.185.029.192.164.047.241-.259.206-.315-.24-.393-.283-.049-.4-.145-.38-.315.029-.27.61-.473,1.279-.445.623.025,1.174-.124,1.174-.318,0-.125.166-.162.625-.138a7.426,7.426,0,0,0,2.208-.255c.2-.079.186-.1-.083-.106-.183,0-.708-.033-1.167-.063a27.473,27.473,0,0,0-3.982.006c-.467.066-.616.055-.533-.039s.027-.107-.118-.068a.653.653,0,0,1-.534-.256c-.215-.228-.243-.332-.1-.365s.1-.1-.1-.21c-.274-.149-.256-.158.2-.1.275.033.406.03.292-.008-.422-.138-.19-.28.458-.28.421,0,.668.053.669.145,0,.106.04.1.146-.012.09-.1.182-.113.248-.039.112.126.324.116.845-.039a4.052,4.052,0,0,1,.873-.1c.691-.01.915-.3.232-.3a.756.756,0,0,1-.573-.174c-.065-.117.008-.174.224-.174a.716.716,0,0,0,.453-.145,1.623,1.623,0,0,1,1.045-.378.237.237,0,0,0,.253-.054,1.038,1.038,0,0,1,.565-.118,9.007,9.007,0,0,0,1.365-.188c.786-.163.856-.2.535-.284a30.2,30.2,0,0,0-3.092-.081,26.224,26.224,0,0,1-2.94-.078.3.3,0,0,0-.332.035,33.546,33.546,0,0,1-5.444.12.412.412,0,0,0-.341-.024c-.175.047-.2.095-.071.149.1.044-.041.08-.319.08s-.507-.05-.507-.111-.114-.045-.254.036a.435.435,0,0,1-.372.064c-.065-.045.068-.181.3-.3L32,11.525l-.417.056c-.365.049-.375.042-.083-.054a3.036,3.036,0,0,1,1.734.036c.451.174,1.016.116,1.016-.1,0-.1.329-.147,1.083-.149.68,0,1.083.043,1.083.123s.094.042.208-.063c.15-.137.6-.21,1.625-.264.779-.041,1.89-.148,2.469-.238s1.291-.168,1.583-.174a10.467,10.467,0,0,0,1.365-.169c.781-.148.693-.154-1.417-.095-1.237.035-2.362.064-2.5.065s-1.862.124-3.833.273-4.119.287-4.775.307a3.2,3.2,0,0,0-1.115.122c.042.048-.247.087-.642.087s-1.393.076-2.218.168a30.977,30.977,0,0,1-4.291.21c.115-.028.167-.1.115-.157s.116-.108.374-.111a3.785,3.785,0,0,0,1.051-.225c.321-.121.733-.268.917-.328.6-.2,10.432-1.325,12.75-1.465.687-.042,2.675-.179,4.417-.305s4.04-.28,5.108-.342a26.252,26.252,0,0,0,2.744-.28c.579-.121.834-.132.917-.038a18.847,18.847,0,0,0,3.981-.074c.321-.024,1.333-.076,2.25-.116,1.645-.071,4.151-.312,5.553-.532a2.9,2.9,0,0,1,.876-.046,22.531,22.531,0,0,0,2.58-.188,8.3,8.3,0,0,1,2.806-.113c.312.116.712.1,2.2-.107,2.476-.339,5.708-.78,7.318-1,.733-.1,1.8-.255,2.368-.345a13.255,13.255,0,0,1,1.583-.164,7.41,7.41,0,0,0,1.3-.166c.7-.155,2.118-.326,5.916-.713,1.951-.2,2.344-.245,4.333-.506.917-.12,2.417-.3,3.333-.41l2.167-.249c1.946-.223,2.317-.219,2.7.03.209.135.38.3.38.376a.113.113,0,0,0,.125.118c.069-.007.3-.007.506,0,.318.011.354.049.214.23-.2.265-.041.408.265.232.344-.2.265-.02-.13.3a2.222,2.222,0,0,1-1.007.359c-.56.066-.624.1-.444.252.269.225.042.239,10.722-.659.733-.062,2.046-.137,2.917-.168s2.446-.11,3.5-.177,2.442-.142,3.083-.168a16.813,16.813,0,0,0,1.826-.166,31.184,31.184,0,0,1,3.2-.127c1.4,0,2.636-.03,2.758-.059.3-.07,4.205-.212,5.135-.187a2.721,2.721,0,0,1,1,.181c.314.2,1.114.217,4.834.12a34.511,34.511,0,0,0,3.8-.247,30.209,30.209,0,0,1,4.75-.152c2.129.01,5.67-.021,7.87-.069,4.458-.1,4.22-.1,8.833.041,2.987.09,4.71.094,7.333.016.458-.014.7-.049.542-.078s-.292-.107-.292-.174.468-.1,1.375-.054c.756.037,3.025.12,5.042.185s4.6.171,5.75.236c4.6.262,6.359.355,8.75.461,5.979.265,9.131.371,12.416.416,1.512.021,3.387.074,4.167.117s1.942.074,2.583.068,1.917.041,2.833.1,3.885.137,6.6.165,5.262.1,5.667.164,1.325.141,2.046.176,1.545.09,1.833.122c.985.112,2.524.188,4.774.236,1.981.042,3.906.144,6.75.357.458.034,1.1.077,1.417.095l1.833.107c.688.041,1.85.106,2.583.145s1.371.087,1.417.106.51.067,1.031.106a11.052,11.052,0,0,1,1.192.135,16.157,16.157,0,0,0,1.719.1c2.228.052,2.225.052,2.225.239a.176.176,0,0,0,.176.174c.1,0,.122-.061.056-.135-.082-.092-.028-.111.17-.058a3.1,3.1,0,0,0,.659.078c.248,0,.376.075.393.232.03.277-.06.29-.395.058s-.739-.224-.622.029c.058.125.04.153-.047.073a3.6,3.6,0,0,0-1.474-.052,32.292,32.292,0,0,1-4.917-.1c-.871-.068-2-.152-2.5-.186s-1-.082-1.111-.106a.283.283,0,0,0-.292.131c-.072.13-.23.155-.61.1-.6-.091-.981-.126-2.57-.232-.642-.043-1.211-.1-1.266-.121-.117-.05-2.346-.058-5.4-.02a25.834,25.834,0,0,1-4.324-.21,39.352,39.352,0,0,0-4.593-.047,4.025,4.025,0,0,0,1.125.167c.619.046,1.275.1,1.458.129,1.286.176,4.73.374,7.5.43a7.731,7.731,0,0,1,1.343.1c.161.072,5.265.348,5.538.3.065-.011.681.016,1.368.06,1.063.069,3.777.207,4.458.228.246.007.275.157.049.254a14.831,14.831,0,0,1-2.555.033,1.544,1.544,0,0,1-.767-.182c-.1-.113-.387-.132-1.119-.074a9.933,9.933,0,0,0-1.095.125.552.552,0,0,1-.364-.13c-.139-.1-.293-.131-.341-.076a29.956,29.956,0,0,1-4.433-.059c-.321-.04-.886-.083-1.257-.1a4.217,4.217,0,0,1-1.042-.161c-.294-.109-.368-.106-.368.018,0,.091-.223.167-.542.185a45.208,45.208,0,0,1-4.625-.018c-1.052-.061-1.5-.053-1.338.023.657.306-.576.456-2.5.305a12.359,12.359,0,0,0-2.741-.064,5.052,5.052,0,0,1-1.183-.019c-.714-.133-4.424-.368-6.076-.385-.779-.008-1.9-.05-2.5-.094s-1.8-.106-2.667-.139-2.933-.136-4.583-.23-4.1-.205-5.454-.248c-2.2-.07-2.465-.058-2.56.115s-.38.192-1.963.188c-1.021,0-2.194.037-2.606.089L197,7.76l1.25.129c.687.071,1.512.128,1.833.126s1.633.077,2.917.176,3.721.237,5.417.309,3.25.154,3.454.185,1.891.106,3.75.168c3.34.111,5.681.2,7.462.29.5.025,2.234.1,3.843.162s3.035.14,3.167.169.39.091.573.139a6.223,6.223,0,0,0,.974.12,1.706,1.706,0,0,1,.834.216c.153.146.588.19,2.109.213a18.436,18.436,0,0,1,2.083.1,10.171,10.171,0,0,0,1.417.139c3.286.179,6.572.324,8.083.357.917.02,2.867.128,4.333.239s3.342.219,4.167.241c5.71.146,10.27.33,12.666.512.825.062,2.271.147,3.213.188a9.55,9.55,0,0,1,1.8.173c.048.054-.16.1-.463.108s-.763.02-1.022.033a1.146,1.146,0,0,1-.543-.058,1.527,1.527,0,0,0-.688.037,8.358,8.358,0,0,1-1.707.042c-.6-.042-3.791-.1-7.091-.122s-7.237-.079-8.75-.12c-2.7-.073-3.46-.028-1.691.1a5.648,5.648,0,0,1,.973.12c.119.083-.491.287-1,.334-.589.055-.775.2-.271.214.222.006,1.378.059,2.569.118s3.535.139,5.208.176c2.75.062,3.042.088,3.042.271,0,.255.671.315,4.714.423a26.034,26.034,0,0,1,3.051.177,2.156,2.156,0,0,0,.817.1c1.369,0,.985.32-.7.58a9.348,9.348,0,0,1-1.417.112c-2.03-.078-1.5.15.78.334.917.074,2.192.16,2.833.191s1.8.108,2.583.171,2.354.15,3.5.192a7.725,7.725,0,0,1,2.25.228,4.152,4.152,0,0,0,1.333.227,4.494,4.494,0,0,1,1.333.217,4.789,4.789,0,0,0,1.384.219,6.826,6.826,0,0,1,1.591.248A7.407,7.407,0,0,0,286.92,17a22.485,22.485,0,0,1,3.912.3c.1.11-1.362.267-1.586.171-.092-.039-.167-.022-.167.038s.263.144.583.186c.633.083.753.227.292.351-.545.147.218.379,1.931.589,1.439.176,2.348.394,1.686.4-.623.009.339.213,1.34.284a5.666,5.666,0,0,1,1.275.188,6.046,6.046,0,0,0,1.248.23c1.611.18,1.593.325-.05.415a4,4,0,0,0-1.344.238c-.237.147-.526.165-1.583.1-2.149-.139-2.575-.112-2.9.185-.158.145-.255.3-.215.345a5.473,5.473,0,0,0,1.2.162,6.878,6.878,0,0,1,1.29.172,4.489,4.489,0,0,0,.958.173c1.195.124.95.287-.431.287a6.286,6.286,0,0,0-1.348.087,8.146,8.146,0,0,1-1.553.087c-.993,0-1.449.044-1.5.145s.129.145.567.145a8.281,8.281,0,0,1,1.222.107c.321.058,1.218.139,1.994.179a8.222,8.222,0,0,1,1.6.182.321.321,0,0,0,.285.041.931.931,0,0,1,.485.029c.3.074.122.113-.779.17a17.868,17.868,0,0,0-2.917.406c-.407.108.226.227,2.125.4a11.026,11.026,0,0,1,1.708.223,4.325,4.325,0,0,0,1.083.021c.871-.039,1.083-.015,1.083.121,0,.21-.528.553-.846.551-.2,0-.194-.021.013-.114s.206-.112-.047-.114a.485.485,0,0,0-.4.178c-.085.153-.386.171-2.036.119-2.068-.065-2.577.012-2.2.331.638.534,3.241,1.107,5.03,1.107,1.081,0,1.645.14,1.645.409,0,.135-.267.169-1.292.167a14.473,14.473,0,0,1-1.958-.125c-.367-.067-2.094-.146-3.839-.174-3.086-.051-3.173-.046-3.2.18s.179.383.537.423c.092.01.811.1,1.6.206,2.576.337,4.863.543,7.2.647,2.169.1,2.908.229,2.684.481a.236.236,0,0,1-.252.036c-.088-.038-.139,0-.113.085s-.084.146-.244.137-.254.025-.21.074-.174.123-.486.164c-.673.088-.832.3-.488.638.184.182.2.291.072.4-.215.18-.075.3.345.3.168,0,.306.022.306.048a1.055,1.055,0,0,0,.111.249c.1.184-.01.194-1.375.123-.817-.042-1.767-.108-2.111-.146-.5-.055-.625-.032-.625.112,0,.1-.121.228-.269.285-.382.148-.152.815.326.949.342.1.343.1.026.116-.333.015-.333.015,0,.115s-.129.139-1.833.167c-.711.012-1.25.168-1.25.361,0,.1-.173.166-.458.167a5.692,5.692,0,0,0-.837.072c-.355.066-.361.08-.083.226a1.974,1.974,0,0,0,.751.159,6.764,6.764,0,0,1,1.555.409,6.479,6.479,0,0,0,1.645.405,10.13,10.13,0,0,1,2.508.235c-.042.048.051.079.206.071a.338.338,0,0,1,.343.184c.076.255-.908.694-1.416.632-.2-.025-.4.012-.43.081a7.874,7.874,0,0,1-2.8.067c-.33-.061-2.037-.125-3.792-.142-2.967-.029-3.842.03-2.733.185.252.035.8.117,1.208.182a11.925,11.925,0,0,0,1.458.123c.39,0,.708.057.708.121s.117.116.261.116a2.138,2.138,0,0,1,.6.127c.338.126.338.129-.053.264-.684.237-.472.46.677.714a3.066,3.066,0,0,1,1.15.405.548.548,0,0,0,.225.236c.255.116-.05.473-.339.4-.146-.039-.219-.039-.163,0s-.087.2-.318.363a1.9,1.9,0,0,1-1.133.311c-.392.011-.683.053-.646.095a7.406,7.406,0,0,1-1.528.019c-1.275-.045-1.651-.022-1.875.119a7.23,7.23,0,0,1-2.8.137c-.326-.053-.564-.036-.635.043A.852.852,0,0,1,284,39.3c-.5,0-.92.111-.92.244,0,.057.109.1.242.1a.555.555,0,0,1,.383.176,5.164,5.164,0,0,0,1.717.388c1.926.26,3.343.658,3.209.9a.3.3,0,0,1-.331.106c-.13-.035-.2-.016-.144.041s-.1.267-.344.465c-.322.266-.525.341-.772.287-.186-.041-.293-.027-.241.032s-.167.111-.486.117a15.924,15.924,0,0,0-1.749.211l-1.17.2.372.275a1.439,1.439,0,0,0,.526.275,4.14,4.14,0,0,1,.726.189c.548.181.562.2.319.457-.16.169-.191.3-.086.34s.119.126.061.192-.159.064-.253-.037-.19-.116-.271-.039a2.469,2.469,0,0,1-.625.286l-.5.168.527.039c.571.043.876.34.462.45a.553.553,0,0,1-.346,0,1.462,1.462,0,0,0-.647.152,6.117,6.117,0,0,1-1.188.3,2.6,2.6,0,0,0-.858.238c-.292.2-.407.2-1.955-.077-1.39-.247-1.781-.224-2.352.138-.322.2-.451.214-1.322.1A11.224,11.224,0,0,0,272.813,46a5.908,5.908,0,0,0,1.3.24c1.7.2,1.9.245,1.616.365-.485.208,1.687.7,3.809.862a4.456,4.456,0,0,1,1.123.17c.044.05-.077.23-.269.4-.323.285-.329.324-.081.515.148.113.268.235.268.269a15.975,15.975,0,0,1-3.75-.274,15.417,15.417,0,0,0-4.285-.351c-.132.092-.133.17,0,.278.174.146.442.208,2.664.622.693.129,1.042.252,1.042.368,0,.147-.2.162-1.237.1a3.424,3.424,0,0,0-1.343.042c-.059.066-.015.12.1.12s.165.027.118.06a13.433,13.433,0,0,1-2.707-.395,20.515,20.515,0,0,0-3.137-.336c-.16.008-.292.08-.292.159a.751.751,0,0,1-.086.3c-.082.148,1.953.448,5.461.8a10.994,10.994,0,0,1,1.562.273,4.929,4.929,0,0,0,1.125.176c.755,0,1.839.23,1.664.352a14.481,14.481,0,0,1-2.255.135c-1.159.018-2.1.042-2.08.053s.4.121.851.244c.789.215.808.231.447.365a2.336,2.336,0,0,1-1.207.016c-1.014-.151-1.148-.153-1.148-.017,0,.059.224.141.5.183.911.139.714.29-.379.29a5.834,5.834,0,0,0-1.592.182,1.843,1.843,0,0,1-.893.1c-.475-.1-8.3-.145-8.209-.042.194.218-1.992.217-3.858,0-3.778-.443-6.992-.695-9.066-.71-1.146-.009-2.871-.087-3.833-.175s-2.677-.213-3.81-.278-2.108-.139-2.167-.164-.669-.078-1.356-.118-1.512-.1-1.833-.123c-.668-.056-3.709-.174-5.916-.229-1.6-.04-4.024-.147-5.667-.249-.55-.034-2.687-.084-4.75-.112s-4.5-.092-5.416-.144-3.452-.09-5.634-.083c-3.3.01-3.994.04-4.125.182s-.181.146-.308.009q-.15-.161-.642-.093a1.239,1.239,0,0,1-.675-.058,1.9,1.9,0,0,0-.733-.151,7.122,7.122,0,0,1-.883-.093,6.668,6.668,0,0,0-2.459-.141c-.337.1-1.177-.018-1.061-.149a8.444,8.444,0,0,0-1.785-.118c-2.759-.046-3.045-.067-3.357-.247-.254-.146-.279-.14-.229.061.038.153-.024.212-.194.184a4.991,4.991,0,0,0-.625-.043c-.206,0-.375-.042-.375-.091s-.121-.121-.269-.161c-.2-.052-.241-.022-.169.109s.036.153-.106.09a11.547,11.547,0,0,0-1.79-.127c-1.831-.042-1.559-.042-10.166-.02-3.621.009-7.047-.021-7.614-.067a6.436,6.436,0,0,0-1.311-.009c-.284.076-5.728.225-7.4.2-1.308-.017-2.792.517-1.967.708.123.028.038.11-.208.2a1.981,1.981,0,0,0-.509.25,3.785,3.785,0,0,1-2,.153,7.363,7.363,0,0,0-1.98-.1c-.878.023-3.762.07-6.409.1s-4.995.093-5.217.132-1.169.079-2.1.088a11.035,11.035,0,0,0-2.031.148,9.356,9.356,0,0,1-2.132.29,5.156,5.156,0,0,0-1.451.037,5.738,5.738,0,0,1-.917.068l-.667-.04c-.183-.011-1.046.041-1.917.116s-1.908.135-2.3.134a2.867,2.867,0,0,0-.917.107,2.992,2.992,0,0,1-.738.19c-.443.066-.542.045-.542-.115s-.138-.187-1.208-.114c-.665.045-2.408.094-3.875.109s-3.071.088-3.564.163-.934.136-.979.136.012.078.126.174a1.514,1.514,0,0,0,.77.174,1.688,1.688,0,0,1,.563.048.931.931,0,0,0,.1.232c.139.251-.33.239-.7-.018-.21-.146-.309-.162-.359-.057a.172.172,0,0,1-.222.079c-.084-.036-.152-.023-.152.028s-.169.1-.375.108-1.35.073-2.542.145-3.592.152-5.333.177-3.354.075-3.583.11c-.776.118-5.045.393-7.333.471-4.239.146-7.453.567-8.115,1.063a1.661,1.661,0,0,1-.835.287c-2.157.049-5.152.2-6.466.337-.55.055-1.515.132-2.144.172s-1.521.121-1.981.181-.864.11-.9.11-.061-.133-.061-.3Zm0-1.053c0-.127-.074-.136-.327-.042-.2.073-.288.192-.231.3.074.135.149.144.327.042A.44.44,0,0,0,78.752,54.739Zm28.083-1.722c.652-.162.636-.165-.75-.108a24.719,24.719,0,0,0-4.167.275A26.463,26.463,0,0,0,106.834,53.017Zm-77.414-1.4c0-.025-.112-.046-.25-.046s-.25.05-.25.112.112.082.25.045S29.42,51.644,29.42,51.619ZM41.5,51.227c.058-.065-.078-.116-.314-.116a.924.924,0,0,0-.52.116c-.058.065.078.116.314.116A.923.923,0,0,0,41.5,51.227Zm-7.916-.592c0-.119-.2-.131-.57-.032-.418.111-.306.251.153.19C33.4,50.761,33.586,50.69,33.586,50.634Zm94.3-.019c.569-.11.647-.152.367-.2-.445-.073-5.747.082-8.589.251-.772.046,5.191.158,6.417.121A14.111,14.111,0,0,0,127.89,50.615Zm5.777-.356c.183-.03-.154-.051-.75-.045-1.422.012-1.985.119-1.083.2a4.646,4.646,0,0,0,1.083-.021C133.146,50.352,133.484,50.289,133.667,50.259Zm-106.358.034c.343-.007.341-.013-.044-.12-.454-.126-.844-.063-.844.136,0,.073.118.1.264.062a3.224,3.224,0,0,1,.625-.078Zm108.862-.13c.045-.031-.252-.065-.659-.076a1.846,1.846,0,0,0-.855.11c-.081.091.115.113.659.076A4.431,4.431,0,0,0,136.171,50.163ZM266.5,48.8c.064-.072-.2-.111-.7-.1-.712.012-.745.024-.3.1C266.226,48.924,266.382,48.924,266.5,48.8ZM9.618,47.1A.466.466,0,0,0,9.3,47.1c-.055.038.043.066.219.061.194-.006.234-.033.1-.07Zm1.969-.152c.335-.075.351-.093.083-.1a2.709,2.709,0,0,0-.667.1C10.579,47.07,11.017,47.07,11.587,46.943Zm2.236.046a.339.339,0,0,0,.264-.278c0-.177-.1-.2-.708-.147-.766.066-1.266.264-.668.264a.773.773,0,0,1,.46.116C13.289,47.076,13.452,47.087,13.823,46.988Zm270.756-2.014c0-.064-.131-.115-.292-.114-.249,0-.255.018-.042.114C284.561,45.116,284.579,45.116,284.579,44.975ZM17.952,40.264a.466.466,0,0,0-.319.009c-.055.038.043.066.219.061.194-.006.234-.033.1-.07Zm-1.365-.338c0-.189-.464-.21-1.072-.049-.663.175-.506.3.322.253C16.34,40.1,16.587,40.035,16.587,39.927Zm3.1.084c-.166-.187-.762-.235-.762-.061,0,.1.171.163.426.163C19.581,40.112,19.732,40.066,19.683,40.01Zm-1.262-.13c.186-.083.09-.113-.375-.114-.344,0-.625.05-.625.114,0,.147.671.147,1,0ZM296.246,26.335c0-.064-.075-.116-.167-.116s-.167.052-.167.116.075.116.167.116S296.246,26.4,296.246,26.335Zm1.208-2.161a.913.913,0,0,0-.417,0c-.115.032-.021.058.208.058s.323-.026.208-.058Zm-2.5-1.394a3.407,3.407,0,0,0-.75,0c-.206.028-.038.05.375.05S295.161,22.807,294.954,22.78Zm-7.708-.935a5.566,5.566,0,0,0-1.375-.227c-.756-.076-1.555-.173-1.776-.218-.249-.05-.362-.037-.3.034a7.005,7.005,0,0,0,1.568.262c.806.081,1.541.164,1.632.184l.208.046c.023.005.042-.031.042-.081ZM44.17,20.778c.3-.089.285-.1-.115-.108a.986.986,0,0,0-.551.108C43.38,20.916,43.707,20.916,44.17,20.778ZM286.08,20.1a7.356,7.356,0,0,0-1.673-.232c-2.072-.164-2.444-.167-2.232-.02a11.422,11.422,0,0,0,1.992.215c1.006.057,1.849.11,1.872.119s.042-.029.042-.083ZM34.82,18.713c.047-.053-.023-.1-.157-.1s-.243.043-.243.1.071.1.157.1A.368.368,0,0,0,34.82,18.713Zm22.3-.214a.466.466,0,0,0-.319.009c-.055.038.043.066.219.061.194-.006.234-.033.1-.07Zm-25.864-.152c0-.064-.131-.115-.292-.114-.249,0-.255.018-.042.114C31.235,18.487,31.254,18.487,31.254,18.346Zm.667-.181c0-.028-.075-.051-.167-.051s-.167.055-.167.123.075.09.167.051.167-.095.167-.123Zm9.5-.806c.229-.044.942-.124,1.583-.178s1.429-.152,1.75-.219.583-.118.583-.113a10.986,10.986,0,0,0,1.708-.371c.86-.254.914-.449.125-.449-.407,0-.583-.052-.583-.174,0-.178.746-.248,1.984-.187A10.463,10.463,0,0,0,51,15.355c.263-.106-.578-.226-1.675-.239a7.12,7.12,0,0,0-2.073.278,8.782,8.782,0,0,1-1.407.291c-.274,0-.294.023-.1.108a.591.591,0,0,0,.375.049c.073-.031.133-.008.133.052,0,.1-.365.177-1.638.329a1.109,1.109,0,0,0-.644.229c-.074.133-.138.136-.352.015s-.246-.118-.164.035c.072.133,0,.177-.26.163a4.782,4.782,0,0,0-.912.086,1.171,1.171,0,0,1-.792-.033c-.134-.077-.239-.088-.239-.023a4.25,4.25,0,0,1-1.714.493c-.157,0-.286.071-.286.158,0,.118.223.15.875.126a11.285,11.285,0,0,0,1.292-.113Zm6.856-4.2a.567.567,0,0,0-.395.072c-.124.086-.059.1.219.051C48.325,13.242,48.4,13.19,48.276,13.161Zm201.3-.459c0-.048-.228-.1-.506-.111s-.463.023-.406.087C248.784,12.808,249.581,12.83,249.58,12.7ZM48.753,11.973l.417-.009-.389-.108c-.439-.122-1.195-.028-1.195.149,0,.065.168.086.375.047a5.932,5.932,0,0,1,.792-.079ZM248.247,12c0-.053-.112-.1-.25-.1s-.25.043-.25.1.112.1.25.1S248.247,12.051,248.247,12Zm.7.017a.466.466,0,0,0-.319.009c-.055.038.043.066.219.061.194-.006.234-.033.1-.07ZM51.617,11.784a.466.466,0,0,0-.319.009c-.055.038.043.066.219.061.194-.006.234-.033.1-.07Zm-18.7-.152c0-.064-.075-.116-.167-.116s-.167.052-.167.116.075.116.167.116S32.92,11.7,32.92,11.631Zm4.333-.3c0-.13-.313-.016-.4.146s-.063.166.149.044A.777.777,0,0,0,37.253,11.328Zm1.667.014c0-.1-.029-.174-.065-.174s-.109.078-.161.174-.023.174.065.174A.168.168,0,0,0,38.919,11.342ZM257.111,7.384a.466.466,0,0,0-.319.009c-.055.038.043.066.219.061.194-.006.234-.033.1-.07ZM103.661,5.04c.053-.059.028-.137-.056-.173a.208.208,0,0,0-.247.108c-.1.188.147.241.3.065ZM24.554,54.729c-.1-.08-.109-.146-.029-.148s.005-.06-.166-.129c-.44-.177-.05-.33.812-.317.45.007.558.034.333.085-.318.072-.554.366-.292.363.489-.006.843-.158.767-.328s-.055-.165.155.011c.285.24,1.553.284,1.663.058.056-.115.123-.114.329,0,.324.186.516.638.24.567a.169.169,0,0,1-.141-.206c.038-.109-.039-.1-.254.038-.246.155-.6.189-1.775.17a4.934,4.934,0,0,1-1.641-.168Zm-2.288-.255c-.222-.1-.115-.353.146-.353.19,0,.357.327.2.394a.547.547,0,0,1-.347-.041Zm3.526-.931c-.184-.205-.165-.234.168-.249.207-.01.489-.026.626-.037.445-.034.528.072.235.3A.718.718,0,0,1,25.792,53.542Zm100.959-.861c0-.028.075-.083.167-.123s.167-.016.167.051-.075.123-.167.123S126.751,52.708,126.751,52.68Zm1.956-.079c.113-.079.248-.115.3-.079s-.041.1-.206.144C128.562,52.729,128.543,52.716,128.706,52.6Zm-89.453-.319c0-.056.116-.168.257-.25.2-.115.3-.117.457-.009s.145.163-.049.248c-.314.138-.665.144-.665.011Zm188.161-1.056c0-.064.108-.116.24-.116a.528.528,0,0,1,.343.116c.057.064-.051.116-.24.116S227.414,51.29,227.414,51.226Zm-2.833-.123c0-.132.448-.145.562-.017.045.05-.063.1-.24.109s-.322-.032-.322-.092ZM59.3,50.917c-.15-.272.079-.311.655-.114.3.1.471.195.38.2C59.633,51.08,59.379,51.058,59.3,50.917Zm144.113-.269c0-.064.033-.116.074-.116a.334.334,0,0,1,.176.116c.057.064.024.116-.074.116S203.415,50.711,203.415,50.647Zm-2.4-.1c-.072-.081-.085-.178-.03-.216.149-.1.312.049.231.217-.056.118-.1.118-.2,0Zm.611.024c-.341-.1-.236-.254.125-.188.183.033.333.107.333.163C202.081,50.656,201.951,50.663,201.623,50.571Zm79.9-.579c-.192-.133-.121-.27.139-.27.137,0,.25.078.25.174,0,.181-.2.23-.389.1ZM74.69,49.282c-.045-.05.065-.1.244-.109s.282.032.229.092A.338.338,0,0,1,74.69,49.282Zm1.5-.2a.475.475,0,0,1,.369-.181c.151,0,.611-.032,1.024-.061.541-.038.68-.019.5.065-.206.1-.209.117-.014.119.13,0,.189.034.132.074a5.475,5.475,0,0,1-1.105.115C76.264,49.249,76.113,49.227,76.192,49.083ZM8.178,48.8c-.123-.139.19-.276.412-.181.186.08.064.288-.169.288A.371.371,0,0,1,8.178,48.8Zm1.576-3.011c0-.06.074-.141.165-.18s.122.006.065.109C9.873,45.922,9.754,45.958,9.754,45.792Zm1.222-.06c0-.093.064-.141.142-.108a.1.1,0,0,1,.046.169C11.028,45.944,10.976,45.927,10.976,45.732ZM301.411,30.618c-.137-.062-.175-.112-.083-.112a1.3,1.3,0,0,1,.417.112c.137.062.175.112.083.112A1.3,1.3,0,0,1,301.411,30.618ZM27.587,22.027c0-.05.15-.091.333-.091s.333.049.333.109-.15.1-.333.091S27.587,22.077,27.587,22.027Zm6.979-1.7-.391-.22,1-.092c.549-.051,1.391-.095,1.872-.1a2.521,2.521,0,0,0,.875-.085,2.552,2.552,0,0,1,1.148.208c.056.043-.129.048-.412.01a2.241,2.241,0,0,0-1,.111,5.179,5.179,0,0,1-1.361.19,2.16,2.16,0,0,0-.875.1c0,.166-.453.1-.854-.127Zm-2.1.034a.466.466,0,0,1,.319-.009c.133.037.093.064-.1.07-.176.005-.274-.022-.219-.061Zm-3.032-1.6c-.007-.122.032-.19.088-.152a.173.173,0,0,1,.013.222C29.481,18.924,29.441,18.9,29.433,18.761Zm4.552-.973c.047-.052-.069-.186-.256-.3-.336-.2-.325-.208.69-.542,1.222-.4,1.335-.411,1.335-.107,0,.143-.112.232-.292.233-.236,0-.247.021-.056.105a1.2,1.2,0,0,0,.542.063c.168-.023.306.012.306.077s-.244.109-.542.1-.692-.015-.875-.007c-.278.011-.292.032-.083.126s.208.112-.042.114c-.16,0-.292.054-.292.118s-.117.116-.26.116-.222-.043-.175-.1Zm2.131-.934c-.168-.072-.161-.12.031-.231.27-.155.485-.02.3.189A.305.305,0,0,1,36.116,16.854Zm-5.779-4.875c-.057-.064.01-.116.147-.116a.546.546,0,0,1,.353.116c.057.064-.009.116-.147.116A.546.546,0,0,1,30.337,11.979Zm3.413-.518c.24-.2.336-.222.336-.073,0,.057-.123.136-.274.176-.229.061-.239.044-.063-.1ZM269.294,9.592a3.221,3.221,0,0,1,1.478-.147c.124.055.15.105.059.112A5.991,5.991,0,0,1,269.294,9.592Zm-1.012-.143c-.139-.061-.035-.095.292-.095.279,0,.507.043.507.1,0,.123-.517.122-.8,0ZM264,9.3c-.713-.111-2.445-.191-5.682-.261a14.92,14.92,0,0,1-2.371-.176,7.933,7.933,0,0,0-1.86-.1c-.827.018-1.5.02-1.5.006a5.783,5.783,0,0,1,1.085-.38c.056,0,.055.052,0,.116s.109.116.407.116c.28,0,.51-.052.51-.116s.079-.116.176-.116.12.065.051.145c-.092.107-.063.114.115.027a1.432,1.432,0,0,1,.574-.1c.183.007.732.021,1.218.03s.85.056.807.1.384.079.948.07a5.745,5.745,0,0,1,1.318.091q.292.108.292-.019c0-.07.091-.088.2-.04a10.18,10.18,0,0,0,1.625.118c.783.017,1.423.038,1.423.045s.375.031.833.051.852.049.875.063a2.392,2.392,0,0,0,.5.1c.133.02-.65.356-.792.34-.046-.005-.383-.056-.75-.113Zm-6.75-.579c0-.056-.146-.1-.323-.1a.7.7,0,0,0-.414.1c-.05.056.1.1.323.1S257.247,8.778,257.247,8.723Zm8.915-.335a.243.243,0,0,0-.26-.051c-.085.037-.155.015-.155-.049,0-.224.269-.228.468-.006.111.123.168.224.127.224a.339.339,0,0,1-.18-.118Zm-3.568-.452c-.176-.122-.354-.2-.4-.168a4.738,4.738,0,0,1-.889.093c-.773.037-1.732-.2-1.489-.37a3.078,3.078,0,0,1,1.6.044,1.04,1.04,0,0,0,.936.01,1.749,1.749,0,0,1,1.145.036c.16.18-.078.578-.345.578a1.244,1.244,0,0,1-.558-.222Zm1.72.088c-.071-.08-.046-.1.062-.056a.267.267,0,0,0,.286-.04c.155-.175.363-.143.363.056s-.538.234-.71.04ZM69.464,7.162a.466.466,0,0,1,.319-.009c.133.037.093.064-.1.07-.176.005-.274-.022-.219-.061Zm33.621-3.288c0-.064.033-.116.073-.116a.334.334,0,0,1,.177.116c.057.064.024.116-.074.116S103.084,3.938,103.084,3.874Zm3.886.012c-.269-.137-.2-.335.092-.281.189.034.31-.013.328-.128s.04-.26.056-.356.165-.18.333-.188.362-.025.431-.038l.625-.117c.612-.114.944-.285.822-.422-.05-.056.057-.1.238-.1a.544.544,0,0,1,.414.145c.059.1.127.107.222.021a1.026,1.026,0,0,1,1.024-.138c.216.122.236.118.118-.018s-.073-.146.148-.087a2.465,2.465,0,0,0,.516.078.4.4,0,0,1,.325.22.333.333,0,0,0,.4.165c.425-.077.381-.364-.047-.309-.339.043-.339.042-.014-.066a3.765,3.765,0,0,1,.9-.118c.31,0,1.023-.059,1.583-.122,1.453-.162,5.105-.446,6.769-.526.779-.038,1.754-.089,2.167-.114.869-.053,2.585-.138,4.833-.239.871-.039,2.071-.1,2.667-.135a31.778,31.778,0,0,1,4-.011c.138.035.569.1.958.152a1.676,1.676,0,0,1,.708.174,1.331,1.331,0,0,1-.412.371,1.768,1.768,0,0,1-1.251.275c-.5-.007-.816.036-.782.106a4.274,4.274,0,0,0,1.339.127c1.108.008,1.847.158,1.595.324a12.807,12.807,0,0,1-2.322.077,5.109,5.109,0,0,0-1.125-.026,17.861,17.861,0,0,1-2.081-.069,4.873,4.873,0,0,0-1.035-.05,3.7,3.7,0,0,1-.794.079,9.4,9.4,0,0,0-1.175.114,1.135,1.135,0,0,1-.672-.033,8.787,8.787,0,0,0-1.823-.149c-1.1-.018-1.577-.067-1.5-.151.059-.069-.02-.053-.176.035a1.651,1.651,0,0,1-.961.084c-.445-.049-.642-.035-.573.043.118.133.1.135-1.414.163a10.02,10.02,0,0,0-1.458.111c-.206.05-.375.048-.375,0s-.187-.095-.417-.095-.417.039-.417.087-.117.087-.26.087-.221-.044-.173-.1a4.28,4.28,0,0,0-1.721.192,8.537,8.537,0,0,1-3.347.261c0-.068-.079-.123-.176-.123s-.133.049-.081.108c.151.169-.233.274-.481.131-.166-.1-.245-.09-.307.023-.054.1-.328.142-.769.125-.377-.015-.686.022-.686.082,0,.191-.856.066-1.023-.15a.315.315,0,0,0-.322-.14c-.089.038-.123.112-.076.165s-.025.125-.159.161a.387.387,0,0,1-.344-.048c-.061-.069-.275-.045-.547.06a6.952,6.952,0,0,1-2.31.306Zm-2.386-.526c0-.2.1-.233.243-.073.053.059.02.141-.074.18A.112.112,0,0,1,104.584,3.36Zm.628-.2a.567.567,0,0,1,.395-.072c.125.029.049.081-.176.122C105.154,3.261,105.089,3.246,105.212,3.16Zm57.412-.294c-.206-.028-.375-.09-.375-.139,0-.142.724-.065.8.085.036.075.04.129.009.12s-.224-.038-.431-.066ZM159.166,2.6c.458-.137.721-.137.417,0a1.376,1.376,0,0,1-.5.106C158.918,2.7,158.946,2.667,159.166,2.6Zm1.01.011c-.051-.058.057-.078.24-.044.389.071.438.149.093.149A.521.521,0,0,1,160.176,2.612ZM138.72,2.35c-.262-.183-.143-.2,1.917-.2,1.208-.005,2.363-.032,2.568-.059a.71.71,0,0,1,.458.047,1.194,1.194,0,0,0,.6.073c.758-.036.762.132,0,.182-.358.024-.616,0-.573-.046.137-.154-.12-.1-.381.085a1.255,1.255,0,0,1-1.143.058c-.069-.077-.213-.075-.43.005-.369.137-.716.044-.547-.147.074-.083.033-.091-.122-.024a5.686,5.686,0,0,1-1.151.164c-.721.048-.976.02-1.2-.134Zm13.363.135c0-.064.033-.116.074-.116a.334.334,0,0,1,.176.116c.057.064.024.116-.074.116S152.083,2.549,152.083,2.485Zm-6.666-.232c-.15-.067-.171-.113-.051-.114a.451.451,0,0,1,.3.114C145.795,2.4,145.737,2.4,145.417,2.254Zm65.1-.016c.086-.1-.549-.211-.677-.122-.179.124-.92.148-.92.029,0-.073-.474-.091-1.292-.048a4.84,4.84,0,0,1-1.875-.121c-.321-.1-.457-.165-.3-.136s.3.008.333-.048a.479.479,0,0,1,.3-.138.82.82,0,0,0,.372-.153c.067-.064.124,0,.125.138,0,.24.028.245.461.087.411-.149.482-.146.689.036s.226.192.13,0c-.078-.156-.009-.2.3-.2a.852.852,0,0,1,.573.2c.094.112.172.138.175.058.005-.152.505-.209.505-.058a4.667,4.667,0,0,0,1.26.08,5.464,5.464,0,0,1,1.343.087.8.8,0,0,0,.44.094c.285,0,.315.029.148.145a5.285,5.285,0,0,1-2.094.071Zm2.736,0a.123.123,0,0,1,.125-.1c.069,0,.365-.03.658-.056.659-.06.894.139.26.22S213.248,2.35,213.248,2.234Zm-12-.386c0-.064-.281-.116-.625-.116a1.712,1.712,0,0,0-.748.116q-.122.116-.125,0c0-.145-1-.179-1-.034,0,.058-.068.077-.151.041a27,27,0,0,0-3.182-.237,8.2,8.2,0,0,1-.917-.061,11.7,11.7,0,0,0-2.333,0,4.962,4.962,0,0,1-1.917.111c0-.059-.113-.107-.25-.107s-.25.05-.25.112a18.281,18.281,0,0,1-3.125.057c-1.719-.03-3.306-.054-3.527-.054a6.164,6.164,0,0,1-.958-.106c-.335-.064-.556-.065-.556,0,0,.105-.583.088-.741-.022a13.08,13.08,0,0,0-1.685-.016,6.011,6.011,0,0,1-1.838-.095c-.183-.106-.236-.1-.238.023,0,.1-.048.114-.125.038a11.6,11.6,0,0,0-2.372-.135c-1.237-.008-4.987-.044-8.333-.081s-7.639-.073-9.541-.082-3.458-.048-3.459-.088a2.981,2.981,0,0,0-.917-.072,2.506,2.506,0,0,0-.916.087c0,.048-.079.087-.176.087s-.13-.052-.073-.116-.014-.116-.157-.116-.26-.052-.26-.116-.079-.116-.176-.116-.13.052-.074.116-.123.115-.448.114c-.417,0-.491-.029-.3-.114s.192-.113.03-.114-.163-.042.03-.175A1.224,1.224,0,0,1,150.4.4c.19,0,.345-.056.345-.124s.144-.092.354-.045c.238.053.317.036.24-.05-.063-.071-.07-.128-.016-.128s.156.107.225.238l.127.238.439-.24c.3-.165.476-.2.555-.11s.156.084.256-.027c.114-.128,1.257-.156,6.1-.153,3.28,0,7.314.038,8.964.079s4.387.1,6.083.142c6.123.133,7.7.182,7.838.241a5.539,5.539,0,0,0,1.853.161.316.316,0,0,1,.346.046c.1.1.171.095.294-.035.09-.1.165-.122.167-.058a13.943,13.943,0,0,0,2.794.1,71.215,71.215,0,0,1,7.541.3,6.5,6.5,0,0,0,1.292.052,41.624,41.624,0,0,1,4.518.255c.183.04.187.084.018.225s-.166.165.023.124c.128-.028.441-.083.7-.122.287-.044.428-.125.369-.212s-.009-.06.1.04c.157.147.371.165,1.12.094a4.021,4.021,0,0,1,1.218.021,2.992,2.992,0,0,0,.761.124c.432.015.438.02.067.068-.311.041-.349.076-.167.156.258.113.041.127-2.306.151a3.749,3.749,0,0,1-1.375-.1ZM152.81.807A.206.206,0,0,0,152.566.7c-.235.1-.174.282.1.282C152.81.98,152.868.912,152.81.807Zm-9.72.4c.172-.223.161-.248-.075-.185s-.246.037-.076-.183l.2-.256.166.258c.19.3.534.339.675.084.053-.1.036-.174-.038-.174a.159.159,0,0,1-.134-.175c0-.142.151-.161.806-.1.55.051.806.033.806-.056,0-.073.264-.131.593-.131.389,0,.554.044.48.127s-.012.09.236,0c.291-.108.333-.1.252.046a.337.337,0,0,1-.246.176.136.136,0,0,0-.149.116c0,.241.3.1.5-.232.232-.389.238-.391.656-.236a.3.3,0,0,1,.218.41c-.045.164-.016.283.064.265a.24.24,0,0,1,.229.079c.049.067-.347.121-.97.133-.963.018-1.069,0-1.235-.258-.179-.274-.8-.393-.8-.155,0,.067.074.091.165.052s.123,0,.07.1a.312.312,0,0,1-.359.1c-.171-.046-.222-.024-.146.062.134.151-.42.262-1.063.214a2.206,2.206,0,0,0-.721.072c-.273.092-.284.076-.106-.155Zm4.559-.435c.047-.053-.02-.1-.149-.1s-.2.043-.15.1a.164.164,0,0,0,.3,0Zm-6.8.457c-.05-.056.058-.13.241-.163q.332-.06.23-.245c-.056-.1-.031-.184.055-.184.229,0,.192.378-.054.549S140.968,1.363,140.845,1.225ZM141.867.9c.047-.085.107-.154.133-.154s.086.069.133.154-.013.154-.133.154S141.82.988,141.867.9Zm.643-.324A1.8,1.8,0,0,1,143.2.4c.4,0,.651.172.4.278a.168.168,0,0,1-.219-.066c-.048-.1-.152-.1-.42,0-.512.19-.835.164-.452-.038ZM140.3.563a.466.466,0,0,1,.319-.009c.133.037.093.064-.1.07-.176.005-.274-.022-.219-.061Zm8.788-.046c-.214-.1-.208-.112.042-.114.16,0,.292.05.292.114,0,.141-.019.141-.333,0Zm-.9-.176c-.079-.144-.037-.154.232-.054.386.144.423.23.1.23A.409.409,0,0,1,148.188.341Z" fill="#f6b47c"/>
</svg>
