<svg xmlns="http://www.w3.org/2000/svg" width="21.131" height="38.021" viewBox="0 0 21.131 38.021">
  <g id="Group_1288" data-name="Group 1288" transform="translate(15194.854 -5703.163)">
    <path id="Path_1111" data-name="Path 1111" d="M3.273,16.016c2.42-.788.877-4,.521-7.68C3.47,5.292,3.123.4,1.963.021S.326,4.4.026,8.613C-.215,12,1.237,16.413,3.273,16.016Z" transform="translate(-15178.543 5724.988) rotate(30)" fill="#f4431a"/>
    <path id="Path_1112" data-name="Path 1112" d="M1.195,15.075c-2.622-.788-.168-3.029.222-6.715C1.771,5.308,2.152.4,3.409.022S5.179,4.408,5.5,8.635C5.759,12.037,3.4,15.472,1.195,15.075Z" transform="matrix(-0.242, 0.97, -0.97, -0.242, -15173.723, 5706.817)" fill="#f4431a"/>
    <path id="Path_1113" data-name="Path 1113" d="M2.4,18.014C4.46,18.013,5.541,5.645,4.3.757,4-.433,2.885.14,2.3.125.071,2.131-.721,13.828.743,16.912A2.479,2.479,0,0,0,2.4,18.014Z" transform="translate(-15177.232 5715.78) rotate(78)" fill="#f4431a"/>
  </g>
</svg>
