<svg xmlns="http://www.w3.org/2000/svg" width="22.387" height="45" viewBox="0 0 22.387 45">
  <g id="Group_1294" data-name="Group 1294" transform="translate(15548.281 -5761)">
    <g id="Group_1291" data-name="Group 1291" transform="translate(-49 78)">
      <path id="Path_1111" data-name="Path 1111" d="M3.271,16.022c2.419-.788.877-4.006.522-7.683C3.469,5.294,3.123.4,1.964.021S.326,4.4.026,8.616C-.216,12.01,1.236,16.419,3.271,16.022Z" transform="translate(-15492.583 5698.95) rotate(-144)" fill="#f4431a"/>
      <path id="Path_1112" data-name="Path 1112" d="M1.2,15.071c-2.623-.789-.169-3.028.219-6.713C1.769,5.306,2.148.4,3.405.021S5.177,4.408,5.5,8.634C5.759,12.035,3.4,15.468,1.2,15.071Z" transform="translate(-15499.281 5716.514) rotate(-70)" fill="#f4431a"/>
      <path id="Path_1113" data-name="Path 1113" d="M2.4,18.016c2.064,0,3.141-12.37,1.9-17.259C3.995-.433,2.88.14,2.3.124.068,2.13-.72,13.828.745,16.913A2.481,2.481,0,0,0,2.4,18.016Z" transform="matrix(-0.105, -0.995, 0.995, -0.105, -15494.813, 5707.925)" fill="#f4431a"/>
    </g>
    <rect id="Rectangle_641" data-name="Rectangle 641" width="22" height="45" transform="translate(-15548 5761)" fill="none"/>
  </g>
</svg>
