<svg xmlns="http://www.w3.org/2000/svg" xmlns:xlink="http://www.w3.org/1999/xlink" width="184" height="184" viewBox="0 0 184 184"><defs><clipPath id="a"><rect width="184" height="184" transform="translate(-15339 12135)" fill="none" stroke="#707070" stroke-width="4"/></clipPath></defs><g transform="translate(15339 -12135)" clip-path="url(#a)"><g transform="translate(-15481 6315)"><g transform="translate(207.763 5893.998)"><path d="M18.383,15.914h2.989c0-3.088.44-6.654-2.405-9.5-.893-.893-1.739-1.6-2.485-2.225C14.51,2.539,13.71,1.8,13.71,0H10.721V22.056a6.723,6.723,0,1,0,2.985,5.463h0V5.756c.942.823,2,1.628,3.144,2.772,1.9,1.9,1.53,4.384,1.53,7.386Z" transform="translate(0)" fill="#537d42"/><path d="M160.2,108.809v23.283a6.722,6.722,0,1,0,2.989,5.588V117.169l19.625-3.887v12.833A6.722,6.722,0,1,0,185.8,131.7v-27.97Z" transform="translate(-134.587 -93.4)" fill="#537d42"/></g><path d="M42.625-4.384C75.207,2.078,113.152,106.924,97.595,133.95S-15.706,141.591-32.73,108.1,10.044-10.845,42.625-4.384Z" transform="matrix(0.545, -0.839, 0.839, 0.545, 151.135, 5900.642)" fill="#537d42" opacity="0.1"/><path d="M7.8,33.368S-.311,45.851.009,65.124,7.8,94.091,7.8,94.091s11.85,23.482,54.905,20.789S118.9,86.3,118.9,86.3s5.086-10.312,4.985-20.933S118.5,43.814,118.5,43.814,100.8,4.965,60.863,3.552,7.941,43.732,7.941,43.732s-.605,2.07-1.206,5.261-1.1,7.759-1.1,7.759,1-4.081,1.862-6.694,1.494-4.009,1.494-4.009S24.972,6.611,61.01,6.611,117.9,47.16,117.9,47.16a42.593,42.593,0,0,1,4.339,18.763c.065,11.055-4.476,17.739-4.476,17.739S103.825,108.681,62.7,111.209,7.941,90.415,7.941,90.415.985,78.59,1.076,65.124,7.866,37.359,8.308,36.552,24.563,11.536,45.157,4.781s45.527,4.75,45.527,4.75S83.669-6.635,50.059,3.141,7.8,33.368,7.8,33.368Z" transform="translate(152.878 5887.89) rotate(-26)" fill="#537d42"/></g></g></svg>