<svg xmlns="http://www.w3.org/2000/svg" xmlns:xlink="http://www.w3.org/1999/xlink" width="278.686" height="442.896" viewBox="0 0 278.686 442.896"><defs><linearGradient id="a" x1="0.047" y1="0.123" x2="0.888" y2="-0.399" gradientUnits="objectBoundingBox"><stop offset="0" stop-color="#ffbbab"/><stop offset="1" stop-color="#eba393"/></linearGradient></defs><g transform="translate(-1491.779 -2817.097)"><path d="M7882.107,3386.1s-58.2,90.375-19.492,153.187c17.18,35.5,50.416,43.157,70.9,45.554,2.713.319,65.445-5.194,61.793-57.051-.539-38.373-34.119-49.95-52.3-53.522-2.922-.576-95.959-11.479-155.117,63.018s-23.371,152.646-23.371,152.646" transform="translate(-6260.001 -432.591)" fill="none" stroke="#f4431a" stroke-linecap="round" stroke-width="4" stroke-dasharray="11 19"/><g transform="translate(1575.739 2817.097)"><path d="M191.631-2.313,49.909,65.1-3.027,53.393Z" transform="translate(3.027 2.431)" fill="#ef927c"/><path d="M125.724-14.382,20.091,60.465,93.526,87.579Z" transform="translate(69.002 14.382)" fill="#f2917a"/><path d="M-6.4,34.588,134.987-32.094,32.876,42.108,4.508,94.2Z" transform="translate(58.607 32.585)" fill="url(#a)"/><path d="M11.077-11.057l21.24,7.841-49.385,43.71Z" transform="translate(80.067 86.611)" fill="#f97b5d"/></g></g></svg>