<svg xmlns="http://www.w3.org/2000/svg" xmlns:xlink="http://www.w3.org/1999/xlink" width="184" height="184" viewBox="0 0 184 184"><defs><clipPath id="a"><rect width="184" height="184" transform="translate(-14817 11881.809)" fill="none" stroke="#707070" stroke-width="1"/></clipPath></defs><g transform="translate(14817 -11881.809)" clip-path="url(#a)"><g transform="translate(-16070.877 6475.351)"><path d="M43.095-1.421c32.581,6.462,70.058,108.345,54.5,135.371S-15.706,141.591-32.73,108.1,10.514-7.882,43.095-1.421Z" transform="translate(1439.936 5477.052) rotate(99)" fill="#7b88a8" opacity="0.1"/><g transform="translate(1319 5414.538)"><path d="M756.54,778.464v-3.4H747.9v3.4A4.325,4.325,0,1,0,756.54,778.464Z" transform="translate(-703.732 -670.516)" fill="#7b88a8"/><path d="M86.3,778.464v-3.4H77.7v3.4A4.308,4.308,0,1,0,86.3,778.464Z" transform="translate(-73.111 -670.516)" fill="#7b88a8"/><path d="M57.4,97.459V85.529a6.638,6.638,0,0,0-5.209-6.6L47.487,66.785a6.414,6.414,0,0,0-6.443-4.323H16.317a6.445,6.445,0,0,0-6.443,4.323L5.167,78.933A6.609,6.609,0,0,0,0,85.529V97.459A3.546,3.546,0,0,0,3.543,101H53.859A3.542,3.542,0,0,0,57.4,97.459Zm-47.777-5.2H9.6a4.092,4.092,0,0,1-.024-8.179H9.65a4.092,4.092,0,0,1-.024,8.179ZM28.7,78.821H13.931A1.813,1.813,0,0,1,12.26,76.3l2.48-5.864c.372-.927,1.093-2.333,2.663-2.356H39.946c1.547.024,1.937.892,2.663,2.356L45.09,76.3a1.813,1.813,0,0,1-1.671,2.522ZM47.5,92.551h-.024a4.091,4.091,0,0,1-.018-8.179h.071a4.092,4.092,0,0,1-.03,8.179Z" transform="translate(0)" fill="#7b88a8"/></g><path d="M-368.434,39.471s-8.109,12.483-7.789,31.757,7.789,28.967,7.789,28.967,11.85,23.482,54.906,20.789,56.2-28.582,56.2-28.582,5.086-10.312,4.985-20.933-5.391-21.552-5.391-21.552-17.7-38.849-57.636-40.261-52.922,40.18-52.922,40.18-.605,2.07-1.206,5.261-1.1,7.759-1.1,7.759,1-4.081,1.862-6.694,1.494-4.009,1.494-4.009,15.984-39.438,52.021-39.438,56.89,40.549,56.89,40.549a42.593,42.593,0,0,1,4.339,18.763c.065,11.055-4.476,17.739-4.476,17.739s-13.938,25.018-55.059,27.547-54.763-20.794-54.763-20.794-6.956-11.825-6.864-25.29,6.789-27.765,7.231-28.572,16.255-25.016,36.849-31.771,45.527,4.75,45.527,4.75-7.015-16.166-40.625-6.39S-368.434,39.471-368.434,39.471Z" transform="translate(1656.542 5589.806) rotate(28)" fill="#7b88a8"/></g></g></svg>