<svg xmlns="http://www.w3.org/2000/svg" xmlns:xlink="http://www.w3.org/1999/xlink" width="184" height="184" viewBox="0 0 184 184"><defs><clipPath id="a"><rect width="184" height="184" transform="translate(-1956 15018)" fill="none" stroke="#707070" stroke-width="4"/></clipPath></defs><g transform="translate(1956 -15018)" clip-path="url(#a)"><g transform="translate(-2966.035 5900.073)"><g transform="translate(1069.799 9128.025)"><path d="M756.54,778.464v-3.4H747.9v3.4A4.325,4.325,0,1,0,756.54,778.464Z" transform="translate(-703.732 -670.516)" fill="#537d42"/><path d="M86.3,778.464v-3.4H77.7v3.4A4.308,4.308,0,1,0,86.3,778.464Z" transform="translate(-73.111 -670.516)" fill="#537d42"/><path d="M57.4,97.459V85.529a6.638,6.638,0,0,0-5.209-6.6L47.487,66.785a6.414,6.414,0,0,0-6.443-4.323H16.317a6.445,6.445,0,0,0-6.443,4.323L5.167,78.933A6.609,6.609,0,0,0,0,85.529V97.459A3.546,3.546,0,0,0,3.543,101H53.859A3.542,3.542,0,0,0,57.4,97.459Zm-47.777-5.2H9.6a4.092,4.092,0,0,1-.024-8.179H9.65a4.092,4.092,0,0,1-.024,8.179ZM28.7,78.821H13.931A1.813,1.813,0,0,1,12.26,76.3l2.48-5.864c.372-.927,1.093-2.333,2.663-2.356H39.946c1.547.024,1.937.892,2.663,2.356L45.09,76.3a1.813,1.813,0,0,1-1.671,2.522ZM47.5,92.551h-.024a4.091,4.091,0,0,1-.018-8.179h.071a4.092,4.092,0,0,1-.03,8.179Z" transform="translate(0)" fill="#537d42"/></g><path d="M7.8,33.368S-.311,45.851.009,65.124,7.8,94.091,7.8,94.091s11.85,23.482,54.905,20.789S118.9,86.3,118.9,86.3s5.086-10.312,4.985-20.933S118.5,43.814,118.5,43.814,100.8,4.965,60.863,3.552,7.941,43.732,7.941,43.732s-.605,2.07-1.206,5.261-1.1,7.759-1.1,7.759,1-4.081,1.862-6.694,1.494-4.009,1.494-4.009S24.972,6.611,61.01,6.611,117.9,47.16,117.9,47.16a42.593,42.593,0,0,1,4.339,18.763c.065,11.055-4.476,17.739-4.476,17.739S103.825,108.681,62.7,111.209,7.941,90.415,7.941,90.415.985,78.59,1.076,65.124,7.866,37.359,8.308,36.552,24.563,11.536,45.157,4.781s45.527,4.75,45.527,4.75S83.669-6.635,50.059,3.141,7.8,33.368,7.8,33.368Z" transform="matrix(0.998, 0.07, -0.07, 0.998, 1043.818, 9150.323)" fill="#537d42"/><path d="M78.345.347c32.581,6.462,70.527,111.308,54.969,138.334S20.013,146.322,2.99,112.834,45.764-6.114,78.345.347Z" transform="translate(1162.637 9120.323) rotate(73)" fill="#537d42" opacity="0.1"/></g></g></svg>