<svg xmlns="http://www.w3.org/2000/svg" width="58.906" height="67.729" viewBox="0 0 58.906 67.729"><g transform="translate(-33.347)"><path d="M379.609,186.017H377.5v8.456h.7a4.228,4.228,0,0,1,4.228,4.228v9.393a4.228,4.228,0,0,1-4.228,4.228h-.7v8.456h2.106A11.275,11.275,0,0,0,390.883,209.5V197.292A11.275,11.275,0,0,0,379.609,186.017Z" transform="translate(-298.63 -161.41)" fill="#f4431a"/><path d="M70.274,2.868A7.711,7.711,0,0,0,65.927,3.9a2.74,2.74,0,0,1-3.461-.622,9.166,9.166,0,0,0-14.043,0,2.74,2.74,0,0,1-3.461.622A7.738,7.738,0,0,0,35.8,16.246h8.639V27.417a4.228,4.228,0,1,0,8.456,0V16.246H75.086A7.737,7.737,0,0,0,70.274,2.868Z" transform="translate(0)" fill="#f4431a"/><path d="M74.172,160.017a8.2,8.2,0,1,1-16.393,0v-7.2H53.291V196.1a4.228,4.228,0,0,0,4.228,4.228H87.982A4.228,4.228,0,0,0,92.21,196.1V152.815H74.172Z" transform="translate(-17.306 -132.6)" fill="#f4431a"/></g></svg>