<svg xmlns="http://www.w3.org/2000/svg" width="151.667" height="127.691" viewBox="0 0 151.667 127.691"><g transform="translate(-367.333 -6217.309)"><path d="M-5.736-14.6c3.9-28.022,18.358-43.778,18.358-43.778S26.745-72.966,56.3-71.6V-43.31S40.729-44.566,34.12-33.738,29.859,0,29.859,0H61V56H0S-9.64,13.427-5.736-14.6Z" transform="translate(458 6289)" fill="rgba(241,64,20,0.09)"/><path d="M-5.736-14.6c3.9-28.022,18.358-43.778,18.358-43.778S26.745-72.966,56.3-71.6V-43.31S40.729-44.566,34.12-33.738,29.859,0,29.859,0H61V56H0S-9.64,13.427-5.736-14.6Z" transform="translate(374 6289)" fill="rgba(241,64,20,0.09)"/></g></svg>