<svg xmlns="http://www.w3.org/2000/svg" width="151.667" height="127.691" viewBox="0 0 151.667 127.691"><path d="M60.069-1.1c-3.9,28.022-18.358,43.778-18.358,43.778S27.589,57.275-1.962,55.91V27.619S13.6,28.875,20.214,18.047s4.26-33.738,4.26-33.738H-6.667v-56h61S63.973-29.118,60.069-1.1Z" transform="translate(6.667 71.691)" fill="rgba(241,64,20,0.09)"/><path d="M60.069-1.1c-3.9,28.022-18.358,43.778-18.358,43.778S27.589,57.275-1.962,55.91V27.619S13.6,28.875,20.214,18.047s4.26-33.738,4.26-33.738H-6.667v-56h61S63.973-29.118,60.069-1.1Z" transform="translate(90.667 71.691)" fill="rgba(241,64,20,0.09)"/></svg>