<svg id="Group_628" data-name="Group 628" xmlns="http://www.w3.org/2000/svg" width="68.543" height="79.564" viewBox="0 0 68.543 79.564">
  <path id="Path_1111" data-name="Path 1111" d="M7.9.059c5.817,1.888,2.092,9.645,1.22,18.5C8.327,25.9,7.472,37.687,4.681,38.606S.763,28.068.06,17.912C-.507,9.74,3.005-.888,7.9.059Z" transform="translate(57.581 0) rotate(9)" fill="#537d42"/>
  <path id="Path_1112" data-name="Path 1112" d="M2.878.074c-6.322,1.888-.4,7.277.55,16.136.862,7.336,1.792,19.124,4.825,20.043s4.258-10.538,5.022-20.694C13.891,7.387,8.2-.873,2.878.074Z" transform="translate(0 64.221) rotate(-65)" fill="#537d42"/>
  <path id="Path_1113" data-name="Path 1113" d="M5.79,0c4.979,0,7.563,29.716,4.561,41.464-.728,2.859-3.416,1.484-4.816,1.522C.154,38.169-1.734,10.066,1.8,2.653A5.992,5.992,0,0,1,5.79,0Z" transform="translate(12.737 23.712) rotate(-39)" fill="#537d42"/>
</svg>
