<svg xmlns="http://www.w3.org/2000/svg" width="98.671" height="18.007" viewBox="0 0 98.671 18.007"><g transform="translate(98.671) rotate(90)"><path d="M17.963,82c-1.22,6.1-4.358,11.331-8.193,16.039a2.155,2.155,0,0,1-3.312-.349C3.32,92.112.7,86.01.007,79.56c-.174-1.918,2.789-2.092,3.138-.349a64.436,64.436,0,0,0,5.23,13.6,30.7,30.7,0,0,0,2.441-4.01c-1.22,1.22-4.01.7-4.01-1.569C6.632,58.815.182,29.528,5.237,1.461c.349-2.266,4.184-1.743,4.01.523C6.98,30.574,11.339,58.64,11.513,87.231v.349a27.007,27.007,0,0,0,2.266-6.625C14.128,78.165,18.486,79.211,17.963,82Z" transform="translate(0 0)" fill="#f4431a"/></g></svg>