<svg xmlns="http://www.w3.org/2000/svg" width="28.797" height="9.065" viewBox="0 0 28.797 9.065"><g transform="translate(28.797) rotate(90)"><path d="M9.043,8.392A18.649,18.649,0,0,0,4.918.318,1.085,1.085,0,0,0,3.251.494,24.221,24.221,0,0,0,0,9.62c-.088.965,1.4,1.053,1.58.176A32.437,32.437,0,0,1,4.216,2.951,15.454,15.454,0,0,1,5.445,4.969a1.191,1.191,0,0,0-2.019.79c-.088,14.3-1.769,8.174.776,22.3.176,1.141,2.106.878,2.018-.263C5.08,13.406,5.708,20.151,5.8,5.759V5.583A13.6,13.6,0,0,1,6.937,8.918C7.112,10.322,9.306,9.8,9.043,8.392Z" transform="translate(0 0)" fill="#f4431a"/></g></svg>