<svg xmlns="http://www.w3.org/2000/svg" width="95.183" height="17.371" viewBox="0 0 95.183 17.371"><g transform="translate(95.183 -141.588) rotate(90)"><path d="M158.917,16.08c-1.177-5.886-4.2-10.931-7.9-15.472a2.079,2.079,0,0,0-3.2.337c-3.027,5.381-5.55,11.267-6.222,17.489-.168,1.85,2.691,2.018,3.027.337a62.159,62.159,0,0,1,5.045-13.117,29.616,29.616,0,0,1,2.355,3.868c-1.177-1.177-3.868-.673-3.868,1.514-.168,27.411-6.39,55.663-1.514,82.739.336,2.186,4.036,1.682,3.868-.5-2.186-27.58,2.018-54.654,2.186-82.234V10.7a26.052,26.052,0,0,1,2.186,6.39C155.217,19.78,159.421,18.771,158.917,16.08Z" fill="#f4431a"/></g></svg>