<svg xmlns="http://www.w3.org/2000/svg" width="98.279" height="125.431" viewBox="0 0 98.279 125.431"><path d="M44.434,43.957c-8.833-4.749-15.177-8.1-15.177-8.1S17,32.224,17,33.881s9.472,9.68,9.472,9.68,6.461,3.323,15.47,7.885c-1.871,5.559-3.818,11.185-5.806,16.654q-.589,1.487-1.168,2.923C22.438,64.236,12.256,58.856,12.256,58.856S0,55.224,0,56.88s6.667,7.564,6.667,7.564S18.15,70.9,31.928,78.378c-7.762,18.353-13.751,29.354-16.256,36.72-1.673,4.92-1.769,10.333-.788,10.333,2.051,0,12.567-19.419,22.493-44.108,4.681,2.519,9.481,5.073,14.073,7.467-6.636,17.093-7.093,14.917-9.184,21.065-1.674,4.92-.979,12.593,0,12.593,1.166,0,5.687-6.222,10.438-16.9,1.733-3.895,3.513-8.423,5.346-13.356,4.879,2.48,9.284,4.634,12.737,6.178,4.216,1.886,10.491,1.7,10.491,1.372s-2.494-3.793-7.157-6.667c-3.573-2.2-8.285-4.941-13.514-7.9,2.359-6.583,4.808-13.638,7.358-20.714,7.952,3.908,15.457,7.513,20.821,9.912,4.216,1.885,9.491,2.7,9.491,2.372s-2.494-3.793-7.157-6.667c-5.193-3.2-12.785-7.533-20.886-12.038C80.26,28.614,81.974,7.456,79.547,7.456c-1.123,0-4.8,7.788-7.291,14.415-1.747,7.47-3.006,17.284-8.4,32.638-4.884-2.686-9.776-5.346-14.277-7.779C57.259,21.9,61.994,0,59.995,0,58.23,0,52.168,20.464,44.434,43.957Zm-2,24.143c1.673-4.618,3.28-9.316,4.8-13.981,4.5,2.267,9.375,4.713,14.255,7.136-2.915,8.329-5.312,14.974-7.3,20.312-4.565-2.543-9.319-5.156-13.914-7.66Q41.369,71.033,42.431,68.1Z" transform="translate(98.279 125.431) rotate(180)" fill="#537d42"/></svg>