<svg xmlns="http://www.w3.org/2000/svg" width="114.508" height="103.414" viewBox="0 0 114.508 103.414"><path d="M75.71,63.272c1.339,0-.838-8.523-10.964-22.453C53.107,24.808,42.458,13.643,21.952-2.372S-27.975-34.4-27.975-29.448c0,1.8,22.478,14.432,46.1,32.1C32.507,13.405,47.39,26.426,57.615,39.631,67.627,51.043,74.5,63.272,75.71,63.272Z" transform="translate(38.441 40.142)" fill="#f4431a"/><path d="M14.53,52.579c1.98,0,3.585-2.407,3.585-5.377S18,43.938,14.53,35.806,6.29,17.066,4.237,14.672c-.206-.241-3.244-3.347,5.893-1.728,8.007,1.42,28.175,7.565,35.052,7.925,12.015.63,10.313-3.918,8.433-6.2,0,0-19.152-3.023-34.24-6.6A239.806,239.806,0,0,1-6.736.348c-1.495-1.186-5.207.889-6.5,2.844a4.219,4.219,0,0,0,0,4.166A102.894,102.894,0,0,1-1.454,23.714C3.469,32.265,8.772,45.3,8.772,45.921,8.772,48.891,12.551,52.579,14.53,52.579Z" transform="translate(13.814 0)" fill="#f4431a"/></svg>