<svg xmlns="http://www.w3.org/2000/svg" width="28.797" height="9.065" viewBox="0 0 28.797 9.065"><g transform="translate(28.797) rotate(90)"><path d="M9.043,20.405a18.649,18.649,0,0,1-4.125,8.074A1.085,1.085,0,0,1,3.251,28.3,24.221,24.221,0,0,1,0,19.177c-.088-.965,1.4-1.053,1.58-.176a32.437,32.437,0,0,0,2.633,6.845,15.455,15.455,0,0,0,1.229-2.018,1.191,1.191,0,0,1-2.019-.79c-.088-14.3-1.769-8.174.776-22.3C4.378-.406,6.308-.142,6.22,1,5.08,15.391,5.708,8.646,5.8,23.038v.176a13.6,13.6,0,0,0,1.141-3.335C7.112,18.475,9.306,19,9.043,20.405Z" transform="translate(0 0)" fill="#f4431a"/></g></svg>