<svg xmlns="http://www.w3.org/2000/svg" width="1920.015" height="80.606" viewBox="0 0 1920.015 80.606"><path d="M237.806,96V74.534c.293-.007.617-.007.977,0a5.57,5.57,0,0,1,2.4,1.077c1.192.649,3.09,1.06,6.5.9,3.208-.147,4.487-.633,4.826-1.341.442-.9-.485-1.685-3.016-2.389-4.017-1.119,1.839-1.374,3.737-1.927,2.913-.847,5.135-.03,6.769.343,4.311.976,8.092,1.735,14.227.473,1.737-.355,5.68-.167,8.491-.318,2.884-.159,5.4-.478,5.267-1.27-.309-1.969,4.341-3.055,12.462-3.8,6.93-.642,13.213-1.618,19.6-2.51,1.045-.143,1.986-.817,1.531-.913-9.328-1.94-1-2.992,4.311-4.157,5.341-1.169-3.752-1.717-2.192-2.7a23.84,23.84,0,0,1,2.266-1.094c.823.122,1.662.23,2.457.356,4.017.658,7.15,1.425,7.459,2.606.044.167,1.207.322,1.854.481,1.192-.23,3.384-.461,3.428-.7a37.34,37.34,0,0,0-.058-5.136c0-1.207,1.177-1.328,6.547-.809,6.091.591,12.712,1.048,11.521,2.979-.132.193.338.415.677.607.765.448,5.871.771,7.475.591,2.516-.285,2.707-.524.779-1a7.03,7.03,0,0,1-2.751-1.115c-1.692-1.789.5-2.4,9.711-2.87a46.082,46.082,0,0,0,5.268-.385c1.147-.235,1.912-.729,1.706-1.082-.353-.641-1.516-1.119-5.282-.569-2.265.335-5.194.464-7.9.619a9,9,0,0,1-2.325-.322c-.324-.1-.03-.331.28-.469.427-.189,1.147-.344,1.722-.516,4.017-1.228,10.328-1.442,15.758-1.073s4.09,1.723,4.3,2.77c.044.205,2.192.414,3.517.561a5.069,5.069,0,0,0,1.75-.469c.471-.628.265-1.3,1.075-1.9a10.1,10.1,0,0,1,3.737-.825c2.9-.181,5.871.033,7,.707,1.221.738,1.089,1.8,6.694.914,1.589-.252,2.913-.579,4.459-.839,6.4-1.085,6.547-1.106,13.713.876,1.9.524,3.148.642,3.973.009,1.442-1.094,3.192-1.986,9.549-1.823,2.392.06,4.816.017,7.243-.027a93.432,93.432,0,0,1,12.782.35c1.8.218,3.944,1.273,6.268.172,1.206-.571.838-1.232-1.663-1.726-2.325-.461-3.31-.976-.235-1.467a46.105,46.105,0,0,1,6.5-.842,101.443,101.443,0,0,0,13.684.9c8.312.118,10.064.017,11.476-1.885.868-1.173,3.385-1.914,6.9-2.681a8.316,8.316,0,0,1,4.752.029c1.163.339,3.091.554,4.15.905,2.074.687,3.752,2.036,5.635,2.04,7.4.013,13.4,1.224,21.276.868,6.327-.285,8.4.469,7.415,2.07-.323.527-1.868.415-2.28.368.117.017.411.055,1.044.159,4.238.7,9.432,1.128,14.214,1.672a10.775,10.775,0,0,0,2.31-1.131c1.015-1.144-1.457-2.032-4.312-2.946-.485-.159,2.929-.893,4.517-1.366a8.377,8.377,0,0,1,4.679-.079c4.3,1.048,10.9,1.663,12.772,3.172,4.605-.063,6.871-.724,5.341-1.579-2.369-1.308-6.459-2.464-9.049-3.758-1.324-.662-1.369-1.445-1.81-2.192,6,.175,7.8,1.655,13.021,2.07a19.4,19.4,0,0,0,2.266.071c.78-.36,1.9-.75,1.81-1.119-.25-1.044-6.739-1.6-5.076-2.8a8.982,8.982,0,0,1,3.487-.8,26.634,26.634,0,0,1,5.194.289c3.428.641,1.884,1.575,2.236,2.4.486,1.16-1.045,2.929,8.49,1.337,7.828,1.144,15.493,2.351,23.586,3.4,2.516.327,3.634,1.78,8.107.787,1.618-.364.779-1.219,1.486-1.827a13.155,13.155,0,0,1,2.516-1.093c1.075.3,2.252.574,3.149.893.5.172.25.453.795.608a22.44,22.44,0,0,0,9.667.369c2.207-.419,4.325-.868,6.253-1.35,1.9-.469,1.31-1.608-.839-1.655a25.538,25.538,0,0,0-4.635.437c-2.147.393-3.428.373-4.62-.172s-.309-1.6,1.574-1.668c10.506-.4,20.982-.457,31.37.172,3.149.188,6.459,1.324,5.591,1.851-1.25.754-6.091,1.027-10.976.645a51.985,51.985,0,0,0-5.355-.23,13.679,13.679,0,0,0-3.561.579,16.549,16.549,0,0,0,5.062,2.267c2.957.72,8.387,1.056,10.358,1.848,1.781.716,2.487,1.592,5.8,2.086a46.669,46.669,0,0,0,7.637.713c4.826-.164,8.4-1.442,14.655-.2a58.574,58.574,0,0,0,9.276.28c1.574-.021,3.147-.041,4.584-.029.765-1.337,7.43-1.048,10.358-1.76,1.1-.265,1.707-.8,1.31-1.152-.927-.814-3.266-.654-6.017-.306a57.227,57.227,0,0,1-7.563.578c-5.386-1.42-9.815-.293-14.729.063a43.4,43.4,0,0,1-5.238-.356,8.93,8.93,0,0,1,2.163-.959,38.459,38.459,0,0,1,9.814-1.236q3.695,0,7.393,0c6.34,0,12.683,0,19.018.045,12.595.1,13.2.1,19.937-1.957,1.81-.549,3.9-.612,3.811.008-.28,2.171,9.8,1.7,13.846,2.761,3.722.977,8.372,1.789,12.742,2.644,1.427.276,3.31.092,3.825-.465.589-.616.368-1.27.559-1.906.221-.763-1.412-1.786,2.973-2.075,1.5-.1,4.576.7,6.488,1.177a20.775,20.775,0,0,0,9.623.147c1.281-.251,3.678-.213,5.3-.41a31.358,31.358,0,0,0,3.37-.734c-1.663-.18-3.37-.339-4.973-.54-1.56-.193-3-.424-4.5-.642,1.663-.188,3.267-.5,4.989-.535,8.46-.185,9.681.029,11.608,1.805,1.84,1.693,3.385,1.857,7.961,1,6.179-1.153,11.093-2.389,10.372-4.333-.088-.256,2.31-.817,2.9-.776a33.14,33.14,0,0,1,4.664.733c3,.642,4.253,1.366,2.266,2.275-1.045.486-5.223.86-2.1,1.534a73.1,73.1,0,0,0,9.005,1.437,13.154,13.154,0,0,0,6.4-.926c4.635-1.718,4.973-1.768,11.845-.879,3.516.448,6.474.959,10.24.284a31.573,31.573,0,0,1,10.182-.674c2.09.276,2.707,1.064,4.15,1.6,1.795.671,5.017.65,7.68.5a4.982,4.982,0,0,0,2.885-.981c.471-.624-.206-1.291.25-1.919a11.848,11.848,0,0,1,2.648-1.739c2.781.327,3.414.88,3.135,1.5-.971,2.133,7.886,2.778,12.712,4.023,3.266.838,4.811-.131,6.856-.415,4.856-.675,3.958-1.8,4.341-2.816,2.81.05,5.767.008,8.386.188,7.784.541,10.432.5,13.389-.586,1.427-.52,1.972-1.156,3.281-1.7.971-.394,3.34-.273,3.546.306.5,1.32,3.782,1.822,9.24,1.957a14.634,14.634,0,0,1,2.3.39c-1.324.226-2.545.491-3.973.675-1.56.205-3.326.339-4.988.5a25.591,25.591,0,0,0,3.105.759c2.353.336,4.958.587,7.474.872,6.194.712,8.96.477,14.463-1.011,1.824-.494,1.692-.608-.765-.959-9.034-1.291-8.916-1.319-2.663-3.452a.533.533,0,0,0,.427-.448c6.165.322,11.035,1.584,18.3,1.147a39.2,39.2,0,0,1,8.787.6,32.639,32.639,0,0,0,6.633.632c7.975-.411,15.685-1.245,23.837-1.693-.883-.348-2.354-.683-2.531-1.048-.53-1.048,6.224-2.406,10.726-2.163a12.827,12.827,0,0,1,4.061.733c1.075.8,1.045,1.676,2.163,2.477a26.131,26.131,0,0,0,4.208.393c-.28-1.512,2.619-2.5,9.932-2.853a4.56,4.56,0,0,0,2.1-.809c1.618.13,3.31.23,4.826.4,12.462,1.437,16.17,1.115,19.246-1.668a4.42,4.42,0,0,1,2.369-1.068,30.49,30.49,0,0,1,5.356-.256c2.575.117,3.193.544,1.618.9-5.782,1.287.971,1.676,3.472,2.363,1.575.432,4.224.247,3.576-.276-3.34-2.715,12.286-2.866,13.463-4.927a8.777,8.777,0,0,1,1.928-.465,19.119,19.119,0,0,1,3.192.876c2.59,1.617-4.576,2.627-5.517,4.035a124.238,124.238,0,0,0,22.35,1.257c4.517-.18,6.047.419,6.856,1.186,6.974-.863,6.68-.918,7.607-2.807.456-.939,3.179-1.823,3.708-2.766.28-.495-2.089-.554-4.061-.386-2.148.185-3.355,1.228-6.827.4-2.575-.611-6.3-1.089-5.753-2.074a3.448,3.448,0,0,1,2.383-1.01c6.21-.327,14.1.071,15.273-2.087.148-.251,2.884-.59,4.517-.62,6.8-.113,13.625-.151,20.423-.13a4.57,4.57,0,0,1,2.207.8c-9.034,1.7,0,3.034,1.854,4.484,1.722,1.349,6.724,1.089,11.153,1.081a5.849,5.849,0,0,0-1.648-1.027c-1.383-.536-3.37-1.173.751-1.362,2.328-.108,4.766-.105,7.2-.1,2.5,0,5.008.005,7.394-.111,4.179-.2,7.21-1.371,12.742-.348,1.177.218,6.047-.519,9.387-.863a6.715,6.715,0,0,1,2.62-.947,84.563,84.563,0,0,1,11.153-.139c6.179.67,11.2,1.68,10.284,3.515-.677,1.371,2.723,1.287,6.4.591,2.148-.41,3.458-.407,4.605.167a14.985,14.985,0,0,0,3.62,1.651,30.067,30.067,0,0,0,5.4.147c3.031-.112,3.3-.456.913-.841-7.062-1.153-.471-3.453-7.931-4.618a19.048,19.048,0,0,1,3.944-1.425c3.811-.939,9.151-.67,13.712-.478,1.736.071,4.135.994,3.826,1.454-.6.9-3.87.574-5.9.176-2.163-.424-3.326-.445-4.355.087-1.84.934-.162,1.651,3.1,2.221,1.927.339,3.369,1.2,6.841.527a62.3,62.3,0,0,1,13.669-.808c7.313.243,15.17.272,17.185.029,8.284-1,8.181-.993,5.738-3.8-.515-.608-.1-1.261.176-1.885a4.837,4.837,0,0,1,1.884-.473,7.56,7.56,0,0,1,1.868.151c1.339,2.083,10.712,2.12,16.45,3.075a9.311,9.311,0,0,0,1.824-.356c.456-.167.706-.394.677-.59-.294-1.7-9.785-2.007-11.271-3.528-.192-.205-.294-.486.176-.633a14.424,14.424,0,0,1,3.267-.616c5.223.508,10.226,1.119,15.36,1.668a51.73,51.73,0,0,0,5.37.386c3.149,0,4.841-.449,5.341-1.1,11.005-.31,20.29.042,24.027,2.816.735.553,2.9,1.048,4.826,1.479a20.233,20.233,0,0,0,4.385.369c1.236-.2,2.06-.666,2.148-1.035a19.064,19.064,0,0,0,.162-3.658l11.211-1.156a9.049,9.049,0,0,1,.148,1.072c.074,1.249-1.325,2.623,7.7,2.758,2.987.041,3.62.813,4.443,1.437.736.562,4.281,1.16,4.915.239,1-1.462,5.37-2.2,9.431-3.075,3.119-.666,3.354-1.462,3.193-2.321-.118-.6.191-1.4,3.8-1.128,3.148.235,7.223.817,6.252,1.748-.706.662-6.106,1.349.839,1.684,6.313.3,11.065,1.71,18.319,1.27.869-1.3-.927-2.384-4.738-3.427-1.354-.373,1.265-1.568,2.045-1.379,4.209,1,7.635.556,11.111.109a38.968,38.968,0,0,1,7.4-.457c4.138.229,8.569.2,13.018.178,2.478-.014,4.962-.028,7.4,0a26.836,26.836,0,0,1,3.855.595c-1.192.339-2.221.708-3.6,1.005-5.929,1.282-12.359,1.031-18.583.155-2.236-.314-3.664-.44-4.385,0-.617.382-1.31.876-.707,1.211,2.237,1.256,6.533,1.7,12.713,1.152a88.575,88.575,0,0,1,13.948-.079c9.5.595,11.506.147,9.917-2.011-.118-.167-.162-.473.088-.49a45.491,45.491,0,0,1,5.164-.218c3.09.176,3.34.885,4.693,1.417a22.524,22.524,0,0,0,11.535.41c2.943-.8,4.959-1.76,7.43-2.64a4.723,4.723,0,0,1,3.826.2c.662.386.662.83,1.207,1.228.794.574,1.074,1.4,2.869,1.639,3.766.482,8.4.645,12.667.942.486-.393,1.648-.813,1.325-1.173-.6-.691-3.384-.855-6.371-.968a29.266,29.266,0,0,1-4-.658,11.481,11.481,0,0,1,2.178-.414,47.26,47.26,0,0,0,6.223-.481c3.651-.446,7.324-.894,11.6.192a37.323,37.323,0,0,0,5.473-.117c2.516-.155,2.384-.461.472-.931-2.164-.536-2.09-1.228,1.412-1.345,4.767-.164,9.843-.176,14.611-.017,9.446.314,9.535.386,10.108-1.064.236-.608.206-1.4,3.738-1.136,3.119.235,7.328.893,5.885,1.785-1.28.8-4.811,1.521,2.119,1.589,4.385.046,10.138.36,11.374-1.19a10.529,10.529,0,0,1,1.662-1.861c.706-.582,1.81-.464,4.119-.092,3.664.591,8.843.83,11.713,1.538,2.148.532,1.648,1.575,6.518,1.609,2.266-2.54,14.14-2.347,21.482-3.436.677-.1,3.09.481,4.914.612a61.418,61.418,0,0,0,13.831-.2,91.272,91.272,0,0,1,24.616-.184c6.636.759,4.944-.516,6.224-1.106a5.929,5.929,0,0,1,1.986-.445c6.518.155,3.193,1.672,6.606,2.321,3.473.654.516.943-2.089,1.191-1.75.167-3.472.355-5.208.536,8.181,2.9,2.457,6.168,5.238,9.214a5.71,5.71,0,0,0,1.957.461,15.905,15.905,0,0,0,2.737.084c10.108-.939,16.259-2.837,23-4.585a17.761,17.761,0,0,0-2.354-.373c-2.677-.1-5.4-.142-8.107-.2V23.808c5.827-.737,7.945-.759,15.141-.159.853.072,1.839.072,2.766.08,1.766.021,3.532.025,5.312.033.765-.985,4.223-1.387,7.945-1.173,4.4.251,8.357.871,12.462,1.357a16.648,16.648,0,0,1,2.03.448c-1.412.23-2.751.478-4.223.683-1.574.213-3.266.385-4.914.578a3.851,3.851,0,0,0,1.25.419c7.048.448,12.772,1.705,20.629,1.655-.633,1.936,5.694,3.306,9.255,4.852,2.281.989,2.913,1.857,2.589,2.857-4.178.721-8.43,1.421-12.506,2.166-3.384.625-5.841,1.53-10.667,1.718a4.53,4.53,0,0,1-1.9,1.027c-6.916,1.7-7.254,1.789-16.656.7a32.421,32.421,0,0,0-12.579.558c-1.222.306-2.075.683-3.091,1.026,1.692.176,3.4.356,5.106.533.839.087,1.766.147,2.545.251,2.1.293,1.81.612-.927.851-9.8.855-19.392,1.743-26.823,3.512-2.994.712-6.839.619-10.706.527-2.042-.049-4.09-.1-6.023-.028-4.179.15-7.46.993-4.973,1.759,4.959,1.534,2.855,1.923-4.281,2.552-7.651.68-7.533,2.275-1.84,4.052a6.256,6.256,0,0,0,4.326.168,18.773,18.773,0,0,1,2.369-.377c4.237-.47,9.284-1.475,12.624-1.257,4.972.322,8.724,1.529,13.095,2.338,4.135.762-7.24,1.885.839,2.363a73.633,73.633,0,0,1,12.08,1.659c2.781.6,5.311,1.3,8.563,1.743,4.4.595,4.046-.4,4.576-.888.647-.595.559-1.232,1.045-1.84a7.824,7.824,0,0,1,1.809-.456,7.435,7.435,0,0,1,1.8.5c.9,1.139,2.693,1.99,9.093,1.911a113.9,113.9,0,0,1,11.609.147c4.37.444,7.872,1.223,12.463.2,1.912.65,3.751,1.3,5.738,1.945a45.872,45.872,0,0,0,17.554,1.349c6.341-.872,9.99-.281,15.007.113,1.233.1,2.658.092,4.072.088a42.663,42.663,0,0,1,4.522.139c4.163.469,7.725,1.638,12.8.9a71.3,71.3,0,0,0,12.286-2.7c1.147-.407-2.178-1.408-3.311-2.15-.279-.184-.1-.423.177-.616.912-.607,2.281-.658,4.223-.243,2.81.6,5.885,1.136,8.681,1.731,5.694,1.206,5.665,1.642.014,3.154-.617.168-1.5.281-2.119.445-4.5,1.2-4.487,1.2,2.1,1.994.839.1,1.692.21,2.443.339,3.017.524,6.562,1.211,7.578-.264,1.706-2.48,12.727-2.372,19.407-3.444,4.032-.641,3.532.444,4.561.9a29.555,29.555,0,0,0,2.929.885,25,25,0,0,1,11.874.248c2.986.708,2.251,1.562,2.9,2.384.471.586,2.369,1.114,3.59,1.671.721.331,1.383.671,2.06,1.006,2.413-.265,4.841-.524,7.224-.8,3.134-.369,4.444-1.483,9-1.211,3.65.218,7.049.65,10.52,1.006,2.825.289,2.708.578-.161.867-6.062.612-12.124,1.228-18.128,1.86-.6.063-1.382.331-1.221.394a7.282,7.282,0,0,0,2.134.419c6.665.112,13.772.649,19.628-.453,6.033-1.131,9.976-.147,15.448.289,7,.554,9.079,1.362,8.725,2.791-.191.759,2.31,1.362,4.944,1.307,3.479-.071,6.977-.044,10.48-.017a185.93,185.93,0,0,0,21.184-.64c4.694-.508,9.682.9,14.919,1.219-.794.352-1.486.721-2.4,1.057-3.148,1.152-1.986,1.931,3.782,2.325.618.662,2.633,1.274,5.371,1.085,6.253-.436,12.667-.959,18.009-1.764,5.179-.783,6.385.176,8.784.608,4.311.784,3.634,1.931,3.3,2.955-.486,1.512,3.767,2.337,8.342,3.121,5.239.9,8.578-.126,12.537-.658.275-.037.6-.064.946-.082V96Zm4.022-13.564c2.3.2,4.547.423,6.916.549a8.956,8.956,0,0,0,1.854-.729l-4.547-.394Zm19.364-5.46a14.235,14.235,0,0,0-1.78.34l3.1.247.176-.4c-.47-.061-1.062-.188-1.408-.188C261.251,76.972,261.22,76.974,261.192,76.976ZM1988.14,72.9c-4,.21-6.93,1.048-5.636,1.643a12.657,12.657,0,0,0,3.782.691c4.193.151,7.151-.193,7.106-1.253a9.857,9.857,0,0,0-.176-1.119c.161,0,.323,0,.485,0l-.5-.109.014.1c-.871,0-1.753-.014-2.623-.014C1989.757,72.844,1988.932,72.854,1988.14,72.9ZM272.006,74.911l1.692.222c.309-.067.735-.13,1.089-.193s.617-.126.647-.193c.03-.134-1-.281-1.545-.424ZM1918.677,69.33c-3.179.44-1.575,1-.574,1.508a3.361,3.361,0,0,0,.765.2c.338.054.707.109,1.015.167l2.384-.967c-.589-.344-1.148-.688-1.84-1.019a.253.253,0,0,0-.056,0C1920.123,69.213,1919.131,69.267,1918.677,69.33Zm-26.456-.276a8.628,8.628,0,0,0-1.75.23c-.574.122-1.133.272-1.706.381,1.677.134,3.354.373,5,.369a22.221,22.221,0,0,0,3.487-.562c-1.755-.158-3.358-.419-4.889-.419Zm-26.911.658L1867,69.9l1.84-.327-1.648-.373ZM350.061,63.492a14.821,14.821,0,0,0,2.046-.355l-1.781-.423C347.634,62.915,347.486,63.2,350.061,63.492Zm9.977-1.663c-.059.147,1.044.319,1.618.478L363.7,61.9l-1.824-.54A7.252,7.252,0,0,0,360.038,61.829ZM348.1,57.857l2.561.456,1.015-.423-1.693-.44Zm383.26-1.186,1.854.445,2.207-.391a9.123,9.123,0,0,0-1.957-.418h-.048A12.6,12.6,0,0,0,731.364,56.671ZM580.2,54.464a15.233,15.233,0,0,0,2.03-.356l-1.78-.415C577.784,53.885,577.636,54.166,580.2,54.464ZM389.8,54.006l2.281.407.824-.369-1.457-.407Zm359.895,0,2.516.394.839-.361-1.6-.4ZM348.413,54l2.531.385.839-.352-1.6-.4Zm649.076-1.215c-.045.071.206.142.544.218s.722.155,1.015.23l1.884-.4-1.706-.494A6.937,6.937,0,0,0,997.489,52.783ZM703.2,50.327c1.618.151,3.252.415,4.856.407a15.885,15.885,0,0,0,3.134-.625c-1.648-.147-3.281-.293-4.929-.436h-.014Zm35.563.218c1.6.235,3.208-.109,2.163-.456a25.024,25.024,0,0,0-3.9-.385A3.191,3.191,0,0,0,738.765,50.545Zm46.215-.39,2.472.411.941-.365-1.6-.4ZM737.029,49.7a2.063,2.063,0,0,0-.221-.164l-.5.113C736.529,49.674,736.793,49.686,737.029,49.7Zm-.721-.05.5-.113c-.221,0-.368-.013-.574-.017C736.234,49.568,736.308,49.6,736.308,49.653Zm-4-.407a21.863,21.863,0,0,0,3.928.276c-.162-.729-1.884-1.135-5.356-1.169C730.922,48.752,731.364,49.054,732.306,49.246ZM984.629,48c-.735.926,1.589,1.516,5.841,1.5a43.821,43.821,0,0,0,4.547-.482,10.9,10.9,0,0,0-1.3-.532c-1.574-.486-3.236-.959-4.958-1.471C986.6,47.507,984.849,47.725,984.629,48Zm756.337.947c-.073.134,1.075.293,1.678.444l1.958-.4-1.766-.478A8.35,8.35,0,0,0,1740.965,48.945Zm-703.382-1.128a19.392,19.392,0,0,0,2.9,1.555l2.516-.959q-.883-.529-1.766-1.052C1039.952,47.516,1037.495,47.742,1037.583,47.817Zm-63.945,1.036a4.333,4.333,0,0,0,3.884.058,10.2,10.2,0,0,0-1.824-.449A13.96,13.96,0,0,0,973.638,48.853Zm-430.431.041,2.472.385.838-.343-1.544-.386ZM730.5,48.341c.148,0,.25.013.383.013,0-.029-.058-.049-.058-.084Zm22.571-2.5c-3.826.167-5.71,1.051-4.223,1.827a16.414,16.414,0,0,0,2.089.519c2.074-.377,4.4-.716,6.165-1.157.883-.222.78-.633,1.119-.959-1.493-.073-3.075-.243-4.505-.243C753.493,45.831,753.278,45.835,753.067,45.844Zm114.471,1.839c-.029.076.221.156.56.235s.765.164,1.059.243l1.868-.461-1.6-.453A8.05,8.05,0,0,0,867.538,47.683Zm65.372.194,1.81.221c.53-.13,1.53-.268,1.545-.406,0-.139-1-.281-1.56-.424ZM768.766,44.834a6.519,6.519,0,0,0-1.78.368c-1.486.876,4.531,2.871,8.357,2.879a10.041,10.041,0,0,0,2.369-.356c1.662-.473,3.944-.939,4.531-1.48.192-.175-.9-.461-2.486-.75a64.736,64.736,0,0,0-8.461-.977C770.546,44.633,769.6,44.729,768.766,44.834Zm-112.308,2.43a6.59,6.59,0,0,0-1.78.356,4.689,4.689,0,0,0,3.34.226c.309-.1.044-.276.058-.419-.279-.03-.589-.08-.883-.118a5.126,5.126,0,0,0-.607-.051C656.539,47.259,656.5,47.261,656.457,47.264Zm8.386-3.176c-1.574.385-5.5.721-2.383,1.42,2.516.566,5.518,1.06,8.666,1.437a44.339,44.339,0,0,0,5.356-.377q-3.6-1.559-7.166-3.1C667.8,43.673,665.962,43.812,664.844,44.088ZM582.7,45.8c-2.5.013-5.018,0-7.43.1a3.057,3.057,0,0,0-1.722.716,9.327,9.327,0,0,0,2.12.293c4.091.126,6.43-.26,7.033-1.111l.78,0-.633-.143C582.83,45.714,582.728,45.747,582.7,45.8ZM1752.119,45.6c-.059.18.191.369.529.557s.765.377,1.059.566l3.37-.671-2.119-1.178C1753.958,45.115,1752.192,45.341,1752.119,45.6Zm-653.062-.746c-.338.076-.486.306-.236.377a9.16,9.16,0,0,0,2.192.374c2.8.054,5.665.109,8.416.021a10,10,0,0,0,2.634-.7,31.821,31.821,0,0,0-6.653-.506A35.629,35.629,0,0,0,1099.057,44.851Zm-77.732.18,4.3.6c1.6-.172,3.193-.347,4.8-.519a34.63,34.63,0,0,0-4.458-.579h-.084A40.495,40.495,0,0,0,1021.325,45.031ZM849.941,45.1c-.074.134.986.3,1.53.448a8.857,8.857,0,0,0,1.972-.419c.029-.151-1.119-.31-1.737-.465A6.977,6.977,0,0,0,849.941,45.1ZM508.335,43.527c-.368.063-.662.13-.677.2-.044.147.941.306,1.486.461l2.134-.39-.913-.23-.9-.23C509.144,43.4,508.7,43.464,508.335,43.527Zm535.972.213a9.219,9.219,0,0,0,1.958.4,11.767,11.767,0,0,0,2.1-.36l-1.927-.473Zm126.714-4.324a66.121,66.121,0,0,0-7.975,1.688c-.206.046.309.314.78.418a55.065,55.065,0,0,0,13.109.022c3.017-.608,2.089-1.433,1.912-2.209.206,0,.412.008.6.008l-.633-.133.03.125c-1.525-.007-3.167-.059-4.676-.059A27.508,27.508,0,0,0,1171.021,39.416Zm-83.765,2.091c5.666.21,11.433.289,17.171.369a5.033,5.033,0,0,0,2.03-.4,2.948,2.948,0,0,0-1.78-.8c-6.475-.058-12.963-.041-19.452-.041A4.161,4.161,0,0,0,1087.256,41.507Zm27.779-.331c2.339.189,4.649.41,7.062.524a8.552,8.552,0,0,0,1.9-.712c-1.56-.126-3.1-.252-4.664-.382Zm19.731-.289a6.31,6.31,0,0,0-1.75.319,4.436,4.436,0,0,0,3.148.247c.31-.084.162-.247.236-.373-.51-.065-1.118-.2-1.523-.2Q1134.818,40.883,1134.766,40.887Zm-50.349-.251h.809c-.088-.042-.162-.093-.25-.134Zm334.778-2.578a11.707,11.707,0,0,0-2.09.365c.265.893,3.252,1.366,6.445,1.751a7.558,7.558,0,0,0,2.545-.707c.361-.87-2.266-1.427-5.785-1.427C1419.947,38.04,1419.574,38.046,1419.195,38.058Zm420.558,1.3.617-.142-.75,0C1839.65,39.262,1839.738,39.295,1839.753,39.353Zm-6.857-1.237a7.8,7.8,0,0,0-2.531.7,7.306,7.306,0,0,0,1.9.344c2.443.05,4.9.042,7.357.05-.367-.732-2.153-1.12-5.17-1.12Q1833.721,38.086,1832.9,38.117Zm-573.521-2.434c-.485.041-.853.075-.853.079q2.627,1.559,5.547,3.088a11.161,11.161,0,0,0,1.633-.092c.647-.134,1.56-.331,1.486-.482a4.974,4.974,0,0,0-1.75-2.334,1.876,1.876,0,0,0-.633-.134c-.957-.113-2.767-.167-3.958-.26C1260.449,35.586,1259.861,35.636,1259.375,35.683Zm-110.352,1.1c-2.016.046-3.943.113-3.354.8a12.1,12.1,0,0,0,1.795.029,12.377,12.377,0,0,0,1.56-.825l.941-.021-.647-.134Zm83.926-.922a16.773,16.773,0,0,0,3.428.373,3.179,3.179,0,0,0,1.443-.453c.485-.9-1.354-1.416-5.238-1.554A2.38,2.38,0,0,0,1232.95,35.863Zm-1.044-1.672c.265.008.427.03.677.038v-.18Zm-34.033-1.977c-.22.519.294,1.4,1.692,1.537,3.148.314,7.062.339,10.652.336a14.407,14.407,0,0,0,3.237-.721,9.9,9.9,0,0,0-1.766-.4c-3.281-.314-6.989-.482-9.873-.918a19.525,19.525,0,0,0-2.659-.277C1198.451,31.768,1198.009,31.894,1197.873,32.214Zm70.861,1.253a3.839,3.839,0,0,0,3.722.037,8.8,8.8,0,0,0-1.8-.444A10.351,10.351,0,0,0,1268.734,33.466Zm579.892.482a10.412,10.412,0,0,0,1.648-.385c.162-.093-.471-.256-.721-.374h-1.81Zm-578.774-2.791a12.941,12.941,0,0,0,1.868-.038c.56-.7-1.515-.745-3.575-.791A15,15,0,0,0,1269.851,31.157Zm-2.471-.846.765.017-.266-.131Zm462.462-.913a1.645,1.645,0,0,0-.706.226c-.03.067.25.143.6.218s.78.156,1.089.23l2.192-.423-2.015-.465C1730.666,29.255,1730.225,29.326,1729.842,29.4Zm-57.662-.222c-2.575.218-2.678.528-.266.822a3.136,3.136,0,0,0,.678-.143c.323-.084.706-.188,1-.259-.25-.076-.544-.184-.809-.273a2.712,2.712,0,0,0-.585-.147Zm-260.666-.587a13.371,13.371,0,0,0,1.942-.037c.515-.7-1.574-.725-3.56-.779A13.378,13.378,0,0,0,1411.514,28.589Zm75-.527a23.352,23.352,0,0,0,3,.473c3.148-.432,2.266-.989,1.309-1.521a10.345,10.345,0,0,0-1.766-.427A13.173,13.173,0,0,0,1486.509,28.061Zm-77.584-.319c.309.016.647.021.971.03-.1-.055-.236-.113-.338-.168l-.78,0C1408.807,27.654,1408.91,27.688,1408.925,27.743Zm-7.24-1.282c-2.633.067-5.208.239-7.769.394-.235.013-.485.276-.25.339a8.62,8.62,0,0,0,2.119.369c4.326.038,8.652.033,12.992.038-.54-.77-2.593-1.156-5.893-1.156Q1402.31,26.444,1401.685,26.46Zm112.044.859c.221-.009.486-.394.266-.419-1.3-.151-2.678-.264-4.062-.385C1510.095,26.993,1510.36,27.454,1513.729,27.319Zm-4.473-.868.677.063-.074-.2Zm235.579-1.207a28.651,28.651,0,0,0-3.148.67c1.662.122,3.354.352,4.958.327a16.509,16.509,0,0,0,3.119-.587,8.153,8.153,0,0,0-3.124-.527A14.764,14.764,0,0,0,1744.835,25.245Zm73.788-.453c1.6.235,3.267-.13,2.236-.507a25.792,25.792,0,0,0-4.075-.4A3.4,3.4,0,0,0,1818.624,24.792Zm-2.4-.942c.162.016.382.025.559.038-.059-.042-.1-.088-.162-.126Zm-92.314-2.163c-.147.017.074.348.5.47,1.148.331,2.516.62,3.767.934a7.094,7.094,0,0,0,4.193.076,2.187,2.187,0,0,0,.721-.541c.589-.77-.971-1.248-4.193-1.316q-.148,0-.3,0C1727.069,21.307,1725.432,21.538,1723.912,21.687Zm-21.643.4c.176-.009.4-.369.176-.394-1.177-.142-2.471-.243-3.722-.352C1698.9,21.784,1699.165,22.211,1702.269,22.086Zm-4.12-.8.574.054-.074-.167ZM1993.216,72.858ZM1178.848,39.336Z" transform="translate(-237.291 -15.894)" fill="#fff0e2" stroke="rgba(0,0,0,0)" stroke-miterlimit="10" stroke-width="1"/></svg>