<svg xmlns="http://www.w3.org/2000/svg" xmlns:xlink="http://www.w3.org/1999/xlink" width="391.702" height="345.99" viewBox="0 0 391.702 345.99"><defs><filter id="a" x="0" y="0" width="391.702" height="345.99" filterUnits="userSpaceOnUse"><feOffset dy="3" input="SourceAlpha"/><feGaussianBlur stdDeviation="13.5" result="b"/><feFlood flood-opacity="0.09"/><feComposite operator="in" in2="b"/><feComposite in="SourceGraphic"/></filter></defs><g transform="matrix(1, 0, 0, 1, 0, 0)" filter="url(#a)"><path d="M3.712,5.282S18.106-2.244,44.14-5.04c30.42-3.267,76.306-1.917,114.707-1.917,70.075,0,125.164,12.239,125.164,12.239s5.229,57.254,5.229,112.622-5.229,108.849-5.229,108.849-31.377,9.371-80.3,10.85-82.812-4.934-115.4-4.934c-70.075,0-84.6-5.916-84.6-5.916a495.865,495.865,0,0,1-8.139-63.914c-1.554-24.371.134-54.452.134-77.152C-4.292,30.319,3.712,5.282,3.712,5.282Z" transform="matrix(1, -0.07, 0.07, 1, 46.08, 64.89)" fill="#fff"/></g></svg>