<svg xmlns="http://www.w3.org/2000/svg" width="129.123" height="115.435" viewBox="0 0 129.123 115.435"><g transform="matrix(0.799, 0.602, -0.602, 0.799, 51.078, -4.955)"><path d="M.3,78.669c-1.125,0,.7-7.16,9.212-18.865C19.29,46.352,28.237,36.972,45.465,23.517S87.412-3.39,87.412.768c0,1.509-14.337,18.161-34.181,33C41.145,42.808,28.641,53.747,20.05,64.841,11.638,74.43,1.312,78.669.3,78.669Z" transform="translate(0 6.204)" fill="#f1872d"/><path d="M41.466,53.948c-2.031,0-3.678-2.47-3.678-5.517s.118-3.349,3.678-11.693S49.922,17.51,52.028,15.054c.212-.247,3.328-3.434-6.047-1.773-8.216,1.457-28.909,7.762-35.965,8.132-12.328.647-10.581-4.02-8.653-6.359,0,0,19.651-3.1,35.131-6.776A246.049,246.049,0,0,0,63.286.356c1.534-1.217,5.343.912,6.672,2.918a4.329,4.329,0,0,1,0,4.274A105.572,105.572,0,0,0,57.866,24.332c-5.051,8.774-10.492,22.142-10.492,22.784C47.375,50.163,43.5,53.948,41.466,53.948Z" transform="translate(27.173 0)" fill="#f1872d"/></g></svg>