<svg xmlns="http://www.w3.org/2000/svg" width="84.04" height="50.707" viewBox="0 0 84.04 50.707"><g transform="translate(0.004)"><g transform="translate(-0.004 0)"><path d="M61.473,32.141H54.461L50.26,22h7.055a1.449,1.449,0,0,1,1.26.724l4.158,7.244a1.449,1.449,0,0,1-1.26,2.173Z" transform="translate(21.112 9.873)" fill="#f4431a"/><path d="M13.664,22l-4.2,10.141H2.451a1.449,1.449,0,0,1-1.26-2.173l4.158-7.244A1.449,1.449,0,0,1,6.609,22Z" transform="translate(-0.996 9.873)" fill="#f4431a"/><path d="M52.623,32.141H18.07L20.881,22H49.812l.217.768Z" transform="translate(6.666 9.873)" fill="#f4431a"/><path d="M53.368,19.244H49.109L46.11,12h4.766a1.449,1.449,0,0,1,1.26.724l2.492,4.346a1.449,1.449,0,0,1-1.26,2.173Z" transform="translate(19.25 5.385)" fill="#f4431a"/><path d="M16.589,12l-3.013,7.244H9.331a1.449,1.449,0,0,1-1.26-2.173l2.492-4.346A1.449,1.449,0,0,1,11.822,12Z" transform="translate(2.091 5.385)" fill="#f4431a"/><path d="M46.319,19.244H21.4L23.4,12h20.92Z" transform="translate(8.161 5.385)" fill="#f4431a"/><path d="M56.876,50.707H52.069a2.9,2.9,0,0,1-2.793-2.125l-1.817-6.567L44.648,31.873,36.347,1.84A1.449,1.449,0,0,1,37.737,0h1.449a1.449,1.449,0,0,1,1.347.9L53.384,31.873,57.6,42.014,59.544,46.7a2.9,2.9,0,0,1-2.669,4.009Z" transform="translate(14.844 0)" fill="#f4431a"/><path d="M30.924,1.84l-8.3,30.033L19.812,42.014,18,48.581A2.9,2.9,0,0,1,15.2,50.707H10.4A2.9,2.9,0,0,1,7.727,46.7l1.944-4.684,4.216-10.141L26.737.9A1.449,1.449,0,0,1,28.085,0h1.449a1.449,1.449,0,0,1,1.391,1.84Z" transform="translate(1.925 0)" fill="#f4431a"/><path d="M47.4,9.8H45.2L42.78,4h2.955A1.449,1.449,0,0,1,47,4.724l1.666,2.9A1.449,1.449,0,0,1,47.4,9.8Z" transform="translate(17.755 1.795)" fill="#f4431a"/><path d="M19.088,4l-2.4,5.8h-2.2a1.449,1.449,0,0,1-1.26-2.173l1.666-2.9A1.449,1.449,0,0,1,16.147,4Z" transform="translate(4.403 1.795)" fill="#f4431a"/><path d="M41.594,9.8H23.89L25.484,4H40Z" transform="translate(9.278 1.795)" fill="#f4431a"/></g></g></svg>