<svg xmlns="http://www.w3.org/2000/svg" width="115.563" height="52.707" viewBox="0 0 115.563 52.707"><g transform="translate(10347.081 -16892.531)"><path d="M20.814,40.052c-6.63,0-11.822-.826-15.431-2.455A10.8,10.8,0,0,1,.743,33.992c-.074-.1-.138-.184-.2-.255a2.191,2.191,0,0,1-.455-2.054.981.981,0,0,1,.6-.68,1.531,1.531,0,0,1,.364-.055c.313,0,.409.179.569.476.436.812,1.344,2.5,8.527,3.67a41.163,41.163,0,0,0,6.845.5c2.357,0,5.081-.138,8.329-.422a89.123,89.123,0,0,0,21.846-5.6,1.546,1.546,0,0,1-.074-.241c-1.719-3.083-1.389-7.129.93-11.391l.071-.131c.887-1.689,4.175-6.074,8.683-6.074.224,0,.452.011.676.033a3.91,3.91,0,0,1,2.785,1.661,9.658,9.658,0,0,1,2.2,4.379,11.013,11.013,0,0,1-1.447,7.515,13.4,13.4,0,0,1-3.543,3.555l-.19.141c-.222.166-.456.336-.7.506.256.014.518.022.776.022a10.11,10.11,0,0,0,1.417-.092l.069-.01a49.053,49.053,0,0,0,19.734-7.4A120.205,120.205,0,0,0,100.979,1.56c.291-.334.484-.555.558-.629l.174-.176.005-.005c.445-.452.74-.751,1.162-.751a1.1,1.1,0,0,1,.263.034.309.309,0,0,1,.237.191c.126.343-.342.993-.347,1a1.412,1.412,0,0,1,1.131.708c.355.715.072,1.9-.842,3.518A79.02,79.02,0,0,1,91.349,20.463a82.917,82.917,0,0,1-12.578,9.715c-.358.189-1.2.528-2.268.957-.687.276-1.465.588-2.277.926s-1.311.519-1.714.666a13.582,13.582,0,0,0-2.059.912c-4.52,1.8-7.432,2.5-10.389,2.5a28.026,28.026,0,0,1-3.844-.3A13.243,13.243,0,0,1,50.2,33.266c-.4.2-.8.392-1.2.575a68.044,68.044,0,0,1-11.936,4.118A67.112,67.112,0,0,1,21.3,40.051ZM47.157,30.58c-.023.007-2.325.75-4.454,1.524s-4.2,1.578-4.217,1.586a33.879,33.879,0,0,0,4.767-1.242A24.083,24.083,0,0,0,47.157,30.58ZM67.579,29c-.025.006-2.494.653-5.047,1.2s-5.254,1-5.281,1c.007,0,.314.017.828.017a22.312,22.312,0,0,0,4.454-.429A24.733,24.733,0,0,0,67.579,29ZM58.03,17.115h0a8.046,8.046,0,0,0-2.341.512c-.322.151-1.178.551-2.953,2.671-.114.2-.3.457-.508.753A9.386,9.386,0,0,0,50.017,27.6c.013.125.13.264.348.412,3.348-1.87,8.907-5.715,8.512-10.459a.154.154,0,0,1-.008-.025c-.027-.1-.108-.409-.839-.409Z" transform="translate(-10347.079 16905.186)" fill="#f4431a"/><path d="M26.293,22.434h0a.381.381,0,0,1-.069-.026,8.411,8.411,0,0,1-1.567-1.2l-.077-.083-.023-.01c-.076-.115-.447-.813-.346-3.346.1-2.62.719-7.2,1.076-9.7a.977.977,0,0,1,.034-.14l0-.01a.742.742,0,0,0-.252-.9l-.008,0a.8.8,0,0,0-.473-.163,3.13,3.13,0,0,0-1.07.339c-.167.069-.405.191-.724.356a22.734,22.734,0,0,1-2.128,1c-.212.083-.437.158-.71.247-.438.143-.983.322-1.678.618-.518.222-1.037.5-1.587.787-.663.351-1.349.713-2.162,1.057-.308.13-.63.239-.971.354l-.009,0c-.433.146-.924.311-1.477.551-.678.294-1.329.615-1.959.926l-.066.032c-.88.436-1.791.886-2.836,1.3a14.241,14.241,0,0,1-1.4.459l-.024.007a9.078,9.078,0,0,0-1.661.6,1.726,1.726,0,0,0-.784.7c-.064.1-.107.173-.621.276a1.6,1.6,0,0,1-.32.033C1.154,16.5.5,14.881.5,14.323v-.011a.737.737,0,0,1,.111-.445,3.259,3.259,0,0,1,1.1-.976A76.145,76.145,0,0,1,8.6,9.379l.047-.022c1.288-.611,2.552-1.212,3.848-1.845.963-.47,1.958-.949,2.92-1.413l.409-.2c3.351-1.613,6.516-3.137,8.87-4.466l.006,0,.006,0A4.418,4.418,0,0,1,27.175.5h.073c.548.011.723.182,1.378.9l.152.168a5.3,5.3,0,0,1,.983,1.982l0,.006,0,.005A8.516,8.516,0,0,1,30.02,5.53a11.1,11.1,0,0,1-.253,2.113,45.977,45.977,0,0,0-2.1,6.565,68.531,68.531,0,0,0-1.25,7.681,2.165,2.165,0,0,1-.123.546ZM25.647,1.813,21.929,3.672,17.96,5.7a30,30,0,0,0,4.4-1.686A16.9,16.9,0,0,0,25.647,1.813Z" transform="translate(-10261.538 16892.031)" fill="#f4431a"/></g></svg>