<svg xmlns="http://www.w3.org/2000/svg" width="269.601" height="11.457" viewBox="0 0 269.601 11.457">
  <path id="Path_1317" data-name="Path 1317" d="M268.933,8.361c.007,3.627-4.8,1.544-10.4,1.582-15.345.1-48.2-1.832-84.811-3.021-2.135-.069-24.341.768-59.22,2.2s-82.7,4.2-80.3,3.54c1.764-.486,31.8-4.651,63.425-6.725,32.78-2.15,67.147-2.2,66.825-2.212-6.961-.179-13.963-.3-20.865-.351-40.076-.282-75.811,5.051-88.27,5.051-21.636,0-40.361,2.034-49.706,2.435-3.655.157-6.01.761-6.24-.682s-1.122-4.413,55.946-6.8c24.768-1.038,68.938-2.732,110.192-1.8,39.982.908,93.878,4.7,93.962,4.709C260.051,6.452,268.925,4.734,268.933,8.361Z" transform="translate(0.668 -1.309)" fill="#f4431a"/>
</svg>
