<svg xmlns="http://www.w3.org/2000/svg" width="97.855" height="91.864" viewBox="0 0 97.855 91.864"><g transform="translate(9.698 -11.124)"><path d="M16.911,445.4V453a2.813,2.813,0,1,0,5.626,0v-7.6a11.59,11.59,0,0,1-5.626,0Z" transform="translate(-21.619 -352.83)" fill="#f4431a"/><circle cx="5.979" cy="5.979" r="5.979" transform="translate(-9.698 84.569) rotate(-67.486)" fill="#f4431a"/><path d="M107.373,195.748a12.454,12.454,0,0,1-4.16-.713L73.057,184.377V206.21a3.519,3.519,0,0,0,2.093,3.208,79,79,0,0,0,64.446,0,3.519,3.519,0,0,0,2.093-3.208V184.377l-30.156,10.657A12.454,12.454,0,0,1,107.373,195.748Z" transform="translate(-67.235 -140.76)" fill="#f4431a"/><path d="M93.618,26.823,50.3,11.515a6.859,6.859,0,0,0-4.571,0L2.419,26.823a3.627,3.627,0,0,0,0,6.839l.753.266V70.054a11.591,11.591,0,0,1,5.626,0V35.916L45.733,48.969a6.859,6.859,0,0,0,4.571,0L93.618,33.662A3.627,3.627,0,0,0,93.618,26.823Z" transform="translate(-7.879)" fill="#f4431a"/></g></svg>