<svg xmlns="http://www.w3.org/2000/svg" xmlns:xlink="http://www.w3.org/1999/xlink" width="184" height="184" viewBox="0 0 184 184"><defs><clipPath id="a"><rect width="184" height="184" transform="translate(-1956 15030)" fill="none" stroke="#707070" stroke-width="4"/></clipPath></defs><g transform="translate(1956 -15030)" clip-path="url(#a)"><g transform="translate(-2968.911 6341.768)"><g transform="translate(1075.762 8758.762)"><g transform="translate(33.59)"><path d="M309.358,9.814a5.021,5.021,0,0,0-1.48-3.572L303.116,1.48a5.164,5.164,0,0,0-3.6-1.48h-.289V10.1h10.136V9.814Z" transform="translate(-299.222 0)" fill="#7b88a8"/></g><path d="M30.752,34.748a6.759,6.759,0,0,1,1.618-2.628l11.4-11.355V13.471H31.939a1.637,1.637,0,0,1-1.629-1.684V0H5.052A5.057,5.057,0,0,0,0,5.052V52.425a5.057,5.057,0,0,0,5.052,5.052H38.675a5.1,5.1,0,0,0,5.1-5.052V39.857l-1.85,1.806A6.7,6.7,0,0,1,39.3,43.278l-5.354,1.788-.816.044a4.21,4.21,0,0,1-3.989-5.547ZM8.419,30.31H25.2a1.684,1.684,0,1,1,0,3.368H8.419a1.684,1.684,0,1,1,0-3.368ZM6.736,25.258a1.683,1.683,0,0,1,1.684-1.684H25.2a1.684,1.684,0,0,1,0,3.368H8.419A1.683,1.683,0,0,1,6.736,25.258Zm0,13.471a1.683,1.683,0,0,1,1.684-1.684H25.2a1.684,1.684,0,1,1,0,3.368H8.419A1.683,1.683,0,0,1,6.736,38.729Zm25.2,8.419a1.684,1.684,0,1,1,0,3.368h-10.1a1.684,1.684,0,1,1,0-3.368ZM8.419,20.207a1.684,1.684,0,1,1,0-3.368h23.52a1.684,1.684,0,0,1,0,3.368Z" fill="#7b88a8"/><g transform="translate(32.293 36.238)"><path d="M289.172,322.808l-1.465,4.4a.842.842,0,0,0,1.065,1.065l4.392-1.467Z" transform="translate(-287.663 -322.808)" fill="#7b88a8"/></g><g transform="translate(35.79 22.374)"><path d="M329.91,199.307,318.82,210.4l4.783,4.783,11.089-11.091Z" transform="translate(-318.82 -199.307)" fill="#7b88a8"/></g><g transform="translate(49.261 16.609)"><path d="M446.045,148.885a3.516,3.516,0,0,0-4.779,0l-2.447,2.447,4.782,4.782,2.447-2.447A3.39,3.39,0,0,0,446.045,148.885Z" transform="translate(-438.819 -147.949)" fill="#7b88a8"/></g><g transform="translate(56.49 22.295)"><path d="M503.215,198.818h0l.01-.01Z" transform="translate(-503.215 -198.785)" fill="#7b88a8"/><path d="M503.3,198.69l.015-.015Z" transform="translate(-503.293 -198.667)" fill="#7b88a8"/><path d="M503.436,198.61Z" transform="translate(-503.411 -198.602)" fill="#7b88a8"/></g></g><path d="M7.8,33.368S-.311,45.85.009,65.124,7.8,94.091,7.8,94.091s11.85,23.482,54.906,20.789S118.9,86.3,118.9,86.3s5.086-10.312,4.985-20.933S118.5,43.814,118.5,43.814,100.8,4.965,60.863,3.552,7.941,43.732,7.941,43.732s-.605,2.07-1.206,5.261-1.1,7.759-1.1,7.759,1-4.081,1.862-6.694,1.494-4.009,1.494-4.009S24.972,6.611,61.01,6.611,117.9,47.16,117.9,47.16a42.593,42.593,0,0,1,4.339,18.763c.065,11.055-4.476,17.739-4.476,17.739S103.825,108.681,62.7,111.209,7.941,90.415,7.941,90.415.985,78.59,1.076,65.124,7.866,37.359,8.308,36.552,24.563,11.536,45.157,4.781s45.527,4.75,45.527,4.75S83.669-6.635,50.059,3.141,7.8,33.368,7.8,33.368Z" transform="translate(1106.228 8695.69) rotate(48)" fill="#7b88a8"/><path d="M42.625-4.384C75.207,2.078,113.152,106.924,97.595,133.95S-15.706,141.591-32.73,108.1,10.044-10.845,42.625-4.384Z" transform="translate(1066.667 8706.047)" fill="#7b88a8" opacity="0.1"/></g></g></svg>