<svg xmlns="http://www.w3.org/2000/svg" xmlns:xlink="http://www.w3.org/1999/xlink" width="184" height="184" viewBox="0 0 184 184"><defs><clipPath id="a"><rect width="184" height="184" transform="translate(-1956 15048)" fill="none" stroke="#707070" stroke-width="4"/></clipPath></defs><g transform="translate(1956 -15048)" clip-path="url(#a)"><g transform="translate(-2200.286 5928.806)"><g transform="translate(294.501 9136.674)"><g transform="translate(-0.001 46.994)"><path d="M94.28,120.939,65.748,144.46a.674.674,0,0,1-.025.149.679.679,0,0,0-.025.148v23.818a3.222,3.222,0,0,0,3.176,3.177H87.928V152.7h12.7v19.055h19.053a3.225,3.225,0,0,0,3.177-3.177V144.757a.7.7,0,0,0-.05-.3Z" transform="translate(-54.28 -108.087)" fill="#7f694e"/><path d="M79.447,78.008,68.581,68.977V48.731a1.53,1.53,0,0,0-1.588-1.588H57.466a1.527,1.527,0,0,0-1.588,1.588v9.676L43.771,48.284a6.156,6.156,0,0,0-7.542,0L.551,78.008a1.441,1.441,0,0,0-.546,1.066,1.607,1.607,0,0,0,.347,1.167l3.076,3.672a1.692,1.692,0,0,0,1.042.546,1.844,1.844,0,0,0,1.191-.347L40,55.479,74.337,84.111a1.529,1.529,0,0,0,1.042.346h.149a1.694,1.694,0,0,0,1.042-.545l3.077-3.672a1.606,1.606,0,0,0,.346-1.167A1.446,1.446,0,0,0,79.447,78.008Z" transform="translate(0.001 -46.994)" fill="#7f694e"/></g></g><path d="M7.8,33.368S-.311,45.851.009,65.124,7.8,94.091,7.8,94.091s11.85,23.482,54.905,20.789S118.9,86.3,118.9,86.3s5.086-10.312,4.985-20.933S118.5,43.814,118.5,43.814,100.8,4.965,60.863,3.552,7.941,43.732,7.941,43.732s-.605,2.07-1.206,5.261-1.1,7.759-1.1,7.759,1-4.081,1.862-6.694,1.494-4.009,1.494-4.009S24.972,6.611,61.01,6.611,117.9,47.16,117.9,47.16a42.593,42.593,0,0,1,4.339,18.763c.065,11.055-4.476,17.739-4.476,17.739S103.825,108.681,62.7,111.209,7.941,90.415,7.941,90.415.985,78.59,1.076,65.124,7.866,37.359,8.308,36.552,24.563,11.536,45.157,4.781s45.527,4.75,45.527,4.75S83.669-6.635,50.059,3.141,7.8,33.368,7.8,33.368Z" transform="translate(251.878 9187.483) rotate(-26)" fill="#93826e"/><path d="M78.345.347c32.581,6.462,70.527,111.308,54.969,138.334S20.013,146.322,2.99,112.834,45.764-6.114,78.345.347Z" transform="matrix(0.545, -0.839, 0.839, 0.545, 221.713, 9224.717)" fill="#7e694e" opacity="0.1"/></g></g></svg>