<svg xmlns="http://www.w3.org/2000/svg" xmlns:xlink="http://www.w3.org/1999/xlink" width="184" height="184" viewBox="0 0 184 184"><defs><clipPath id="a"><rect width="184" height="184" transform="translate(-15057 12134.848)" fill="none" stroke="#707070" stroke-width="1"/></clipPath></defs><g transform="translate(15057 -12134.848)" clip-path="url(#a)"><g transform="translate(-15749.151 6315.219)"><g transform="translate(763.771 5838.106)"><g transform="translate(0 61.038)"><path d="M50.345,62.348l-.921,5.609A8.869,8.869,0,0,0,40,69.15a5.746,5.746,0,0,1-7.392,0,9.107,9.107,0,0,0-11.5,0,5.891,5.891,0,0,1-7.5,0,8.831,8.831,0,0,0-9.565-1.127l-.932-5.676a1.565,1.565,0,0,0-3.089.508L5.358,95.323a7.828,7.828,0,0,0,7.7,6.427H40.4A7.835,7.835,0,0,0,48.106,95.3l5.328-32.44A1.565,1.565,0,0,0,50.345,62.348Z" transform="translate(0 -61.038)" fill="#7b88a8"/></g></g><path d="M42.625-4.384C75.207,2.078,113.152,106.924,97.595,133.95S-15.706,141.591-32.73,108.1,10.044-10.845,42.625-4.384Z" transform="translate(857.889 5859.171) rotate(73)" fill="#7b88a8" opacity="0.1"/><path d="M7.8,33.368S-.311,45.851.009,65.124,7.8,94.091,7.8,94.091s11.85,23.482,54.905,20.789S118.9,86.3,118.9,86.3s5.086-10.312,4.985-20.933S118.5,43.814,118.5,43.814,100.8,4.965,60.863,3.552,7.941,43.732,7.941,43.732s-.605,2.07-1.206,5.261-1.1,7.759-1.1,7.759,1-4.081,1.862-6.694,1.494-4.009,1.494-4.009S24.972,6.611,61.01,6.611,117.9,47.16,117.9,47.16a42.593,42.593,0,0,1,4.339,18.763c.065,11.055-4.476,17.739-4.476,17.739S103.825,108.681,62.7,111.209,7.941,90.415,7.941,90.415.985,78.59,1.076,65.124,7.866,37.359,8.308,36.552,24.563,11.536,45.157,4.781s45.527,4.75,45.527,4.75S83.669-6.635,50.059,3.141,7.8,33.368,7.8,33.368Z" transform="matrix(0.998, 0.07, -0.07, 0.998, 729.907, 5850.73)" fill="#7b88a8"/></g></g></svg>